SplineFontDB: 3.0
FontName: Gafata-Regular
FullName: Gafata
FamilyName: Gafata
Weight: Book
Copyright: Copyright (c) 2010-2012, Lautaro Hourcade (lautaro.uy@gmail.com), with Reserved Font Name 'Gafata'
Version: 4.001
ItalicAngle: 0
UnderlinePosition: -50
UnderlineWidth: 50
Ascent: 800
Descent: 200
sfntRevision: 0x00040042
LayerCount: 2
Layer: 0 1 "Back"  1
Layer: 1 1 "Fore"  0
XUID: [1021 761 497822079 2190469]
FSType: 0
OS2Version: 3
OS2_WeightWidthSlopeOnly: 0
OS2_UseTypoMetrics: 1
CreationTime: 1291909980
ModificationTime: 1351749398
PfmFamily: 17
TTFWeight: 400
TTFWidth: 5
LineGap: 0
VLineGap: 0
Panose: 2 0 5 3 0 0 0 2 0 4
OS2TypoAscent: 921
OS2TypoAOffset: 0
OS2TypoDescent: -202
OS2TypoDOffset: 0
OS2TypoLinegap: 0
OS2WinAscent: 921
OS2WinAOffset: 0
OS2WinDescent: 202
OS2WinDOffset: 0
HheadAscent: 921
HheadAOffset: 0
HheadDescent: -202
HheadDOffset: 0
OS2SubXSize: 650
OS2SubYSize: 600
OS2SubXOff: 0
OS2SubYOff: 75
OS2SupXSize: 650
OS2SupYSize: 600
OS2SupXOff: 0
OS2SupYOff: 350
OS2StrikeYSize: 50
OS2StrikeYPos: 295
OS2Vendor: 'PYRS'
OS2CodePages: 20000001.00000000
OS2UnicodeRanges: 8000002f.4000004a.00000000.00000000
Lookup: 258 0 0 "'kern' Horizontal Kerning in Latin lookup 0"  {"'kern' Horizontal Kerning in Latin lookup 0 subtable"  } ['kern' ('latn' <'dflt' > ) ]
DEI: 91125
TtTable: prep
PUSHW_1
 511
SCANCTRL
PUSHB_1
 4
SCANTYPE
EndTTInstrs
ShortTable: maxp 16
  1
  0
  233
  74
  7
  0
  0
  2
  0
  1
  1
  0
  64
  0
  0
  0
EndShort
LangName: 1033 "" "" "" "LautaroHourcade: Gafata: 2010" "" "Version 4.001" "" "Gafata is a trademark of Lautaro Hourcade." "Lautaro Hourcade" "Lautaro Hourcade" "" "" "" "This Font Software is licensed under the SIL Open Font License, Version 1.1. This license is available with a FAQ at: http://scripts.sil.org/OFL" "http://scripts.sil.org/OFL" 
GaspTable: 1 65535 15 1
Encoding: UnicodeBmp
UnicodeInterp: none
NameList: AGL For New Fonts
DisplaySize: -24
AntiAlias: 1
FitToEm: 1
BeginChars: 65540 233

StartChar: exclam
Encoding: 33 33 4
Width: 243
GlyphClass: 2
Flags: W
LayerCount: 2
Fore
SplineSet
145 146 m 1,0,-1
 100 146 l 1,1,-1
 90 380 l 1,2,-1
 85 671 l 1,3,-1
 160 671 l 1,4,-1
 155 380 l 1,5,-1
 145 146 l 1,0,-1
158 1 m 1,6,-1
 86 1 l 1,7,-1
 86 75 l 1,8,-1
 158 75 l 1,9,-1
 158 1 l 1,6,-1
EndSplineSet
EndChar

StartChar: quotedbl
Encoding: 34 34 5
Width: 833
GlyphClass: 2
Flags: W
LayerCount: 2
Fore
SplineSet
84 667 m 1,0,-1
 144 667 l 1,1,-1
 144 613 l 2,2,3
 144 569 144 569 143.5 551.5 c 128,-1,4
 143 534 143 534 131 513 c 128,-1,5
 119 492 119 492 111 485 c 128,-1,6
 103 478 103 478 66 447 c 1,7,-1
 40 470 l 1,8,9
 69 508 69 508 81 535 c 1,10,-1
 84 612 l 1,11,-1
 84 667 l 1,0,-1
206 667 m 1,12,-1
 267 667 l 1,13,-1
 266 613 l 1,14,15
 266 539 266 539 257 518 c 128,-1,16
 248 497 248 497 201 457 c 0,17,18
 193 451 193 451 189 447 c 1,19,-1
 162 470 l 1,20,21
 190 508 190 508 204 535 c 1,22,-1
 206 612 l 1,23,-1
 206 667 l 1,12,-1
EndSplineSet
EndChar

StartChar: numbersign
Encoding: 35 35 6
Width: 833
GlyphClass: 2
Flags: W
LayerCount: 2
Fore
SplineSet
348 -71 m 1,0,-1
 383 118 l 1,1,-1
 233 118 l 1,2,-1
 196 -84 l 1,3,-1
 135 -71 l 1,4,-1
 170 118 l 1,5,-1
 61 118 l 1,6,-1
 60 176 l 1,7,-1
 181 176 l 1,8,-1
 212 339 l 1,9,-1
 105 339 l 1,10,-1
 104 397 l 1,11,-1
 223 397 l 1,12,-1
 257 578 l 1,13,-1
 317 565 l 1,14,-1
 286 397 l 1,15,-1
 436 397 l 1,16,-1
 470 578 l 1,17,-1
 530 565 l 1,18,-1
 499 397 l 1,19,-1
 603 397 l 1,20,-1
 604 339 l 1,21,-1
 488 339 l 1,22,-1
 457 176 l 1,23,-1
 559 176 l 1,24,-1
 560 118 l 1,25,-1
 446 118 l 1,26,-1
 409 -84 l 1,27,-1
 348 -71 l 1,0,-1
275 339 m 1,28,-1
 244 176 l 1,29,-1
 394 176 l 1,30,-1
 425 339 l 1,31,-1
 275 339 l 1,28,-1
EndSplineSet
EndChar

StartChar: dollar
Encoding: 36 36 7
Width: 538
GlyphClass: 2
Flags: W
LayerCount: 2
Fore
SplineSet
226 -97 m 1,0,-1
 226 -7 l 1,1,-1
 223 -7 l 2,2,3
 137 -7 137 -7 47 22 c 1,4,-1
 63 75 l 1,5,6
 141 46 141 46 222 46 c 128,-1,7
 303 46 303 46 338.5 70 c 128,-1,8
 374 94 374 94 374 160 c 0,9,10
 374 204 374 204 340 228 c 1,11,12
 298 260 298 260 258 273 c 1,13,14
 198 300 198 300 172 312.5 c 128,-1,15
 146 325 146 325 113.5 347.5 c 128,-1,16
 81 370 81 370 69 393.5 c 128,-1,17
 57 417 57 417 56 449 c 1,18,19
 56 520 56 520 103.5 562.5 c 128,-1,20
 151 605 151 605 226 611 c 1,21,-1
 226 714 l 1,22,-1
 280 714 l 1,23,-1
 280 610 l 1,24,25
 345 605 345 605 416 582 c 1,26,-1
 403 534 l 1,27,28
 309 558 309 558 267 558 c 0,29,30
 187 558 187 558 155.5 536 c 128,-1,31
 124 514 124 514 124 457 c 0,32,33
 124 414 124 414 168 386 c 0,34,35
 199 366 199 366 277.5 333 c 128,-1,36
 356 300 356 300 385 280 c 0,37,38
 448 236 448 236 449 162 c 1,39,40
 449 15 449 15 280 -4 c 1,41,-1
 280 -97 l 1,42,-1
 226 -97 l 1,0,-1
EndSplineSet
EndChar

StartChar: percent
Encoding: 37 37 8
Width: 755
GlyphClass: 2
Flags: W
LayerCount: 2
Fore
SplineSet
220 -9 m 1,0,-1
 155 -9 l 1,1,-1
 529 696 l 1,2,-1
 593 696 l 1,3,-1
 220 -9 l 1,0,-1
197 647 m 128,-1,5
 148 647 148 647 135 628 c 128,-1,6
 122 609 122 609 122 543 c 128,-1,7
 122 477 122 477 136.5 451.5 c 128,-1,8
 151 426 151 426 199.5 426 c 128,-1,9
 248 426 248 426 260.5 446 c 128,-1,10
 273 466 273 466 273 531 c 128,-1,11
 273 596 273 596 259.5 621.5 c 128,-1,4
 246 647 246 647 197 647 c 128,-1,5
197 696 m 0,12,13
 277 696 277 696 301 662 c 128,-1,14
 325 628 325 628 325 545.5 c 128,-1,15
 325 463 325 463 292 420 c 128,-1,16
 259 377 259 377 190 377 c 128,-1,17
 121 377 121 377 95.5 412 c 128,-1,18
 70 447 70 447 70 528.5 c 128,-1,19
 70 610 70 610 104 653 c 128,-1,20
 138 696 138 696 197 696 c 0,12,13
557 259 m 128,-1,22
 508 259 508 259 495 240 c 128,-1,23
 482 221 482 221 482 155 c 128,-1,24
 482 89 482 89 496.5 63.5 c 128,-1,25
 511 38 511 38 559.5 38 c 128,-1,26
 608 38 608 38 620.5 58 c 128,-1,27
 633 78 633 78 633 143 c 128,-1,28
 633 208 633 208 619.5 233.5 c 128,-1,21
 606 259 606 259 557 259 c 128,-1,22
557 308 m 0,29,30
 637 308 637 308 661 274 c 128,-1,31
 685 240 685 240 685 157.5 c 128,-1,32
 685 75 685 75 652 32 c 128,-1,33
 619 -11 619 -11 550 -11 c 128,-1,34
 481 -11 481 -11 455.5 24 c 128,-1,35
 430 59 430 59 430 140.5 c 128,-1,36
 430 222 430 222 464 265 c 128,-1,37
 498 308 498 308 557 308 c 0,29,30
EndSplineSet
EndChar

StartChar: ampersand
Encoding: 38 38 9
Width: 590
GlyphClass: 2
Flags: W
LayerCount: 2
Fore
SplineSet
572 355 m 1,0,-1
 575 314 l 1,1,-1
 574 302 l 1,2,-1
 478 302 l 1,3,4
 495 232 495 232 495 176.5 c 128,-1,5
 495 121 495 121 474 84.5 c 128,-1,6
 453 48 453 48 420 28 c 0,7,8
 357 -9 357 -9 290 -9 c 0,9,10
 199 -9 199 -9 137.5 36.5 c 128,-1,11
 76 82 76 82 76 169 c 0,12,13
 76 286 76 286 167 332 c 1,14,15
 96 387 96 387 96 476.5 c 128,-1,16
 96 566 96 566 151.5 612.5 c 128,-1,17
 207 659 207 659 262 659 c 128,-1,18
 317 659 317 659 355 644 c 1,19,-1
 332 591 l 1,20,21
 306 604 306 604 265 604 c 0,22,23
 202 604 202 604 183 574.5 c 128,-1,24
 164 545 164 545 164 482.5 c 128,-1,25
 164 420 164 420 197.5 390.5 c 128,-1,26
 231 361 231 361 294 352 c 1,27,-1
 279 302 l 1,28,29
 232 302 232 302 216 307 c 1,30,31
 203 302 203 302 189.5 292 c 128,-1,32
 176 282 176 282 160.5 249 c 128,-1,33
 145 216 145 216 145 169.5 c 128,-1,34
 145 123 145 123 183 84.5 c 128,-1,35
 221 46 221 46 290 46 c 0,36,37
 427 46 427 46 427 168 c 0,38,39
 427 274 427 274 414 342 c 1,40,41
 414 349 414 349 532 354 c 1,42,-1
 572 355 l 1,0,-1
EndSplineSet
EndChar

StartChar: quotesingle
Encoding: 39 39 10
Width: 833
GlyphClass: 2
Flags: W
LayerCount: 2
Fore
SplineSet
84 667 m 1,0,-1
 144 667 l 1,1,-1
 144 613 l 2,2,3
 144 569 144 569 143.5 551.5 c 128,-1,4
 143 534 143 534 131 513 c 128,-1,5
 119 492 119 492 111 485 c 128,-1,6
 103 478 103 478 66 447 c 1,7,-1
 40 470 l 1,8,9
 69 508 69 508 81 535 c 1,10,-1
 84 612 l 1,11,-1
 84 667 l 1,0,-1
EndSplineSet
EndChar

StartChar: parenleft
Encoding: 40 40 11
Width: 390
GlyphClass: 2
Flags: W
LayerCount: 2
Fore
SplineSet
141 11 m 128,-1,1
 111 111 111 111 111 279.5 c 128,-1,2
 111 448 111 448 141 545 c 128,-1,3
 171 642 171 642 244 707 c 1,4,-1
 270 684 l 1,5,6
 243 650 243 650 235.5 633.5 c 128,-1,7
 228 617 228 617 219 589.5 c 128,-1,8
 210 562 210 562 207 551.5 c 128,-1,9
 204 541 204 541 196.5 508.5 c 128,-1,10
 189 476 189 476 186 448 c 0,11,12
 177 364 177 364 177 268 c 0,13,14
 177 64 177 64 229 -67 c 1,15,16
 243 -96 243 -96 270 -133 c 1,17,-1
 244 -156 l 1,18,0
 171 -89 171 -89 141 11 c 128,-1,1
EndSplineSet
EndChar

StartChar: parenright
Encoding: 41 41 12
Width: 390
GlyphClass: 2
Flags: W
LayerCount: 2
Fore
SplineSet
174 552 m 0,0,1
 158 606 158 606 148 628 c 128,-1,2
 138 650 138 650 111 684 c 1,3,-1
 137 707 l 1,4,5
 210 642 210 642 240 545 c 128,-1,6
 270 448 270 448 270 279.5 c 128,-1,7
 270 111 270 111 240 11 c 128,-1,8
 210 -89 210 -89 137 -156 c 1,9,-1
 111 -133 l 1,10,11
 138 -96 138 -96 152 -67 c 1,12,13
 204 64 204 64 204 255 c 128,-1,14
 204 446 204 446 174 552 c 0,0,1
EndSplineSet
EndChar

StartChar: asterisk
Encoding: 42 42 13
Width: 325
GlyphClass: 2
Flags: W
LayerCount: 2
Fore
SplineSet
148 552 m 1,0,-1
 142 669 l 1,1,-1
 195 669 l 1,2,-1
 189 552 l 1,3,-1
 298 593 l 1,4,-1
 315 543 l 1,5,-1
 202 512 l 1,6,-1
 275 421 l 1,7,-1
 232 390 l 1,8,-1
 168 488 l 1,9,-1
 104 390 l 1,10,-1
 62 421 l 1,11,-1
 135 513 l 1,12,-1
 22 543 l 1,13,-1
 38 593 l 1,14,-1
 148 552 l 1,0,-1
EndSplineSet
EndChar

StartChar: plus
Encoding: 43 43 14
Width: 471
GlyphClass: 2
Flags: W
LayerCount: 2
Fore
SplineSet
205 509 m 1,0,-1
 264 509 l 1,1,-1
 264 343 l 1,2,-1
 426 343 l 1,3,-1
 426 284 l 1,4,-1
 264 284 l 1,5,-1
 264 124 l 1,6,-1
 205 124 l 1,7,-1
 205 284 l 1,8,-1
 45 284 l 1,9,-1
 45 343 l 1,10,-1
 205 343 l 1,11,-1
 205 509 l 1,0,-1
EndSplineSet
EndChar

StartChar: comma
Encoding: 44 44 15
Width: 174
GlyphClass: 2
Flags: W
LayerCount: 2
Fore
SplineSet
113 92 m 1,0,-1
 114 1 l 1,1,-1
 61 -126 l 1,2,-1
 12 -126 l 1,3,-1
 37 1 l 1,4,-1
 38 92 l 1,5,-1
 113 92 l 1,0,-1
EndSplineSet
EndChar

StartChar: hyphen
Encoding: 45 45 16
Width: 521
GlyphClass: 2
Flags: W
LayerCount: 2
Fore
SplineSet
70 284 m 1,0,-1
 70 343 l 1,1,-1
 451 343 l 1,2,-1
 451 284 l 1,3,-1
 70 284 l 1,0,-1
EndSplineSet
EndChar

StartChar: period
Encoding: 46 46 17
Width: 225
GlyphClass: 2
Flags: W
LayerCount: 2
Fore
SplineSet
155 90 m 1,0,-1
 155 0 l 1,1,-1
 70 0 l 1,2,-1
 70 90 l 1,3,-1
 155 90 l 1,0,-1
EndSplineSet
EndChar

StartChar: slash
Encoding: 47 47 18
Width: 451
GlyphClass: 2
Flags: W
LayerCount: 2
Fore
SplineSet
35 6 m 1,0,-1
 362 741 l 1,1,-1
 415 718 l 1,2,-1
 89 -17 l 1,3,-1
 35 6 l 1,0,-1
EndSplineSet
EndChar

StartChar: zero
Encoding: 48 48 19
Width: 547
GlyphClass: 2
Flags: W
LayerCount: 2
Fore
SplineSet
273 661 m 0,0,1
 328 661 328 661 367.5 643.5 c 128,-1,2
 407 626 407 626 429 599.5 c 128,-1,3
 451 573 451 573 463 527 c 0,4,5
 482 454 482 454 482 360 c 128,-1,6
 482 266 482 266 472.5 211 c 128,-1,7
 463 156 463 156 441.5 104 c 128,-1,8
 420 52 420 52 376.5 21.5 c 128,-1,9
 333 -9 333 -9 273 -9 c 0,10,11
 197 -9 197 -9 157 16 c 0,12,13
 136 30 136 30 120.5 45.5 c 128,-1,14
 105 61 105 61 95 86.5 c 128,-1,15
 85 112 85 112 78.5 135 c 128,-1,16
 72 158 72 158 69 193 c 0,17,18
 64 251 64 251 64 328 c 0,19,20
 64 661 64 661 273 661 c 0,0,1
411 329 m 1,21,-1
 412 403 l 1,22,23
 412 496 412 496 394 533 c 0,24,25
 360 599 360 599 254 599 c 0,26,27
 181 599 181 599 157 536 c 0,28,29
 135 478 135 478 135 397 c 2,30,-1
 135 328 l 1,31,-1
 135 246 l 2,32,33
 135 184 135 184 140.5 164 c 128,-1,34
 146 144 146 144 153 123.5 c 128,-1,35
 160 103 160 103 171.5 92.5 c 128,-1,36
 183 82 183 82 198 72 c 0,37,38
 227 52 227 52 287 52 c 0,39,40
 334 52 334 52 366 86 c 0,41,42
 388 109 388 109 402 171 c 0,43,44
 411 213 411 213 411 329 c 1,21,-1
EndSplineSet
EndChar

StartChar: one
Encoding: 49 49 20
Width: 385
GlyphClass: 2
Flags: W
LayerCount: 2
Fore
SplineSet
185 0 m 1,0,-1
 185 586 l 1,1,-1
 52 506 l 1,2,-1
 25 551 l 1,3,-1
 185 648 l 1,4,-1
 253 648 l 1,5,-1
 252 0 l 1,6,-1
 185 0 l 1,0,-1
EndSplineSet
EndChar

StartChar: two
Encoding: 50 50 21
Width: 471
GlyphClass: 2
Flags: W
LayerCount: 2
Fore
SplineSet
412 56 m 1,0,-1
 412 0 l 1,1,-1
 41 0 l 1,2,-1
 41 23 l 2,3,4
 41 174 41 174 192 295 c 0,5,6
 275 362 275 362 297 392.5 c 128,-1,7
 319 423 319 423 319 481.5 c 128,-1,8
 319 540 319 540 291.5 563 c 128,-1,9
 264 586 264 586 203 586 c 128,-1,10
 142 586 142 586 68 555 c 1,11,-1
 51 612 l 1,12,13
 136 648 136 648 215.5 648 c 128,-1,14
 295 648 295 648 342.5 602.5 c 128,-1,15
 390 557 390 557 390 484 c 0,16,17
 390 441 390 441 372 398 c 0,18,19
 366 383 366 383 345.5 359.5 c 128,-1,20
 325 336 325 336 313.5 325.5 c 128,-1,21
 302 315 302 315 279 293.5 c 128,-1,22
 256 272 256 272 230.5 249 c 128,-1,23
 205 226 205 226 198 219.5 c 128,-1,24
 191 213 191 213 173.5 195.5 c 128,-1,25
 156 178 156 178 151.5 170.5 c 128,-1,26
 147 163 147 163 136.5 147.5 c 128,-1,27
 126 132 126 132 123 120 c 0,28,29
 113 81 113 81 112 56 c 1,30,-1
 412 56 l 1,0,-1
EndSplineSet
EndChar

StartChar: three
Encoding: 51 51 22
Width: 469
GlyphClass: 2
Flags: W
LayerCount: 2
Fore
SplineSet
177 316 m 2,0,-1
 150 316 l 1,1,-1
 150 364 l 1,2,-1
 177 364 l 1,3,4
 184 365 184 365 199.5 366 c 128,-1,5
 215 367 215 367 221.5 367.5 c 128,-1,6
 228 368 228 368 239.5 369.5 c 128,-1,7
 251 371 251 371 256.5 373.5 c 128,-1,8
 262 376 262 376 270 380 c 0,9,10
 309 398 309 398 309 488 c 0,11,12
 309 553 309 553 277.5 579 c 128,-1,13
 246 605 246 605 192.5 605 c 128,-1,14
 139 605 139 605 77 580 c 1,15,-1
 58 629 l 1,16,17
 131 661 131 661 208.5 661 c 128,-1,18
 286 661 286 661 331 618 c 0,19,20
 377 574 377 574 377 487 c 0,21,22
 377 441 377 441 360.5 401 c 128,-1,23
 344 361 344 361 313 348 c 1,24,25
 404 313 404 313 404 183 c 0,26,27
 404 93 404 93 348 40 c 128,-1,28
 292 -13 292 -13 200.5 -13 c 128,-1,29
 109 -13 109 -13 34 33 c 1,30,-1
 60 84 l 1,31,32
 127 45 127 45 205.5 45 c 128,-1,33
 284 45 284 45 314 85 c 0,34,35
 335 113 335 113 335 172 c 128,-1,36
 335 231 335 231 314 269.5 c 128,-1,37
 293 308 293 308 255 312 c 128,-1,38
 217 316 217 316 177 316 c 2,0,-1
EndSplineSet
EndChar

StartChar: four
Encoding: 52 52 23
Width: 452
GlyphClass: 2
Flags: W
LayerCount: 2
Fore
SplineSet
354 384 m 1,0,-1
 354 237 l 1,1,-1
 422 237 l 1,2,-1
 422 181 l 1,3,-1
 354 181 l 1,4,-1
 354 0 l 1,5,-1
 286 0 l 1,6,-1
 286 181 l 1,7,-1
 44 181 l 1,8,-1
 44 252 l 2,9,10
 44 306 44 306 73 354 c 1,11,-1
 272 659 l 1,12,-1
 322 627 l 1,13,-1
 141 347 l 2,14,15
 120 315 120 315 116 301.5 c 128,-1,16
 112 288 112 288 112 257 c 2,17,-1
 112 237 l 1,18,-1
 286 238 l 1,19,-1
 286 384 l 1,20,-1
 354 384 l 1,0,-1
EndSplineSet
EndChar

StartChar: five
Encoding: 53 53 24
Width: 512
GlyphClass: 2
Flags: W
LayerCount: 2
Fore
SplineSet
396 53 m 128,-1,1
 345 -7 345 -7 252.5 -7 c 128,-1,2
 160 -7 160 -7 67 47 c 1,3,-1
 90 104 l 1,4,5
 174 55 174 55 247 55 c 128,-1,6
 320 55 320 55 348 87.5 c 128,-1,7
 376 120 376 120 376 203.5 c 128,-1,8
 376 287 376 287 345 316 c 128,-1,9
 314 345 314 345 249 345 c 2,10,-1
 105 345 l 1,11,-1
 105 648 l 1,12,-1
 410 648 l 1,13,-1
 410 591 l 1,14,-1
 173 591 l 1,15,-1
 170 409 l 1,16,-1
 261 409 l 2,17,18
 447 409 447 409 447 214 c 0,19,0
 447 113 447 113 396 53 c 128,-1,1
EndSplineSet
EndChar

StartChar: six
Encoding: 54 54 25
Width: 523
GlyphClass: 2
Flags: W
LayerCount: 2
Fore
SplineSet
297 380 m 0,0,1
 372 380 372 380 414 337.5 c 128,-1,2
 456 295 456 295 456 187 c 0,3,4
 456 85 456 85 374 25 c 0,5,6
 329 -8 329 -8 266 -8 c 0,7,8
 151 -8 151 -8 109.5 64 c 128,-1,9
 68 136 68 136 68 307 c 128,-1,10
 68 478 68 478 119 568.5 c 128,-1,11
 170 659 170 659 273 659 c 0,12,13
 354 659 354 659 440 607 c 1,14,-1
 408 557 l 1,15,16
 340 597 340 597 277 597 c 0,17,18
 196 597 196 597 168 540.5 c 128,-1,19
 140 484 140 484 139 335 c 1,20,21
 142 336 142 336 159 344.5 c 128,-1,22
 176 353 176 353 182.5 355.5 c 128,-1,23
 189 358 189 358 205.5 364 c 128,-1,24
 222 370 222 370 234 372 c 0,25,26
 268 380 268 380 297 380 c 0,0,1
216.5 311.5 m 128,-1,28
 192 303 192 303 166 291 c 128,-1,29
 140 279 140 279 139 279 c 1,30,31
 139 137 139 137 176 93 c 0,32,33
 210 52 210 52 282 52 c 0,34,35
 388 52 388 52 388 184 c 0,36,37
 388 266 388 266 362.5 293 c 128,-1,38
 337 320 337 320 289 320 c 128,-1,27
 241 320 241 320 216.5 311.5 c 128,-1,28
EndSplineSet
EndChar

StartChar: seven
Encoding: 55 55 26
Width: 440
GlyphClass: 2
Flags: W
LayerCount: 2
Fore
SplineSet
101 604 m 1,0,-1
 101 519 l 1,1,-1
 30 519 l 1,2,-1
 30 660 l 1,3,-1
 392 660 l 1,4,-1
 407 613 l 1,5,-1
 351 498 l 1,6,7
 268 330 268 330 231 231 c 128,-1,8
 194 132 194 132 173 -9 c 1,9,-1
 101 -9 l 1,10,11
 120 147 120 147 198 321 c 1,12,-1
 333 604 l 1,13,-1
 101 604 l 1,0,-1
EndSplineSet
EndChar

StartChar: eight
Encoding: 56 56 27
Width: 485
GlyphClass: 2
Flags: W
LayerCount: 2
Fore
SplineSet
100 36 m 128,-1,1
 46 81 46 81 46 169 c 0,2,3
 46 227 46 227 72.5 268.5 c 128,-1,4
 99 310 99 310 141 332 c 1,5,6
 66 383 66 383 66 483 c 0,7,8
 66 540 66 540 97.5 582 c 128,-1,9
 129 624 129 624 167.5 641.5 c 128,-1,10
 206 659 206 659 241 659 c 0,11,12
 418 659 418 659 418 481 c 0,13,14
 418 432 418 432 396.5 393 c 128,-1,15
 375 354 375 354 342 330 c 1,16,17
 438 281 438 281 438 169 c 0,18,19
 438 110 438 110 403 68 c 0,20,21
 340 -9 340 -9 247 -9 c 128,-1,0
 154 -9 154 -9 100 36 c 128,-1,1
144 83 m 128,-1,23
 175 46 175 46 242.5 46 c 128,-1,24
 310 46 310 46 340 77 c 128,-1,25
 370 108 370 108 370 168 c 0,26,27
 370 240 370 240 324 266 c 0,28,29
 291 285 291 285 248.5 293 c 128,-1,30
 206 301 206 301 193 306 c 1,31,32
 190 305 190 305 184.5 303.5 c 128,-1,33
 179 302 179 302 165 292.5 c 128,-1,34
 151 283 151 283 140.5 269.5 c 128,-1,35
 130 256 130 256 121.5 229 c 128,-1,36
 113 202 113 202 113 161 c 128,-1,22
 113 120 113 120 144 83 c 128,-1,23
155.5 573.5 m 128,-1,38
 134 543 134 543 134 482 c 0,39,40
 134 363 134 363 289 349 c 0,41,42
 291 349 291 349 300 354 c 128,-1,43
 309 359 309 359 315.5 364.5 c 128,-1,44
 322 370 322 370 328 379.5 c 128,-1,45
 334 389 334 389 340 402 c 0,46,47
 351 431 351 431 351 468.5 c 128,-1,48
 351 506 351 506 347.5 524 c 128,-1,49
 344 542 344 542 334 562 c 0,50,51
 313 604 313 604 245 604 c 128,-1,37
 177 604 177 604 155.5 573.5 c 128,-1,38
EndSplineSet
EndChar

StartChar: nine
Encoding: 57 57 28
Width: 529
GlyphClass: 2
Flags: W
LayerCount: 2
Fore
SplineSet
385 303 m 1,0,1
 284 273 284 273 215 273 c 128,-1,2
 146 273 146 273 104.5 316.5 c 128,-1,3
 63 360 63 360 63 466 c 0,4,5
 63 535 63 535 114.5 597 c 128,-1,6
 166 659 166 659 258 659 c 0,7,8
 358 659 358 659 404 608 c 0,9,10
 444 565 444 565 452 450 c 0,11,12
 456 403 456 403 456 329 c 0,13,14
 456 160 456 160 401.5 76 c 128,-1,15
 347 -8 347 -8 251 -8 c 0,16,17
 203 -8 203 -8 165.5 5 c 128,-1,18
 128 18 128 18 70 52 c 1,19,-1
 92 106 l 1,20,21
 186 51 186 51 255.5 51 c 128,-1,22
 325 51 325 51 354 106 c 128,-1,23
 383 161 383 161 385 303 c 1,0,1
152 358.5 m 128,-1,25
 177 333 177 333 230 333 c 128,-1,26
 283 333 283 333 385 359 c 1,27,28
 387 387 387 387 387 410.5 c 128,-1,29
 387 434 387 434 385 465.5 c 128,-1,30
 383 497 383 497 373 530 c 0,31,32
 352 599 352 599 242 599 c 0,33,34
 127 599 127 599 127 466 c 0,35,24
 127 384 127 384 152 358.5 c 128,-1,25
EndSplineSet
EndChar

StartChar: colon
Encoding: 58 58 29
Width: 221
GlyphClass: 2
Flags: W
LayerCount: 2
Fore
SplineSet
153 93 m 1,0,-1
 153 2 l 1,1,-1
 68 2 l 1,2,-1
 69 93 l 1,3,-1
 153 93 l 1,0,-1
153 408 m 1,4,-1
 153 317 l 1,5,-1
 68 317 l 1,6,-1
 69 408 l 1,7,-1
 153 408 l 1,4,-1
EndSplineSet
EndChar

StartChar: semicolon
Encoding: 59 59 30
Width: 198
GlyphClass: 2
Flags: W
LayerCount: 2
Fore
SplineSet
137 93 m 1,0,-1
 138 2 l 1,1,-1
 85 -125 l 1,2,-1
 36 -125 l 1,3,-1
 61 2 l 1,4,-1
 62 93 l 1,5,-1
 137 93 l 1,0,-1
133 408 m 1,6,-1
 133 317 l 1,7,-1
 48 317 l 1,8,-1
 49 408 l 1,9,-1
 133 408 l 1,6,-1
EndSplineSet
EndChar

StartChar: less
Encoding: 60 60 31
Width: 427
GlyphClass: 2
Flags: W
LayerCount: 2
Fore
SplineSet
134 292 m 2,0,1
 132 291 132 291 126.5 288.5 c 128,-1,2
 121 286 121 286 121 280.5 c 128,-1,3
 121 275 121 275 127 273 c 1,4,5
 136 268 136 268 378 144 c 1,6,-1
 378 81 l 1,7,-1
 49 250 l 1,8,-1
 49 310 l 1,9,-1
 378 478 l 1,10,-1
 378 415 l 1,11,-1
 134 292 l 2,0,1
EndSplineSet
EndChar

StartChar: equal
Encoding: 61 61 32
Width: 399
GlyphClass: 2
Flags: W
LayerCount: 2
Fore
SplineSet
19 184 m 1,0,-1
 19 243 l 1,1,-1
 350 243 l 1,2,-1
 350 184 l 1,3,-1
 19 184 l 1,0,-1
19 384 m 1,4,-1
 19 443 l 1,5,-1
 350 443 l 1,6,-1
 350 384 l 1,7,-1
 19 384 l 1,4,-1
EndSplineSet
EndChar

StartChar: greater
Encoding: 62 62 33
Width: 427
GlyphClass: 2
Flags: W
LayerCount: 2
Fore
SplineSet
306 283 m 2,0,1
 306 284 306 284 304 286 c 256,2,3
 302 288 302 288 298.5 289.5 c 128,-1,4
 295 291 295 291 293 292 c 2,5,-1
 49 415 l 1,6,-1
 49 478 l 1,7,-1
 378 310 l 1,8,-1
 378 250 l 1,9,-1
 49 81 l 1,10,-1
 49 144 l 1,11,12
 242 243 242 243 293 269 c 1,13,14
 305 277 305 277 306 280 c 1,15,-1
 306 283 l 2,0,1
EndSplineSet
EndChar

StartChar: question
Encoding: 63 63 34
Width: 425
GlyphClass: 2
Flags: W
LayerCount: 2
Fore
SplineSet
72 655 m 1,0,1
 140 662 140 662 185.5 662 c 128,-1,2
 231 662 231 662 253 657.5 c 128,-1,3
 275 653 275 653 300 644.5 c 128,-1,4
 325 636 325 636 340.5 621 c 128,-1,5
 356 606 356 606 370 584 c 0,6,7
 395 544 395 544 395 462 c 0,8,9
 395 390 395 390 362 354 c 0,10,11
 345 334 345 334 333.5 325 c 128,-1,12
 322 316 322 316 305 305.5 c 128,-1,13
 288 295 288 295 273 286 c 128,-1,14
 258 277 258 277 253 273.5 c 128,-1,15
 248 270 248 270 238.5 263 c 128,-1,16
 229 256 229 256 225.5 250.5 c 128,-1,17
 222 245 222 245 218 236 c 1,18,19
 211 224 211 224 211 193 c 2,20,-1
 209 129 l 1,21,-1
 153 129 l 1,22,23
 151 161 151 161 151 205.5 c 128,-1,24
 151 250 151 250 169.5 277 c 128,-1,25
 188 304 188 304 214 320 c 128,-1,26
 240 336 240 336 266 352 c 0,27,28
 329 391 329 391 329 460 c 0,29,30
 329 522 329 522 308 551 c 0,31,32
 297 566 297 566 285.5 577.5 c 128,-1,33
 274 589 274 589 256 594 c 0,34,35
 213 607 213 607 170.5 607 c 128,-1,36
 128 607 128 607 86 601 c 1,37,38
 77 645 77 645 72 655 c 1,0,1
216 -19 m 1,39,-1
 144 -19 l 1,40,-1
 144 55 l 1,41,-1
 216 55 l 1,42,-1
 216 -19 l 1,39,-1
EndSplineSet
EndChar

StartChar: at
Encoding: 64 64 35
Width: 730
GlyphClass: 2
Flags: W
LayerCount: 2
Fore
SplineSet
465 250 m 1,0,-1
 454 251 l 1,1,2
 401 254 401 254 354 254 c 128,-1,3
 307 254 307 254 288 239.5 c 128,-1,4
 269 225 269 225 269 185.5 c 128,-1,5
 269 146 269 146 282 132.5 c 128,-1,6
 295 119 295 119 328 119 c 128,-1,7
 361 119 361 119 406.5 133.5 c 128,-1,8
 452 148 452 148 465 166 c 1,9,-1
 465 250 l 1,0,-1
465 298 m 1,10,-1
 466 353 l 2,11,12
 466 405 466 405 443 425.5 c 128,-1,13
 420 446 420 446 363.5 446 c 128,-1,14
 307 446 307 446 232.5 420 c 128,-1,15
 158 394 158 394 127 344.5 c 128,-1,16
 96 295 96 295 96 207 c 128,-1,17
 96 119 96 119 105.5 77 c 128,-1,18
 115 35 115 35 150.5 3.5 c 128,-1,19
 186 -28 186 -28 230.5 -41.5 c 128,-1,20
 275 -55 275 -55 341 -55 c 128,-1,21
 407 -55 407 -55 448 -51.5 c 128,-1,22
 489 -48 489 -48 525.5 -36 c 128,-1,23
 562 -24 562 -24 583 -4 c 128,-1,24
 604 16 604 16 620 50 c 1,25,26
 647 112 647 112 647 249 c 1,27,-1
 703 246 l 1,28,29
 703 78 703 78 651 -4 c 0,30,31
 606 -76 606 -76 486 -97 c 0,32,33
 435 -106 435 -106 359 -108 c 1,34,35
 34 -108 34 -108 34 156 c 0,36,37
 34 311 34 311 79 373 c 128,-1,38
 124 435 124 435 220 467.5 c 128,-1,39
 316 500 316 500 388.5 500 c 128,-1,40
 461 500 461 500 501 455 c 0,41,42
 523 431 523 431 524 378 c 0,43,44
 525 362 525 362 525 321 c 2,45,-1
 525 298 l 2,46,47
 525 203 525 203 526 178 c 1,48,49
 529 159 529 159 536 121.5 c 128,-1,50
 543 84 543 84 546 65 c 1,51,-1
 505 65 l 1,52,-1
 498 72 l 1,53,-1
 481 123 l 1,54,55
 394 66 394 66 324 64 c 1,56,57
 270 64 270 64 240 93.5 c 128,-1,58
 210 123 210 123 210 176 c 0,59,60
 210 250 210 250 251 276.5 c 128,-1,61
 292 303 292 303 365 303 c 0,62,63
 393 303 393 303 447 299 c 2,64,-1
 465 298 l 1,10,-1
EndSplineSet
EndChar

StartChar: A
Encoding: 65 65 36
Width: 538
GlyphClass: 2
Flags: W
LayerCount: 2
Fore
SplineSet
224 648 m 1,0,-1
 314 648 l 1,1,-1
 533 0 l 1,2,-1
 462 0 l 1,3,-1
 395 201 l 1,4,-1
 143 201 l 1,5,-1
 76 0 l 1,6,-1
 5 0 l 1,7,-1
 224 648 l 1,0,-1
161 257 m 1,8,-1
 378 257 l 1,9,-1
 272 593 l 1,10,-1
 269 593 l 1,11,-1
 161 257 l 1,8,-1
EndSplineSet
EndChar

StartChar: B
Encoding: 66 66 37
Width: 584
GlyphClass: 2
Flags: W
LayerCount: 2
Fore
SplineSet
276 -1 m 1,0,-1
 173 0 l 1,1,-1
 107 0 l 1,2,-1
 107 648 l 1,3,-1
 264 648 l 2,4,5
 306 648 306 648 333.5 645.5 c 128,-1,6
 361 643 361 643 390.5 632.5 c 128,-1,7
 420 622 420 622 437 603 c 0,8,9
 476 559 476 559 476 463.5 c 128,-1,10
 476 368 476 368 423 333 c 1,11,12
 443 325 443 325 454 317.5 c 128,-1,13
 465 310 465 310 480 294 c 1,14,15
 507 262 507 262 507 167.5 c 128,-1,16
 507 73 507 73 452.5 36 c 128,-1,17
 398 -1 398 -1 276 -1 c 1,0,-1
173 60 m 1,18,-1
 311 59 l 2,19,20
 382 59 382 59 410 79 c 128,-1,21
 438 99 438 99 438 175 c 0,22,23
 438 302 438 302 338 302 c 2,24,-1
 173 302 l 1,25,-1
 173 60 l 1,18,-1
253 587 m 2,26,-1
 173 587 l 1,27,-1
 173 358 l 1,28,-1
 359 358 l 2,29,30
 408 358 408 358 408 466 c 0,31,32
 408 527 408 527 397 545 c 128,-1,33
 386 563 386 563 376.5 570 c 128,-1,34
 367 577 367 577 346 581 c 0,35,36
 316 587 316 587 253 587 c 2,26,-1
EndSplineSet
EndChar

StartChar: C
Encoding: 67 67 38
Width: 583
GlyphClass: 2
Flags: W
LayerCount: 2
Fore
SplineSet
284 653.5 m 128,-1,1
 320 660 320 660 377 660 c 128,-1,2
 434 660 434 660 517 633 c 1,3,-1
 501 580 l 1,4,5
 411 598 411 598 367.5 598 c 128,-1,6
 324 598 324 598 293 593.5 c 128,-1,7
 262 589 262 589 229.5 573 c 128,-1,8
 197 557 197 557 178 528 c 0,9,10
 135 462 135 462 135 326 c 0,11,12
 135 159 135 159 195 102 c 0,13,14
 224 75 224 75 255 64.5 c 128,-1,15
 286 54 286 54 323.5 54 c 128,-1,16
 361 54 361 54 380 56 c 0,17,18
 437 60 437 60 494 94 c 1,19,-1
 517 40 l 1,20,21
 445 -9 445 -9 329 -9 c 0,22,23
 284 -9 284 -9 251 -3.5 c 128,-1,24
 218 2 218 2 181 21.5 c 128,-1,25
 144 41 144 41 120.5 76 c 128,-1,26
 97 111 97 111 81 174 c 128,-1,27
 65 237 65 237 65 322.5 c 128,-1,28
 65 408 65 408 85 471 c 128,-1,29
 105 534 105 534 134.5 569 c 128,-1,30
 164 604 164 604 206 625.5 c 128,-1,0
 248 647 248 647 284 653.5 c 128,-1,1
EndSplineSet
EndChar

StartChar: D
Encoding: 68 68 39
Width: 640
GlyphClass: 2
Flags: W
LayerCount: 2
Fore
SplineSet
107 648 m 1,0,-1
 278 648 l 2,1,2
 339 648 339 648 380 642 c 128,-1,3
 421 636 421 636 461 616.5 c 128,-1,4
 501 597 501 597 524 563 c 0,5,6
 575 488 575 488 575 329 c 0,7,8
 575 231 575 231 549 155 c 0,9,10
 531 103 531 103 480 57 c 0,11,12
 452 31 452 31 388 12 c 0,13,14
 352 2 352 2 311.5 1 c 128,-1,15
 271 0 271 0 240 0 c 2,16,-1
 107 0 l 1,17,-1
 107 648 l 1,0,-1
173 58 m 1,18,-1
 240 58 l 2,19,20
 245 58 245 58 266 58 c 128,-1,21
 287 58 287 58 303.5 58.5 c 128,-1,22
 320 59 320 59 347 61 c 128,-1,23
 374 63 374 63 386.5 68 c 128,-1,24
 399 73 399 73 419 82 c 128,-1,25
 439 91 439 91 448 104.5 c 128,-1,26
 457 118 457 118 469.5 138 c 128,-1,27
 482 158 482 158 488 185 c 0,28,29
 502 258 502 258 503 336 c 128,-1,30
 504 414 504 414 493.5 464.5 c 128,-1,31
 483 515 483 515 454 542.5 c 128,-1,32
 425 570 425 570 386 578.5 c 128,-1,33
 347 587 347 587 279 587 c 2,34,-1
 173 587 l 1,35,-1
 173 58 l 1,18,-1
EndSplineSet
EndChar

StartChar: E
Encoding: 69 69 40
Width: 530
GlyphClass: 2
Flags: W
LayerCount: 2
Fore
SplineSet
476 0 m 1,0,-1
 108 0 l 1,1,-1
 108 648 l 1,2,-1
 465 648 l 1,3,-1
 458 592 l 1,4,-1
 175 592 l 1,5,-1
 175 363 l 1,6,-1
 425 363 l 1,7,-1
 425 307 l 1,8,-1
 174 307 l 1,9,-1
 174 56 l 1,10,-1
 476 56 l 1,11,-1
 476 0 l 1,0,-1
EndSplineSet
EndChar

StartChar: F
Encoding: 70 70 41
Width: 489
GlyphClass: 2
Flags: W
LayerCount: 2
Fore
SplineSet
177 592 m 1,0,-1
 177 360 l 1,1,-1
 401 360 l 1,2,-1
 401 304 l 1,3,-1
 176 304 l 1,4,-1
 176 0 l 1,5,-1
 110 0 l 1,6,-1
 110 648 l 1,7,-1
 435 648 l 1,8,-1
 428 592 l 1,9,-1
 177 592 l 1,0,-1
EndSplineSet
EndChar

StartChar: G
Encoding: 71 71 42
Width: 622
GlyphClass: 2
Flags: W
LayerCount: 2
Fore
SplineSet
364 332 m 1,0,-1
 537 332 l 1,1,-1
 536 51 l 1,2,3
 452 -9 452 -9 348 -9 c 0,4,5
 294 -9 294 -9 255 -2.5 c 128,-1,6
 216 4 216 4 178 24.5 c 128,-1,7
 140 45 140 45 116 81 c 0,8,9
 65 160 65 160 65 324 c 0,10,11
 65 660 65 660 362 660 c 0,12,13
 401 660 401 660 454.5 650.5 c 128,-1,14
 508 641 508 641 540 628 c 1,15,-1
 522 576 l 1,16,17
 451 598 451 598 362 598 c 0,18,19
 233 598 233 598 184 537 c 128,-1,20
 135 476 135 476 135 325 c 0,21,22
 135 152 135 152 199 98 c 0,23,24
 231 71 231 71 264.5 62 c 128,-1,25
 298 53 298 53 347 53 c 0,26,27
 428 53 428 53 474 84 c 1,28,-1
 474 284 l 1,29,-1
 364 284 l 1,30,-1
 364 332 l 1,0,-1
EndSplineSet
EndChar

StartChar: H
Encoding: 72 72 43
Width: 654
GlyphClass: 2
Flags: W
LayerCount: 2
Fore
SplineSet
481 648 m 1,0,-1
 547 648 l 1,1,-1
 547 0 l 1,2,-1
 481 0 l 1,3,-1
 481 308 l 1,4,-1
 171 308 l 1,5,-1
 171 0 l 1,6,-1
 105 0 l 1,7,-1
 105 648 l 1,8,-1
 171 648 l 1,9,-1
 171 364 l 1,10,-1
 481 364 l 1,11,-1
 481 648 l 1,0,-1
EndSplineSet
EndChar

StartChar: I
Encoding: 73 73 44
Width: 282
GlyphClass: 2
Flags: W
LayerCount: 2
Fore
SplineSet
108 648 m 1,0,-1
 174 648 l 1,1,-1
 174 0 l 1,2,-1
 108 0 l 1,3,-1
 108 648 l 1,0,-1
EndSplineSet
EndChar

StartChar: J
Encoding: 74 74 45
Width: 279
GlyphClass: 2
Flags: W
LayerCount: 2
Fore
SplineSet
104 648 m 1,0,-1
 170 648 l 1,1,-1
 170 78 l 1,2,3
 169 -24 169 -24 118 -79 c 128,-1,4
 67 -134 67 -134 -19 -136 c 1,5,-1
 -32 -98 l 1,6,7
 101 -71 101 -71 104 78 c 1,8,-1
 104 648 l 1,0,-1
EndSplineSet
EndChar

StartChar: K
Encoding: 75 75 46
Width: 585
GlyphClass: 2
Flags: W
LayerCount: 2
Fore
SplineSet
172 0 m 1,0,-1
 106 0 l 1,1,-1
 106 648 l 1,2,-1
 173 648 l 1,3,-1
 173 316 l 1,4,-1
 244 399 l 2,5,6
 314 482 314 482 385 565 c 2,7,-1
 456 648 l 1,8,-1
 529 648 l 1,9,-1
 269 341 l 1,10,-1
 568 0 l 1,11,-1
 485 0 l 1,12,-1
 229 294 l 1,13,-1
 172 227 l 1,14,-1
 172 0 l 1,0,-1
EndSplineSet
EndChar

StartChar: L
Encoding: 76 76 47
Width: 473
GlyphClass: 2
Flags: W
LayerCount: 2
Fore
SplineSet
111 1 m 1,0,-1
 110 1 l 1,1,-1
 110 648 l 1,2,-1
 176 648 l 1,3,-1
 175 56 l 1,4,-1
 463 56 l 1,5,-1
 463 0 l 1,6,-1
 111 0 l 1,7,-1
 111 1 l 1,0,-1
EndSplineSet
EndChar

StartChar: M
Encoding: 77 77 48
Width: 833
GlyphClass: 2
Flags: W
LayerCount: 2
Fore
SplineSet
217 648 m 1,0,-1
 417 245 l 1,1,-1
 616 648 l 1,2,-1
 696 648 l 1,3,-1
 716 0 l 1,4,-1
 649 0 l 1,5,-1
 643 488 l 1,6,-1
 642 560 l 1,7,-1
 449 180 l 1,8,-1
 384 180 l 1,9,-1
 191 560 l 1,10,-1
 184 0 l 1,11,-1
 117 0 l 1,12,-1
 139 648 l 1,13,-1
 217 648 l 1,0,-1
EndSplineSet
EndChar

StartChar: N
Encoding: 78 78 49
Width: 699
GlyphClass: 2
Flags: W
LayerCount: 2
Fore
SplineSet
522 648 m 1,0,-1
 588 648 l 1,1,-1
 588 0 l 1,2,-1
 515 0 l 1,3,-1
 173 547 l 1,4,-1
 177 453 l 1,5,-1
 177 0 l 1,6,-1
 111 0 l 1,7,-1
 111 648 l 1,8,-1
 183 648 l 1,9,-1
 525 103 l 1,10,-1
 522 199 l 1,11,-1
 522 648 l 1,0,-1
EndSplineSet
EndChar

StartChar: O
Encoding: 79 79 50
Width: 658
GlyphClass: 2
Flags: W
LayerCount: 2
Fore
SplineSet
329 661 m 0,0,1
 480 661 480 661 538.5 591 c 128,-1,2
 597 521 597 521 597 329 c 0,3,4
 597 232 597 232 574 163 c 128,-1,5
 551 94 551 94 510 58 c 0,6,7
 435 -9 435 -9 329 -9 c 0,8,9
 184 -9 184 -9 134 44 c 0,10,11
 83 99 83 99 68 196 c 0,12,13
 60 252 60 252 60 335.5 c 128,-1,14
 60 419 60 419 85 487 c 128,-1,15
 110 555 110 555 151 591 c 0,16,17
 231 661 231 661 329 661 c 0,0,1
310 599 m 0,18,19
 219 599 219 599 174.5 535.5 c 128,-1,20
 130 472 130 472 130 328 c 0,21,22
 130 192 130 192 164 126 c 0,23,24
 192 71 192 71 266 58 c 0,25,26
 296 52 296 52 343 52 c 0,27,28
 437 52 437 52 482 117 c 128,-1,29
 527 182 527 182 527 329 c 0,30,31
 527 443 527 443 505 502 c 0,32,33
 492 537 492 537 468 557 c 0,34,35
 418 599 418 599 310 599 c 0,18,19
EndSplineSet
EndChar

StartChar: P
Encoding: 80 80 51
Width: 590
GlyphClass: 2
Flags: W
LayerCount: 2
Fore
SplineSet
279 253 m 2,0,-1
 219 254 l 1,1,-1
 173 254 l 1,2,-1
 173 0 l 1,3,-1
 106 0 l 1,4,-1
 106 648 l 1,5,-1
 296 648 l 2,6,7
 349 648 349 648 385.5 641.5 c 128,-1,8
 422 635 422 635 456 616 c 0,9,10
 524 576 524 576 524 453 c 0,11,12
 524 350 524 350 475 302 c 0,13,14
 454 282 454 282 419 270.5 c 128,-1,15
 384 259 384 259 354 256 c 128,-1,16
 324 253 324 253 279 253 c 2,0,-1
239 311 m 1,17,-1
 315 310 l 1,18,19
 396 310 396 310 425 335.5 c 128,-1,20
 454 361 454 361 454 449 c 128,-1,21
 454 537 454 537 417.5 562 c 128,-1,22
 381 587 381 587 284 587 c 2,23,-1
 173 587 l 1,24,-1
 173 311 l 1,25,-1
 239 311 l 1,17,-1
EndSplineSet
EndChar

StartChar: Q
Encoding: 81 81 52
Width: 668
GlyphClass: 2
Flags: W
LayerCount: 2
Fore
SplineSet
327 661 m 0,0,1
 478 661 478 661 537.5 590.5 c 128,-1,2
 597 520 597 520 597 329 c 0,3,4
 597 125 597 125 493 44 c 0,5,6
 436 -1 436 -1 357 -7 c 1,7,-1
 357 -34 l 2,8,9
 357 -37 357 -37 357 -40 c 0,10,11
 357 -94 357 -94 373.5 -109.5 c 128,-1,12
 390 -125 390 -125 465 -144 c 0,13,14
 483 -149 483 -149 494 -152 c 1,15,16
 494 -184 494 -184 497 -197 c 1,17,18
 383 -181 383 -181 336.5 -147.5 c 128,-1,19
 290 -114 290 -114 289 -33 c 1,20,-1
 289 -7 l 1,21,22
 244 -5 244 -5 212 3 c 128,-1,23
 180 11 180 11 149.5 32 c 128,-1,24
 119 53 119 53 101 89 c 0,25,26
 61 169 61 169 61 328 c 0,27,28
 61 419 61 419 85.5 487 c 128,-1,29
 110 555 110 555 150 591 c 0,30,31
 229 661 229 661 327 661 c 0,0,1
308 599 m 0,32,33
 218 599 218 599 175 536 c 128,-1,34
 132 473 132 473 132 328 c 0,35,36
 132 192 132 192 164 126 c 0,37,38
 192 70 192 70 264 58 c 0,39,40
 294 52 294 52 341 52 c 0,41,42
 435 52 435 52 480.5 117.5 c 128,-1,43
 526 183 526 183 526 329 c 0,44,45
 526 403 526 403 518 449 c 128,-1,46
 510 495 510 495 487.5 531.5 c 128,-1,47
 465 568 465 568 421.5 583.5 c 128,-1,48
 378 599 378 599 308 599 c 0,32,33
EndSplineSet
EndChar

StartChar: R
Encoding: 82 82 53
Width: 592
GlyphClass: 2
Flags: W
LayerCount: 2
Fore
SplineSet
279 253 m 1,0,-1
 219 254 l 1,1,-1
 173 254 l 1,2,-1
 173 0 l 1,3,-1
 106 0 l 1,4,-1
 106 648 l 1,5,-1
 296 648 l 2,6,7
 349 648 349 648 385.5 641.5 c 128,-1,8
 422 635 422 635 456 616 c 0,9,10
 524 576 524 576 524 453 c 0,11,12
 524 361 524 361 487.5 317 c 128,-1,13
 451 273 451 273 384 260 c 1,14,-1
 552 18 l 1,15,-1
 500 -17 l 1,16,-1
 310 253 l 1,17,-1
 279 253 l 1,0,-1
239 311 m 1,18,-1
 315 310 l 1,19,20
 396 310 396 310 425 335.5 c 128,-1,21
 454 361 454 361 454 449 c 128,-1,22
 454 537 454 537 417.5 562 c 128,-1,23
 381 587 381 587 284 587 c 2,24,-1
 173 587 l 1,25,-1
 173 311 l 1,26,-1
 239 311 l 1,18,-1
EndSplineSet
EndChar

StartChar: S
Encoding: 83 83 54
Width: 538
GlyphClass: 2
Flags: W
LayerCount: 2
Fore
SplineSet
63 75 m 1,0,1
 140 46 140 46 229 46 c 128,-1,2
 318 46 318 46 355 72.5 c 128,-1,3
 392 99 392 99 392 171 c 0,4,5
 392 209 392 209 368 234 c 1,6,7
 345 256 345 256 326 266 c 2,8,-1
 290 284 l 2,9,10
 273 292 273 292 248.5 303 c 128,-1,11
 224 314 224 314 206 322.5 c 128,-1,12
 188 331 188 331 157 347.5 c 128,-1,13
 126 364 126 364 113 375.5 c 128,-1,14
 100 387 100 387 84 404 c 0,15,16
 56 435 56 435 56 484 c 0,17,18
 56 567 56 567 113 613.5 c 128,-1,19
 170 660 170 660 260 660 c 128,-1,20
 350 660 350 660 427 635 c 1,21,-1
 414 585 l 1,22,23
 352 605 352 605 271.5 605 c 128,-1,24
 191 605 191 605 158 579.5 c 128,-1,25
 125 554 125 554 125 492 c 0,26,27
 125 446 125 446 172 416 c 0,28,29
 210 392 210 392 289 357.5 c 128,-1,30
 368 323 368 323 396 304 c 0,31,32
 467 256 467 256 468 174 c 1,33,34
 468 -9 468 -9 231 -9 c 0,35,36
 132 -9 132 -9 46 20 c 1,37,-1
 63 75 l 1,0,1
EndSplineSet
EndChar

StartChar: T
Encoding: 84 84 55
Width: 418
GlyphClass: 2
Flags: W
LayerCount: 2
Fore
SplineSet
-5 592 m 1,0,-1
 -5 648 l 1,1,-1
 424 648 l 1,2,-1
 424 592 l 1,3,-1
 242 592 l 1,4,-1
 242 0 l 1,5,-1
 176 0 l 1,6,-1
 176 592 l 1,7,-1
 -5 592 l 1,0,-1
EndSplineSet
EndChar

StartChar: U
Encoding: 85 85 56
Width: 631
GlyphClass: 2
Flags: W
LayerCount: 2
Fore
SplineSet
319 -10 m 0,0,1
 317 -10 317 -10 305 -10 c 128,-1,2
 293 -10 293 -10 281 -9.5 c 128,-1,3
 269 -9 269 -9 244 -5.5 c 128,-1,4
 219 -2 219 -2 202 5.5 c 128,-1,5
 185 13 185 13 163.5 29 c 128,-1,6
 142 45 142 45 128 67 c 0,7,8
 96 120 96 120 96 204 c 2,9,-1
 96 648 l 1,10,-1
 163 648 l 1,11,-1
 163 204 l 1,12,13
 166 47 166 47 319 47 c 0,14,15
 384 47 384 47 427 85 c 128,-1,16
 470 123 470 123 470 200 c 2,17,-1
 470 648 l 1,18,-1
 535 648 l 1,19,-1
 534 202 l 2,20,21
 534 -10 534 -10 319 -10 c 0,0,1
EndSplineSet
EndChar

StartChar: V
Encoding: 86 86 57
Width: 566
GlyphClass: 2
Flags: W
LayerCount: 2
Fore
SplineSet
242 0 m 1,0,-1
 29 648 l 1,1,-1
 104 648 l 1,2,-1
 283 81 l 1,3,-1
 465 648 l 1,4,-1
 537 648 l 1,5,-1
 325 0 l 1,6,-1
 242 0 l 1,0,-1
EndSplineSet
EndChar

StartChar: W
Encoding: 87 87 58
Width: 800
GlyphClass: 2
Flags: W
LayerCount: 2
Fore
SplineSet
364 493 m 1,0,-1
 434 493 l 1,1,-1
 619 71 l 1,2,-1
 624 160 l 1,3,-1
 666 648 l 1,4,-1
 735 648 l 1,5,-1
 665 0 l 1,6,-1
 584 0 l 1,7,-1
 400 417 l 1,8,-1
 220 0 l 1,9,-1
 134 0 l 1,10,-1
 65 648 l 1,11,-1
 134 648 l 1,12,-1
 178 161 l 1,13,-1
 183 70 l 1,14,-1
 364 493 l 1,0,-1
EndSplineSet
EndChar

StartChar: X
Encoding: 88 88 59
Width: 833
GlyphClass: 2
Flags: W
LayerCount: 2
Fore
SplineSet
105 648 m 1,0,-1
 180 648 l 1,1,-1
 350 381 l 1,2,-1
 519 648 l 1,3,-1
 595 648 l 1,4,-1
 395 338 l 1,5,-1
 614 0 l 1,6,-1
 542 0 l 1,7,-1
 350 296 l 1,8,-1
 158 0 l 1,9,-1
 86 0 l 1,10,-1
 305 338 l 1,11,-1
 105 648 l 1,0,-1
EndSplineSet
EndChar

StartChar: Y
Encoding: 89 89 60
Width: 482
GlyphClass: 2
Flags: W
LayerCount: 2
Fore
SplineSet
208 0 m 1,0,-1
 208 265 l 1,1,-1
 2 648 l 1,2,-1
 76 648 l 1,3,-1
 241 324 l 1,4,-1
 409 648 l 1,5,-1
 480 648 l 1,6,-1
 275 265 l 1,7,-1
 274 0 l 1,8,-1
 208 0 l 1,0,-1
EndSplineSet
EndChar

StartChar: Z
Encoding: 90 90 61
Width: 833
GlyphClass: 2
Flags: W
LayerCount: 2
Fore
SplineSet
53 592 m 1,0,-1
 53 648 l 1,1,-1
 482 648 l 1,2,-1
 482 592 l 1,3,-1
 124 56 l 1,4,-1
 482 58 l 1,5,-1
 463 0 l 1,6,-1
 53 0 l 1,7,-1
 53 56 l 1,8,-1
 409 592 l 1,9,-1
 53 592 l 1,0,-1
EndSplineSet
EndChar

StartChar: bracketleft
Encoding: 91 91 62
Width: 332
GlyphClass: 2
Flags: W
LayerCount: 2
Fore
SplineSet
97 541 m 2,0,-1
 98 594 l 2,1,2
 98 604 98 604 101 612.5 c 128,-1,3
 104 621 104 621 104.5 627.5 c 128,-1,4
 105 634 105 634 111 641.5 c 128,-1,5
 117 649 117 649 118.5 652.5 c 128,-1,6
 120 656 120 656 129.5 664.5 c 128,-1,7
 139 673 139 673 142.5 676 c 128,-1,8
 146 679 146 679 160 690.5 c 128,-1,9
 174 702 174 702 180 707 c 1,10,-1
 206 684 l 1,11,12
 179 650 179 650 165 619 c 1,13,-1
 162 543 l 1,14,15
 164 407 164 407 164 271 c 128,-1,16
 164 135 164 135 162 -1 c 1,17,-1
 165 -77 l 1,18,19
 179 -106 179 -106 206 -143 c 1,20,-1
 180 -166 l 1,21,22
 173 -160 173 -160 159.5 -149 c 128,-1,23
 146 -138 146 -138 142.5 -134.5 c 128,-1,24
 139 -131 139 -131 129.5 -122.5 c 128,-1,25
 120 -114 120 -114 118.5 -110.5 c 128,-1,26
 117 -107 117 -107 111 -99.5 c 128,-1,27
 105 -92 105 -92 104.5 -86 c 128,-1,28
 104 -80 104 -80 101 -71 c 128,-1,29
 98 -62 98 -62 98 -52 c 2,30,-1
 97 0 l 1,31,-1
 96 409 l 2,32,33
 96 523 96 523 97 541 c 2,0,-1
EndSplineSet
EndChar

StartChar: backslash
Encoding: 92 92 63
Width: 833
GlyphClass: 2
Flags: W
LayerCount: 2
Fore
SplineSet
104 751 m 1,0,-1
 381 -31 l 1,1,-1
 326 -50 l 1,2,-1
 50 732 l 1,3,-1
 104 751 l 1,0,-1
EndSplineSet
EndChar

StartChar: bracketright
Encoding: 93 93 64
Width: 325
GlyphClass: 2
Flags: W
LayerCount: 2
Fore
SplineSet
205 0 m 1,0,-1
 204 -52 l 2,1,2
 204 -62 204 -62 201 -71 c 128,-1,3
 198 -80 198 -80 197.5 -86 c 128,-1,4
 197 -92 197 -92 191 -99.5 c 128,-1,5
 185 -107 185 -107 183.5 -110.5 c 128,-1,6
 182 -114 182 -114 172.5 -122.5 c 128,-1,7
 163 -131 163 -131 159.5 -134.5 c 128,-1,8
 156 -138 156 -138 142.5 -149 c 128,-1,9
 129 -160 129 -160 122 -166 c 1,10,-1
 96 -143 l 1,11,12
 123 -106 123 -106 137 -77 c 1,13,-1
 140 -1 l 1,14,15
 138 135 138 135 138 271 c 128,-1,16
 138 407 138 407 140 543 c 1,17,-1
 137 619 l 1,18,19
 123 650 123 650 96 684 c 1,20,-1
 122 707 l 1,21,22
 128 702 128 702 142 690.5 c 128,-1,23
 156 679 156 679 159.5 676 c 128,-1,24
 163 673 163 673 172.5 664.5 c 128,-1,25
 182 656 182 656 183.5 652.5 c 128,-1,26
 185 649 185 649 191 641.5 c 128,-1,27
 197 634 197 634 197.5 627.5 c 128,-1,28
 198 621 198 621 201 612.5 c 128,-1,29
 204 604 204 604 204 594 c 2,30,-1
 205 541 l 1,31,-1
 205 0 l 1,0,-1
EndSplineSet
EndChar

StartChar: asciicircum
Encoding: 94 94 65
Width: 487
GlyphClass: 2
Flags: W
LayerCount: 2
Fore
SplineSet
243 572 m 2,0,-1
 240 572 l 2,1,2
 237 572 237 572 234.5 566.5 c 128,-1,3
 232 561 232 561 231 559 c 2,4,-1
 108 305 l 1,5,-1
 45 305 l 1,6,-1
 213 644 l 1,7,-1
 273 644 l 1,8,-1
 442 305 l 1,9,-1
 379 305 l 1,10,11
 267 526 267 526 254 559 c 0,12,13
 248 572 248 572 243 572 c 2,0,-1
EndSplineSet
EndChar

StartChar: underscore
Encoding: 95 95 66
Width: 529
GlyphClass: 2
Flags: W
LayerCount: 2
Fore
SplineSet
50 0 m 1,0,-1
 50 59 l 1,1,-1
 479 59 l 1,2,-1
 479 0 l 1,3,-1
 50 0 l 1,0,-1
EndSplineSet
EndChar

StartChar: grave
Encoding: 96 96 67
Width: 352
GlyphClass: 2
Flags: W
LayerCount: 2
Fore
SplineSet
88 671 m 1,0,-1
 136 716 l 1,1,2
 174 674 174 674 199 655 c 0,3,4
 234 628 234 628 260 611 c 2,5,-1
 280 597 l 1,6,7
 275 590 275 590 266 582 c 128,-1,8
 257 574 257 574 252 568 c 1,9,-1
 184 596 l 1,10,11
 130 633 130 633 88 671 c 1,0,-1
EndSplineSet
EndChar

StartChar: a
Encoding: 97 97 68
Width: 486
GlyphClass: 2
Flags: W
LayerCount: 2
Fore
SplineSet
412 299 m 1,0,-1
 411 180 l 2,1,2
 411 152 411 152 412 128 c 1,3,-1
 434 6 l 1,4,-1
 435 1 l 1,5,-1
 391 1 l 1,6,-1
 387 4 l 1,7,-1
 363 62 l 1,8,9
 270 -2 270 -2 180 -5 c 1,10,11
 117 -5 117 -5 83.5 28.5 c 128,-1,12
 50 62 50 62 50 123 c 0,13,14
 50 207 50 207 97 237 c 128,-1,15
 144 267 144 267 226 267 c 0,16,17
 236 267 236 267 347 261 c 1,18,-1
 347 326 l 2,19,20
 347 392 347 392 322.5 417.5 c 128,-1,21
 298 443 298 443 254 443 c 128,-1,22
 210 443 210 443 84 416 c 1,23,-1
 75 464 l 1,24,25
 199 501 199 501 253 501 c 0,26,27
 335 501 335 501 383 450 c 0,28,29
 412 419 412 419 412 299 c 1,0,-1
347 211 m 1,30,-1
 242 215 l 1,31,32
 162 215 162 215 138 199 c 128,-1,33
 114 183 114 183 114 135.5 c 128,-1,34
 114 88 114 88 130 70.5 c 128,-1,35
 146 53 146 53 185.5 53 c 128,-1,36
 225 53 225 53 278.5 69 c 128,-1,37
 332 85 332 85 347 106 c 1,38,-1
 347 211 l 1,30,-1
EndSplineSet
EndChar

StartChar: b
Encoding: 98 98 69
Width: 518
GlyphClass: 2
Flags: W
LayerCount: 2
Fore
SplineSet
88 736 m 1,0,-1
 150 736 l 1,1,-1
 150 447 l 1,2,3
 210 500 210 500 273.5 500 c 128,-1,4
 337 500 337 500 375.5 481.5 c 128,-1,5
 414 463 414 463 433 426 c 0,6,7
 467 361 467 361 467 252 c 0,8,9
 467 183 467 183 450 131 c 128,-1,10
 433 79 433 79 409.5 53 c 128,-1,11
 386 27 386 27 356 11 c 0,12,13
 313 -12 313 -12 271 -12 c 0,14,15
 245 -12 245 -12 228 -8.5 c 128,-1,16
 211 -5 211 -5 202 -3.5 c 128,-1,17
 193 -2 193 -2 180.5 2.5 c 128,-1,18
 168 7 168 7 161.5 9 c 128,-1,19
 155 11 155 11 141.5 17 c 128,-1,20
 128 23 128 23 124 25 c 0,21,22
 94 40 94 40 88 42 c 1,23,-1
 88 736 l 1,0,-1
150 67 m 1,24,25
 206 47 206 47 256 47 c 128,-1,26
 306 47 306 47 332 59.5 c 128,-1,27
 358 72 358 72 371 88 c 128,-1,28
 384 104 384 104 390 134 c 0,29,30
 399 174 399 174 399 238 c 0,31,32
 399 357 399 357 379 399 c 128,-1,33
 359 441 359 441 279 441 c 128,-1,34
 199 441 199 441 150 385 c 1,35,-1
 150 67 l 1,24,25
EndSplineSet
EndChar

StartChar: c
Encoding: 99 99 70
Width: 443
GlyphClass: 2
Flags: W
LayerCount: 2
Fore
SplineSet
215 490 m 128,-1,1
 251 501 251 501 296.5 501 c 128,-1,2
 342 501 342 501 397 482 c 1,3,-1
 389 438 l 1,4,5
 334 449 334 449 301 449 c 0,6,7
 215 449 215 449 170 404.5 c 128,-1,8
 125 360 125 360 125 245 c 0,9,10
 125 43 125 43 289 43 c 0,11,12
 340 43 340 43 398 79 c 1,13,-1
 425 37 l 1,14,15
 360 -10 360 -10 273 -10 c 0,16,17
 228 -10 228 -10 194.5 -1 c 128,-1,18
 161 8 161 8 128 33 c 0,19,20
 58 85 58 85 58 245 c 0,21,22
 58 320 58 320 81 373.5 c 128,-1,23
 104 427 104 427 141.5 453 c 128,-1,0
 179 479 179 479 215 490 c 128,-1,1
EndSplineSet
EndChar

StartChar: d
Encoding: 100 100 71
Width: 539
GlyphClass: 2
Flags: W
LayerCount: 2
Fore
SplineSet
333 11.5 m 128,-1,1
 294 -10 294 -10 244 -10 c 128,-1,2
 194 -10 194 -10 155.5 8.5 c 128,-1,3
 117 27 117 27 98 64 c 0,4,5
 64 129 64 129 64 238 c 0,6,7
 64 307 64 307 81 358.5 c 128,-1,8
 98 410 98 410 121.5 436.5 c 128,-1,9
 145 463 145 463 175 479 c 0,10,11
 218 502 218 502 260 502 c 128,-1,12
 302 502 302 502 381 466 c 1,13,-1
 381 736 l 1,14,-1
 443 736 l 1,15,-1
 443 127 l 1,16,-1
 467 0 l 1,17,-1
 426 0 l 1,18,-1
 422 3 l 1,19,-1
 398 61 l 1,20,0
 372 33 372 33 333 11.5 c 128,-1,1
132 241 m 128,-1,22
 132 133 132 133 152 91 c 128,-1,23
 172 49 172 49 251.5 49 c 128,-1,24
 331 49 331 49 381 105 c 1,25,-1
 381 423 l 1,26,27
 331 443 331 443 257 443 c 128,-1,28
 183 443 183 443 157.5 396 c 128,-1,21
 132 349 132 349 132 241 c 128,-1,22
EndSplineSet
EndChar

StartChar: e
Encoding: 101 101 72
Width: 493
GlyphClass: 2
Flags: W
LayerCount: 2
Fore
SplineSet
432 321 m 0,0,1
 432 285 432 285 426 246 c 1,2,-1
 112 246 l 1,3,4
 116 136 116 136 149 94.5 c 128,-1,5
 182 53 182 53 266 53 c 0,6,7
 329 53 329 53 413 80 c 1,8,-1
 419 30 l 1,9,10
 396 21 396 21 383.5 17.5 c 128,-1,11
 371 14 371 14 357 9.5 c 128,-1,12
 343 5 343 5 336 3 c 128,-1,13
 329 1 329 1 316 -2 c 128,-1,14
 303 -5 303 -5 294 -6 c 0,15,16
 267 -9 267 -9 248 -9 c 0,17,18
 154 -9 154 -9 100 57 c 128,-1,19
 46 123 46 123 46 241 c 0,20,21
 46 306 46 306 62 355.5 c 128,-1,22
 78 405 78 405 100 431.5 c 128,-1,23
 122 458 122 458 153 474 c 0,24,25
 199 499 199 499 253 501 c 1,26,27
 432 500 432 500 432 321 c 0,0,1
369 337 m 0,28,29
 369 397 369 397 339 421 c 128,-1,30
 309 445 309 445 250 445 c 128,-1,31
 191 445 191 445 153 413.5 c 128,-1,32
 115 382 115 382 114 297 c 1,33,-1
 366 297 l 1,34,35
 369 320 369 320 369 337 c 0,28,29
EndSplineSet
EndChar

StartChar: f
Encoding: 102 102 73
Width: 329
GlyphClass: 2
Flags: W
LayerCount: 2
Fore
SplineSet
144 500 m 2,0,1
 144 492 144 492 186.5 492 c 128,-1,2
 229 492 229 492 247 492.5 c 128,-1,3
 265 493 265 493 270 493 c 1,4,-1
 261 444 l 1,5,-1
 152 444 l 2,6,7
 144 444 144 444 144 440 c 2,8,-1
 144 -74 l 1,9,-1
 109 -198 l 1,10,-1
 106 -201 l 1,11,-1
 60 -201 l 1,12,-1
 82 -74 l 1,13,-1
 82 438 l 2,14,15
 82 443 82 443 69 443 c 2,16,-1
 35 443 l 1,17,-1
 36 472 l 1,18,19
 77 491 77 491 82 493 c 1,20,-1
 82 494 l 1,21,-1
 81 572 l 2,22,23
 81 624 81 624 102 659.5 c 128,-1,24
 123 695 123 695 154 710 c 0,25,26
 210 736 210 736 260 736 c 0,27,28
 263 736 263 736 266 736 c 2,29,-1
 287 735 l 1,30,-1
 276 686 l 2,31,32
 275 684 275 684 266.5 685.5 c 128,-1,33
 258 687 258 687 250.5 687 c 128,-1,34
 243 687 243 687 226 681.5 c 128,-1,35
 209 676 209 676 190 667 c 128,-1,36
 171 658 171 658 157.5 633 c 128,-1,37
 144 608 144 608 144 572 c 2,38,-1
 144 500 l 2,0,1
EndSplineSet
EndChar

StartChar: g
Encoding: 103 103 74
Width: 512
GlyphClass: 2
Flags: W
LayerCount: 2
Fore
SplineSet
405 342 m 0,0,1
 405 264 405 264 359.5 218.5 c 128,-1,2
 314 173 314 173 236 173 c 0,3,4
 212 173 212 173 173 180 c 1,5,-1
 117 102 l 1,6,-1
 368 103 l 2,7,8
 418 103 418 103 445 65.5 c 128,-1,9
 472 28 472 28 472 -31 c 0,10,11
 472 -114 472 -114 406.5 -158 c 128,-1,12
 341 -202 341 -202 241 -202 c 128,-1,13
 141 -202 141 -202 93.5 -167.5 c 128,-1,14
 46 -133 46 -133 46 -58 c 1,15,-1
 141 40 l 1,16,17
 86 40 86 40 68.5 55 c 128,-1,18
 51 70 51 70 51 102 c 1,19,20
 92 148 92 148 129 197 c 1,21,22
 92 225 92 225 80 258.5 c 128,-1,23
 68 292 68 292 68 344 c 0,24,25
 68 421 68 421 116 465 c 128,-1,26
 164 509 164 509 242 509 c 0,27,28
 294 509 294 509 336 487 c 1,29,-1
 447 486 l 1,30,-1
 434 434 l 1,31,-1
 377 433 l 1,32,33
 405 387 405 387 405 342 c 0,0,1
301 -149.5 m 128,-1,35
 320 -148 320 -148 341.5 -141.5 c 128,-1,36
 363 -135 363 -135 376 -124 c 0,37,38
 407 -99 407 -99 406.5 -42.5 c 128,-1,39
 406 14 406 14 393.5 27.5 c 128,-1,40
 381 41 381 41 329 41 c 2,41,-1
 194 41 l 1,42,-1
 112 -68 l 1,43,44
 112 -123 112 -123 155 -139 c 0,45,46
 188 -151 188 -151 235 -151 c 128,-1,34
 282 -151 282 -151 301 -149.5 c 128,-1,35
236 223 m 0,47,48
 346 223 346 223 346 339 c 0,49,50
 346 405 346 405 319.5 431.5 c 128,-1,51
 293 458 293 458 238 458 c 128,-1,52
 183 458 183 458 156 430.5 c 128,-1,53
 129 403 129 403 128 338 c 1,54,55
 128 223 128 223 236 223 c 0,47,48
EndSplineSet
EndChar

StartChar: h
Encoding: 104 104 75
Width: 559
GlyphClass: 2
Flags: W
LayerCount: 2
Fore
SplineSet
166 0 m 1,0,-1
 102 0 l 1,1,-1
 102 736 l 1,2,-1
 166 736 l 1,3,-1
 166 445 l 1,4,5
 211 475 211 475 245.5 489 c 128,-1,6
 280 503 280 503 324 503 c 0,7,8
 469 503 469 503 469 352 c 2,9,-1
 469 0 l 1,10,-1
 404 0 l 1,11,-1
 404 352 l 1,12,13
 403 443 403 443 300 443 c 0,14,15
 256 443 256 443 214 423.5 c 128,-1,16
 172 404 172 404 166 387 c 1,17,-1
 166 0 l 1,0,-1
EndSplineSet
EndChar

StartChar: i
Encoding: 105 105 76
Width: 247
GlyphClass: 2
Flags: W
LayerCount: 2
Fore
SplineSet
85 492 m 1,0,-1
 147 492 l 1,1,-1
 147 0 l 1,2,-1
 85 0 l 1,3,-1
 85 492 l 1,0,-1
81 657 m 1,4,-1
 151 657 l 1,5,-1
 151 585 l 1,6,-1
 81 585 l 1,7,-1
 81 657 l 1,4,-1
EndSplineSet
EndChar

StartChar: j
Encoding: 106 106 77
Width: 234
GlyphClass: 2
Flags: W
LayerCount: 2
Fore
SplineSet
86 657 m 1,0,-1
 156 657 l 1,1,-1
 156 585 l 1,2,-1
 86 585 l 1,3,-1
 86 657 l 1,0,-1
90 492 m 1,4,-1
 151 492 l 1,5,-1
 151 -39 l 2,6,7
 151 -123 151 -123 98.5 -158 c 128,-1,8
 46 -193 46 -193 -52 -202 c 1,9,-1
 -44 -156 l 1,10,11
 48 -136 48 -136 72 -106 c 0,12,13
 84 -90 84 -90 87 -76.5 c 128,-1,14
 90 -63 90 -63 90 -39 c 2,15,-1
 90 492 l 1,4,-1
EndSplineSet
EndChar

StartChar: k
Encoding: 107 107 78
Width: 493
GlyphClass: 2
Flags: W
LayerCount: 2
Fore
SplineSet
131 0 m 1,0,-1
 69 0 l 1,1,-1
 69 736 l 1,2,-1
 131 736 l 1,3,-1
 131 292 l 1,4,-1
 305 492 l 1,5,-1
 380 492 l 1,6,-1
 209 296 l 1,7,-1
 468 0 l 1,8,-1
 388 0 l 1,9,-1
 169 251 l 1,10,-1
 131 207 l 1,11,-1
 131 0 l 1,0,-1
EndSplineSet
EndChar

StartChar: l
Encoding: 108 108 79
Width: 256
GlyphClass: 2
Flags: W
LayerCount: 2
Fore
SplineSet
84 736 m 1,0,-1
 146 736 l 1,1,-1
 146 119 l 1,2,-1
 171 -9 l 1,3,-1
 125 -9 l 1,4,-1
 121 -5 l 1,5,-1
 84 119 l 1,6,-1
 84 736 l 1,0,-1
EndSplineSet
EndChar

StartChar: m
Encoding: 109 109 80
Width: 822
GlyphClass: 2
Flags: W
LayerCount: 2
Fore
SplineSet
453 0 m 1,0,-1
 388 0 l 1,1,-1
 388 352 l 1,2,3
 386 404 386 404 368.5 423.5 c 128,-1,4
 351 443 351 443 304 443 c 128,-1,5
 257 443 257 443 216.5 423.5 c 128,-1,6
 176 404 176 404 169 387 c 1,7,-1
 169 0 l 1,8,-1
 105 0 l 1,9,-1
 105 365 l 1,10,-1
 88 487 l 1,11,-1
 135 487 l 1,12,-1
 138 484 l 1,13,-1
 153 434 l 1,14,15
 191 459 191 459 209.5 470 c 128,-1,16
 228 481 228 481 261 492 c 128,-1,17
 294 503 294 503 328 503 c 0,18,19
 412 503 412 503 440 436 c 1,20,21
 476 460 476 460 496 471 c 0,22,23
 552 503 552 503 612 503 c 128,-1,24
 672 503 672 503 704.5 469 c 128,-1,25
 737 435 737 435 738 352 c 1,26,-1
 738 0 l 1,27,-1
 673 0 l 1,28,-1
 673 352 l 1,29,30
 671 404 671 404 653.5 423.5 c 128,-1,31
 636 443 636 443 588.5 443 c 128,-1,32
 541 443 541 443 501 423.5 c 128,-1,33
 461 404 461 404 453 387 c 1,34,-1
 453 0 l 1,0,-1
EndSplineSet
EndChar

StartChar: n
Encoding: 110 110 81
Width: 544
GlyphClass: 2
Flags: W
LayerCount: 2
Fore
SplineSet
459 0 m 1,0,-1
 394 0 l 1,1,-1
 394 352 l 1,2,3
 393 401 393 401 366.5 422 c 128,-1,4
 340 443 340 443 291.5 443 c 128,-1,5
 243 443 243 443 202.5 424 c 128,-1,6
 162 405 162 405 155 388 c 1,7,-1
 155 0 l 1,8,-1
 91 0 l 1,9,-1
 91 365 l 1,10,-1
 74 487 l 1,11,-1
 117 487 l 1,12,-1
 120 485 l 1,13,-1
 139 434 l 1,14,15
 174 458 174 458 196 470 c 1,16,17
 251 503 251 503 316 503 c 0,18,19
 456 503 456 503 459 352 c 1,20,-1
 459 0 l 1,0,-1
EndSplineSet
EndChar

StartChar: o
Encoding: 111 111 82
Width: 509
GlyphClass: 2
Flags: W
LayerCount: 2
Fore
SplineSet
312.5 439 m 128,-1,1
 291 444 291 444 253 444 c 128,-1,2
 215 444 215 444 186.5 431.5 c 128,-1,3
 158 419 158 419 144.5 389.5 c 128,-1,4
 131 360 131 360 127 329.5 c 128,-1,5
 123 299 123 299 123 246 c 0,6,7
 123 133 123 133 148.5 90 c 128,-1,8
 174 47 174 47 261 47 c 0,9,10
 308 47 308 47 337 59 c 128,-1,11
 366 71 366 71 380 99.5 c 128,-1,12
 394 128 394 128 398 159.5 c 128,-1,13
 402 191 402 191 402 234.5 c 128,-1,14
 402 278 402 278 401.5 296.5 c 128,-1,15
 401 315 401 315 398 339.5 c 128,-1,16
 395 364 395 364 389.5 377 c 128,-1,17
 384 390 384 390 374 405 c 128,-1,18
 364 420 364 420 349 427 c 128,-1,0
 334 434 334 434 312.5 439 c 128,-1,1
385 479.5 m 128,-1,20
 428 459 428 459 449 404 c 128,-1,21
 470 349 470 349 470 262 c 128,-1,22
 470 175 470 175 451.5 123 c 128,-1,23
 433 71 433 71 402 43 c 0,24,25
 342 -11 342 -11 262 -11 c 0,26,27
 145 -11 145 -11 100 44 c 128,-1,28
 55 99 55 99 55 245 c 0,29,30
 55 315 55 315 74 367 c 128,-1,31
 93 419 93 419 125 446 c 0,32,33
 187 500 187 500 264.5 500 c 128,-1,19
 342 500 342 500 385 479.5 c 128,-1,20
EndSplineSet
EndChar

StartChar: p
Encoding: 112 112 83
Width: 542
GlyphClass: 2
Flags: W
LayerCount: 2
Fore
SplineSet
275 501 m 0,0,1
 391 501 391 501 430 428 c 0,2,3
 449 392 449 392 456 351.5 c 128,-1,4
 463 311 463 311 463 247.5 c 128,-1,5
 463 184 463 184 446 132.5 c 128,-1,6
 429 81 429 81 406 55 c 128,-1,7
 383 29 383 29 353 13 c 0,8,9
 310 -10 310 -10 270 -10 c 128,-1,10
 230 -10 230 -10 148 25 c 1,11,-1
 148 -201 l 1,12,-1
 86 -201 l 1,13,-1
 86 365 l 1,14,-1
 69 486 l 1,15,-1
 110 486 l 1,16,-1
 113 483 l 1,17,-1
 131 432 l 1,18,19
 196 501 196 501 275 501 c 0,0,1
148 68 m 1,20,21
 202 49 202 49 253.5 49 c 128,-1,22
 305 49 305 49 330.5 61.5 c 128,-1,23
 356 74 356 74 368.5 89.5 c 128,-1,24
 381 105 381 105 387.5 136 c 128,-1,25
 394 167 394 167 394.5 185 c 128,-1,26
 395 203 395 203 395 246.5 c 128,-1,27
 395 290 395 290 393.5 316.5 c 128,-1,28
 392 343 392 343 386.5 371.5 c 128,-1,29
 381 400 381 400 368 412 c 1,30,31
 339 442 339 442 280 442 c 0,32,33
 196 442 196 442 148 387 c 1,34,-1
 148 68 l 1,20,21
EndSplineSet
EndChar

StartChar: q
Encoding: 113 113 84
Width: 530
GlyphClass: 2
Flags: W
LayerCount: 2
Fore
SplineSet
438 -201 m 1,0,-1
 376 -201 l 1,1,-1
 376 42 l 1,2,3
 317 -10 317 -10 253 -10 c 128,-1,4
 189 -10 189 -10 151 8.5 c 128,-1,5
 113 27 113 27 94 64 c 0,6,7
 61 127 61 127 61 238 c 0,8,9
 61 307 61 307 78 358.5 c 128,-1,10
 95 410 95 410 118 436.5 c 128,-1,11
 141 463 141 463 171 478 c 0,12,13
 215 501 215 501 255 501 c 0,14,15
 336 501 336 501 438 448 c 1,16,-1
 438 -201 l 1,0,-1
376 423 m 1,17,18
 317 442 317 442 271.5 442 c 128,-1,19
 226 442 226 442 202.5 434.5 c 128,-1,20
 179 427 179 427 165 411 c 128,-1,21
 151 395 151 395 142.5 380 c 128,-1,22
 134 365 134 365 131 339 c 0,23,24
 126 296 126 296 126 249.5 c 128,-1,25
 126 203 126 203 127.5 175 c 128,-1,26
 129 147 129 147 135.5 119.5 c 128,-1,27
 142 92 142 92 155 78 c 0,28,29
 183 49 183 49 244 49 c 0,30,31
 327 49 327 49 376 105 c 1,32,-1
 376 423 l 1,17,18
EndSplineSet
EndChar

StartChar: r
Encoding: 114 114 85
Width: 370
GlyphClass: 2
Flags: W
LayerCount: 2
Fore
SplineSet
310 500 m 0,0,1
 330 500 330 500 354 494 c 1,2,-1
 330 435 l 1,3,4
 314 438 314 438 298 438 c 0,5,6
 235 438 235 438 170 368 c 1,7,-1
 170 0 l 1,8,-1
 108 0 l 1,9,-1
 108 364 l 1,10,-1
 91 486 l 1,11,-1
 129 486 l 1,12,-1
 132 484 l 1,13,-1
 151 413 l 1,14,15
 195 456 195 456 231 478 c 128,-1,16
 267 500 267 500 310 500 c 0,0,1
EndSplineSet
EndChar

StartChar: s
Encoding: 115 115 86
Width: 448
GlyphClass: 2
Flags: W
LayerCount: 2
Fore
SplineSet
65 68 m 1,0,1
 127 44 127 44 181 44 c 128,-1,2
 235 44 235 44 273.5 66.5 c 128,-1,3
 312 89 312 89 312 126 c 128,-1,4
 312 163 312 163 286 185.5 c 128,-1,5
 260 208 260 208 223 222 c 128,-1,6
 186 236 186 236 149.5 251.5 c 128,-1,7
 113 267 113 267 87 295.5 c 128,-1,8
 61 324 61 324 61 366 c 0,9,10
 61 432 61 432 107 467.5 c 128,-1,11
 153 503 153 503 222.5 503 c 128,-1,12
 292 503 292 503 356 480 c 1,13,-1
 343 434 l 1,14,15
 293 451 293 451 230 451 c 0,16,17
 126 451 126 451 126 370 c 0,18,19
 126 318 126 318 216 284 c 0,20,21
 254 270 254 270 291.5 253.5 c 128,-1,22
 329 237 329 237 355.5 206 c 128,-1,23
 382 175 382 175 382 131 c 0,24,25
 382 64 382 64 324 28 c 128,-1,26
 266 -8 266 -8 190 -8 c 128,-1,27
 114 -8 114 -8 50 19 c 1,28,-1
 65 68 l 1,0,1
EndSplineSet
EndChar

StartChar: t
Encoding: 116 116 87
Width: 312
GlyphClass: 2
Flags: W
LayerCount: 2
Fore
SplineSet
88 440 m 2,0,1
 88 445 88 445 83 445 c 2,2,-1
 43 445 l 1,3,-1
 43 474 l 1,4,-1
 89 493 l 1,5,-1
 100 581 l 1,6,-1
 151 581 l 1,7,-1
 151 501 l 1,8,9
 154 494 154 494 192 494 c 2,10,-1
 251 494 l 1,11,-1
 243 447 l 1,12,-1
 159 446 l 2,13,14
 150 446 150 446 150 442 c 2,15,-1
 150 126 l 1,16,-1
 176 -4 l 1,17,-1
 132 -4 l 1,18,-1
 128 -1 l 1,19,-1
 88 126 l 1,20,-1
 88 440 l 2,0,1
EndSplineSet
EndChar

StartChar: u
Encoding: 117 117 88
Width: 559
GlyphClass: 2
Flags: W
LayerCount: 2
Fore
SplineSet
85 492 m 1,0,-1
 150 492 l 1,1,-1
 150 141 l 1,2,3
 151 91 151 91 177.5 71 c 128,-1,4
 204 51 204 51 254.5 51 c 128,-1,5
 305 51 305 51 343.5 70 c 128,-1,6
 382 89 382 89 389 106 c 1,7,-1
 389 492 l 1,8,-1
 453 492 l 1,9,-1
 453 129 l 1,10,-1
 471 0 l 1,11,-1
 429 0 l 1,12,-1
 426 3 l 1,13,-1
 405 59 l 1,14,15
 366 33 366 33 349 22.5 c 128,-1,16
 332 12 332 12 299.5 1.5 c 128,-1,17
 267 -9 267 -9 231 -9 c 0,18,19
 88 -9 88 -9 85 142 c 1,20,-1
 85 492 l 1,0,-1
EndSplineSet
EndChar

StartChar: v
Encoding: 118 118 89
Width: 492
GlyphClass: 2
Flags: W
LayerCount: 2
Fore
SplineSet
25 492 m 1,0,-1
 94 492 l 1,1,-1
 228 114 l 1,2,-1
 245 61 l 1,3,-1
 248 61 l 1,4,-1
 263 114 l 1,5,-1
 398 492 l 1,6,-1
 467 492 l 1,7,-1
 285 5 l 1,8,-1
 281 0 l 1,9,-1
 212 0 l 1,10,-1
 208 5 l 1,11,-1
 25 492 l 1,0,-1
EndSplineSet
EndChar

StartChar: w
Encoding: 119 119 90
Width: 782
GlyphClass: 2
Flags: W
LayerCount: 2
Fore
SplineSet
355 492 m 1,0,-1
 426 492 l 1,1,-1
 537 104 l 1,2,-1
 544 65 l 1,3,-1
 546 65 l 1,4,-1
 553 104 l 1,5,-1
 666 492 l 1,6,-1
 736 492 l 1,7,-1
 580 0 l 1,8,-1
 511 0 l 1,9,-1
 401 374 l 1,10,-1
 392 422 l 1,11,-1
 389 422 l 1,12,-1
 380 374 l 1,13,-1
 269 0 l 1,14,-1
 200 0 l 1,15,-1
 46 492 l 1,16,-1
 116 492 l 1,17,-1
 227 104 l 1,18,-1
 233 65 l 1,19,-1
 236 65 l 1,20,-1
 242 104 l 1,21,-1
 355 492 l 1,0,-1
EndSplineSet
EndChar

StartChar: x
Encoding: 120 120 91
Width: 464
GlyphClass: 2
Flags: W
LayerCount: 2
Fore
SplineSet
36 492 m 1,0,-1
 110 492 l 1,1,-1
 228 304 l 1,2,-1
 346 492 l 1,3,-1
 420 492 l 1,4,-1
 262 257 l 1,5,-1
 435 0 l 1,6,-1
 363 0 l 1,7,-1
 228 211 l 1,8,-1
 93 0 l 1,9,-1
 22 0 l 1,10,-1
 194 257 l 1,11,-1
 36 492 l 1,0,-1
EndSplineSet
EndChar

StartChar: y
Encoding: 121 121 92
Width: 494
GlyphClass: 2
Flags: W
LayerCount: 2
Fore
SplineSet
23 -144 m 1,0,1
 59 -154 59 -154 84 -154 c 0,2,3
 163 -152 163 -152 190 -81 c 2,4,-1
 220 -1 l 1,5,-1
 29 492 l 1,6,-1
 101 492 l 1,7,-1
 253 70 l 1,8,-1
 402 492 l 1,9,-1
 472 492 l 1,10,-1
 252 -101 l 1,11,12
 211 -202 211 -202 102 -202 c 0,13,14
 56 -202 56 -202 0 -184 c 1,15,-1
 23 -144 l 1,0,1
EndSplineSet
EndChar

StartChar: z
Encoding: 122 122 93
Width: 481
GlyphClass: 2
Flags: W
LayerCount: 2
Fore
SplineSet
414 492 m 1,0,-1
 414 438 l 1,1,-1
 132 71 l 1,2,-1
 117 56 l 1,3,-1
 431 56 l 1,4,-1
 412 0 l 1,5,-1
 44 0 l 1,6,-1
 44 55 l 1,7,-1
 329 422 l 1,8,-1
 344 437 l 1,9,-1
 65 437 l 1,10,-1
 65 492 l 1,11,-1
 414 492 l 1,0,-1
EndSplineSet
EndChar

StartChar: braceleft
Encoding: 123 123 94
Width: 282
GlyphClass: 2
Flags: W
LayerCount: 2
Fore
SplineSet
204 563 m 1,0,-1
 205 371 l 2,1,2
 205 348 205 348 196 335 c 128,-1,3
 187 322 187 322 181.5 315 c 128,-1,4
 176 308 176 308 168 302 c 128,-1,5
 160 296 160 296 155 292 c 0,6,7
 140 280 140 280 137 280 c 1,8,9
 134 278 134 278 134 271 c 128,-1,10
 134 264 134 264 137 262 c 0,11,12
 176 238 176 238 186 223 c 0,13,14
 205 196 205 196 205 171 c 0,15,16
 205 43 205 43 204 -21 c 1,17,-1
 207 -97 l 1,18,19
 221 -126 221 -126 248 -163 c 1,20,-1
 222 -186 l 1,21,22
 215 -180 215 -180 201.5 -169 c 128,-1,23
 188 -158 188 -158 184.5 -154.5 c 128,-1,24
 181 -151 181 -151 171.5 -142.5 c 128,-1,25
 162 -134 162 -134 160.5 -130.5 c 128,-1,26
 159 -127 159 -127 153 -119.5 c 128,-1,27
 147 -112 147 -112 146.5 -106 c 128,-1,28
 146 -100 146 -100 143 -91 c 128,-1,29
 140 -82 140 -82 140 -72 c 2,30,-1
 139 -20 l 1,31,-1
 139 184 l 2,32,33
 139 188 139 188 116.5 213.5 c 128,-1,34
 94 239 94 239 78 254 c 1,35,36
 76 261 76 261 76 273 c 128,-1,37
 76 285 76 285 77 288 c 1,38,39
 139 350 139 350 139 358 c 2,40,-1
 139 561 l 1,41,-1
 140 614 l 2,42,43
 140 624 140 624 143 632.5 c 128,-1,44
 146 641 146 641 146.5 647.5 c 128,-1,45
 147 654 147 654 153 661.5 c 128,-1,46
 159 669 159 669 160.5 672.5 c 128,-1,47
 162 676 162 676 171.5 684.5 c 128,-1,48
 181 693 181 693 184.5 696 c 128,-1,49
 188 699 188 699 202 710.5 c 128,-1,50
 216 722 216 722 222 727 c 1,51,-1
 248 704 l 1,52,53
 221 670 221 670 207 639 c 1,54,-1
 204 563 l 1,0,-1
EndSplineSet
EndChar

StartChar: bar
Encoding: 124 124 95
Width: 248
GlyphClass: 2
Flags: W
LayerCount: 2
Fore
SplineSet
92 682 m 1,0,-1
 156 682 l 1,1,-1
 155 -44 l 1,2,-1
 92 -44 l 1,3,-1
 92 682 l 1,0,-1
EndSplineSet
EndChar

StartChar: braceright
Encoding: 125 125 96
Width: 282
GlyphClass: 2
Flags: W
LayerCount: 2
Fore
SplineSet
143 -20 m 1,0,-1
 142 -72 l 2,1,2
 142 -82 142 -82 139 -91 c 128,-1,3
 136 -100 136 -100 135.5 -106 c 128,-1,4
 135 -112 135 -112 129 -119.5 c 128,-1,5
 123 -127 123 -127 121.5 -130.5 c 128,-1,6
 120 -134 120 -134 110.5 -142.5 c 128,-1,7
 101 -151 101 -151 97.5 -154.5 c 128,-1,8
 94 -158 94 -158 80.5 -169 c 128,-1,9
 67 -180 67 -180 60 -186 c 1,10,-1
 34 -163 l 1,11,12
 61 -126 61 -126 75 -97 c 1,13,-1
 78 -21 l 1,14,15
 77 43 77 43 77 171 c 0,16,17
 77 220 77 220 137 257 c 2,18,-1
 145 262 l 2,19,20
 148 264 148 264 148 271 c 128,-1,21
 148 278 148 278 145 280 c 1,22,23
 142 280 142 280 132 288 c 128,-1,24
 122 296 122 296 114 302 c 128,-1,25
 106 308 106 308 100.5 315 c 128,-1,26
 95 322 95 322 89 330 c 0,27,28
 77 348 77 348 77 371 c 2,29,-1
 78 563 l 1,30,-1
 75 639 l 1,31,32
 61 670 61 670 34 704 c 1,33,-1
 60 727 l 1,34,35
 66 722 66 722 80 710.5 c 128,-1,36
 94 699 94 699 97.5 696 c 128,-1,37
 101 693 101 693 110.5 684.5 c 128,-1,38
 120 676 120 676 121.5 672.5 c 128,-1,39
 123 669 123 669 129 661.5 c 128,-1,40
 135 654 135 654 135.5 647.5 c 128,-1,41
 136 641 136 641 139 632.5 c 128,-1,42
 142 624 142 624 142 614 c 2,43,-1
 143 561 l 1,44,-1
 143 358 l 2,45,46
 143 350 143 350 205 288 c 1,47,48
 206 285 206 285 206 280 c 0,49,50
 206 261 206 261 204 254 c 1,51,52
 188 239 188 239 165.5 213.5 c 128,-1,53
 143 188 143 188 143 184 c 2,54,-1
 143 -20 l 1,0,-1
EndSplineSet
EndChar

StartChar: asciitilde
Encoding: 126 126 97
Width: 486
GlyphClass: 2
Flags: W
LayerCount: 2
Fore
SplineSet
378 246 m 2,0,1
 359 231 359 231 349.5 229 c 128,-1,2
 340 227 340 227 331 227 c 128,-1,3
 322 227 322 227 306 230 c 2,4,-1
 161 253 l 1,5,-1
 86 221 l 1,6,-1
 68 249 l 1,7,-1
 110 290 l 1,8,9
 131 307 131 307 139.5 310 c 128,-1,10
 148 313 148 313 157 313 c 128,-1,11
 166 313 166 313 178 311 c 2,12,-1
 333 285 l 1,13,-1
 407 320 l 1,14,-1
 425 285 l 1,15,-1
 378 246 l 2,0,1
EndSplineSet
EndChar

StartChar: exclamdown
Encoding: 161 161 98
Width: 223
GlyphClass: 2
Flags: W
LayerCount: 2
Fore
SplineSet
89 355 m 1,0,-1
 134 355 l 1,1,-1
 144 121 l 1,2,-1
 149 -170 l 1,3,-1
 74 -170 l 1,4,-1
 79 121 l 1,5,-1
 89 355 l 1,0,-1
75 500 m 1,6,-1
 147 500 l 1,7,-1
 147 426 l 1,8,-1
 75 426 l 1,9,-1
 75 500 l 1,6,-1
EndSplineSet
EndChar

StartChar: cent
Encoding: 162 162 99
Width: 468
GlyphClass: 2
Flags: W
LayerCount: 2
Fore
SplineSet
242 -15 m 1,0,-1
 242 80 l 1,1,2
 166 86 166 86 116 134 c 0,3,4
 60 188 60 188 60 334 c 0,5,6
 60 461 60 461 120 521 c 0,7,8
 173 574 173 574 242 586 c 1,9,-1
 242 684 l 1,10,-1
 296 684 l 1,11,-1
 296 590 l 1,12,13
 344 589 344 589 397 571 c 1,14,-1
 389 527 l 1,15,16
 334 538 334 538 301 538 c 0,17,18
 215 538 215 538 170 493.5 c 128,-1,19
 125 449 125 449 125 334 c 0,20,21
 125 132 125 132 289 132 c 0,22,23
 340 132 340 132 398 168 c 1,24,-1
 425 126 l 1,25,26
 367 84 367 84 296 79 c 1,27,-1
 296 -15 l 1,28,-1
 242 -15 l 1,0,-1
EndSplineSet
EndChar

StartChar: sterling
Encoding: 163 163 100
Width: 473
GlyphClass: 2
Flags: W
LayerCount: 2
Fore
SplineSet
78 274 m 1,0,-1
 78 324 l 1,1,-1
 154 324 l 1,2,3
 151 337 151 337 145 361.5 c 128,-1,4
 139 386 139 386 136 400 c 0,5,6
 127 440 127 440 127 459 c 0,7,8
 127 555 127 555 177.5 602 c 128,-1,9
 228 649 228 649 309.5 649 c 128,-1,10
 391 649 391 649 468 618 c 1,11,-1
 449 567 l 1,12,13
 389 594 389 594 317 594 c 128,-1,14
 245 594 245 594 220 567 c 128,-1,15
 195 540 195 540 195 465 c 0,16,17
 195 430 195 430 200 407 c 2,18,-1
 212 359 l 2,19,20
 218 334 218 334 220 324 c 1,21,-1
 346 324 l 1,22,-1
 346 274 l 1,23,-1
 230 274 l 1,24,25
 233 251 233 251 233 229 c 0,26,27
 233 138 233 138 180 56 c 1,28,-1
 491 56 l 1,29,-1
 491 0 l 1,30,-1
 103 0 l 1,31,-1
 103 55 l 1,32,33
 168 112 168 112 168 217 c 0,34,35
 168 244 168 244 164 274 c 1,36,-1
 78 274 l 1,0,-1
EndSplineSet
EndChar

StartChar: currency
Encoding: 164 164 101
Width: 833
GlyphClass: 2
Flags: W
LayerCount: 2
Fore
SplineSet
119 124 m 1,0,1
 54 192 54 192 54 317 c 128,-1,2
 54 442 54 442 116 504 c 1,3,-1
 42 593 l 1,4,-1
 90 633 l 1,5,-1
 167 541 l 1,6,7
 227 570 227 570 317.5 570 c 128,-1,8
 408 570 408 570 468 539 c 1,9,-1
 548 633 l 1,10,-1
 596 593 l 1,11,-1
 520 502 l 1,12,13
 588 434 588 434 588 306.5 c 128,-1,14
 588 179 588 179 525 117 c 1,15,-1
 596 33 l 1,16,-1
 547 -8 l 1,17,-1
 472 80 l 1,18,19
 413 52 413 52 322.5 52 c 128,-1,20
 232 52 232 52 169 85 c 1,21,-1
 91 -8 l 1,22,-1
 42 33 l 1,23,-1
 119 124 l 1,0,1
319 108 m 0,24,25
 448 108 448 108 490 172 c 0,26,27
 510 204 510 204 517.5 236 c 128,-1,28
 525 268 525 268 525 309 c 128,-1,29
 525 350 525 350 516 383 c 128,-1,30
 507 416 507 416 486 447 c 0,31,32
 441 514 441 514 325.5 514 c 128,-1,33
 210 514 210 514 163 464 c 128,-1,34
 116 414 116 414 116 310.5 c 128,-1,35
 116 207 116 207 169.5 157.5 c 128,-1,36
 223 108 223 108 319 108 c 0,24,25
EndSplineSet
EndChar

StartChar: yen
Encoding: 165 165 102
Width: 482
GlyphClass: 2
Flags: W
LayerCount: 2
Fore
SplineSet
61 265 m 1,0,-1
 61 315 l 1,1,-1
 181 315 l 1,2,-1
 2 648 l 1,3,-1
 76 648 l 1,4,-1
 241 324 l 1,5,-1
 409 648 l 1,6,-1
 480 648 l 1,7,-1
 302 315 l 1,8,-1
 422 315 l 1,9,-1
 422 265 l 1,10,-1
 275 265 l 1,11,-1
 274 183 l 1,12,-1
 422 183 l 1,13,-1
 422 133 l 1,14,-1
 274 133 l 1,15,-1
 274 0 l 1,16,-1
 208 0 l 1,17,-1
 208 133 l 1,18,-1
 61 133 l 1,19,-1
 61 183 l 1,20,-1
 208 183 l 1,21,-1
 208 265 l 1,22,-1
 61 265 l 1,0,-1
EndSplineSet
EndChar

StartChar: brokenbar
Encoding: 166 166 103
Width: 245
GlyphClass: 2
Flags: W
LayerCount: 2
Fore
SplineSet
92 -44 m 1,0,-1
 92 242 l 1,1,-1
 153 242 l 1,2,-1
 153 -44 l 1,3,-1
 92 -44 l 1,0,-1
92 394 m 1,4,-1
 92 684 l 1,5,-1
 153 684 l 1,6,-1
 153 394 l 1,7,-1
 92 394 l 1,4,-1
EndSplineSet
EndChar

StartChar: section
Encoding: 167 167 104
Width: 514
GlyphClass: 2
Flags: W
LayerCount: 2
Fore
SplineSet
58 307 m 0,0,1
 58 394 58 394 145 463 c 1,2,3
 111 484 111 484 95.5 510 c 128,-1,4
 80 536 80 536 80 577 c 0,5,6
 80 647 80 647 130 691 c 128,-1,7
 180 735 180 735 263 735 c 0,8,9
 309 735 309 735 369 719 c 2,10,-1
 387 714 l 1,11,-1
 375 668 l 1,12,13
 328 684 328 684 282 684 c 0,14,15
 204 684 204 684 178 657.5 c 128,-1,16
 152 631 152 631 152 585 c 0,17,18
 152 563 152 563 158.5 547.5 c 128,-1,19
 165 532 165 532 183 519 c 0,20,21
 207 503 207 503 237 490 c 128,-1,22
 267 477 267 477 268.5 476 c 128,-1,23
 270 475 270 475 273 474 c 128,-1,24
 276 473 276 473 278 472 c 0,25,26
 371 433 371 433 401 409 c 0,27,28
 455 364 455 364 454 290 c 1,29,30
 451 205 451 205 367 138 c 1,31,32
 402 118 402 118 418 92 c 128,-1,33
 434 66 434 66 434 25 c 0,34,35
 434 -45 434 -45 384 -89 c 128,-1,36
 334 -133 334 -133 251 -133 c 0,37,38
 220 -133 220 -133 177 -123 c 128,-1,39
 134 -113 134 -113 107 -103 c 2,40,-1
 79 -93 l 1,41,-1
 93 -47 l 1,42,43
 186 -82 186 -82 229.5 -82 c 128,-1,44
 273 -82 273 -82 299.5 -74 c 128,-1,45
 326 -66 326 -66 338 -50 c 0,46,47
 357 -26 357 -26 357 7 c 128,-1,48
 357 40 357 40 350.5 56 c 128,-1,49
 344 72 344 72 323 86 c 0,50,51
 292 106 292 106 216.5 137.5 c 128,-1,52
 141 169 141 169 111 193 c 0,53,54
 58 236 58 236 58 307 c 0,0,1
134 315 m 0,55,56
 134 266 134 266 167 240 c 0,57,58
 192 221 192 221 220 207.5 c 128,-1,59
 248 194 248 194 321 162 c 1,60,61
 378 206 378 206 378 287 c 0,62,63
 378 336 378 336 345 362 c 0,64,65
 320 381 320 381 271 405 c 1,66,67
 208 432 208 432 190 440 c 1,68,69
 134 397 134 397 134 315 c 0,55,56
EndSplineSet
EndChar

StartChar: dieresis
Encoding: 168 168 105
Width: 550
GlyphClass: 2
Flags: W
LayerCount: 2
Fore
SplineSet
166 658 m 1,0,-1
 238 658 l 1,1,-1
 238 584 l 1,2,-1
 166 584 l 1,3,-1
 166 658 l 1,0,-1
312 658 m 1,4,-1
 384 658 l 1,5,-1
 384 584 l 1,6,-1
 312 584 l 1,7,-1
 312 658 l 1,4,-1
EndSplineSet
EndChar

StartChar: copyright
Encoding: 169 169 106
Width: 756
GlyphClass: 2
Flags: W
LayerCount: 2
Fore
SplineSet
389 494 m 0,0,1
 422 494 422 494 480 478 c 1,2,-1
 468 438 l 1,3,-1
 449 440 l 1,4,5
 411 448 411 448 391 448 c 0,6,7
 328 448 328 448 298.5 421.5 c 128,-1,8
 269 395 269 395 269 309 c 128,-1,9
 269 223 269 223 296 192.5 c 128,-1,10
 323 162 323 162 371 162 c 128,-1,11
 419 162 419 162 462 188 c 1,12,-1
 480 148 l 1,13,14
 434 116 434 116 368 116 c 0,15,16
 336 116 336 116 313 122 c 128,-1,17
 290 128 290 128 266 146 c 0,18,19
 218 183 218 183 218 305 c 0,20,21
 218 421 218 421 278 462 c 0,22,23
 326 494 326 494 389 494 c 0,0,1
602.5 528.5 m 128,-1,25
 696 435 696 435 696 303 c 128,-1,26
 696 171 696 171 605.5 78.5 c 128,-1,27
 515 -14 515 -14 381 -14 c 128,-1,28
 247 -14 247 -14 153.5 79.5 c 128,-1,29
 60 173 60 173 60 305 c 128,-1,30
 60 437 60 437 150.5 529.5 c 128,-1,31
 241 622 241 622 375 622 c 128,-1,24
 509 622 509 622 602.5 528.5 c 128,-1,25
569.5 109.5 m 128,-1,33
 639 184 639 184 639 299.5 c 128,-1,34
 639 415 639 415 563 492.5 c 128,-1,35
 487 570 487 570 371 570 c 128,-1,36
 255 570 255 570 185.5 496.5 c 128,-1,37
 116 423 116 423 116 307 c 128,-1,38
 116 191 116 191 192 113 c 128,-1,39
 268 35 268 35 384 35 c 128,-1,32
 500 35 500 35 569.5 109.5 c 128,-1,33
EndSplineSet
EndChar

StartChar: ordfeminine
Encoding: 170 170 107
Width: 281
GlyphClass: 2
Flags: W
LayerCount: 2
Fore
SplineSet
128 588 m 1,0,-1
 166 587 l 1,1,-1
 192 587 l 1,2,-1
 192 615 l 2,3,4
 192 647 192 647 180 659 c 128,-1,5
 168 671 168 671 146.5 671 c 128,-1,6
 125 671 125 671 79 663 c 1,7,-1
 39 657 l 1,8,-1
 33 699 l 1,9,-1
 59 705 l 1,10,11
 113 720 113 720 144 720 c 0,12,13
 195 720 195 720 224 688 c 1,14,-1
 224 689 l 1,15,16
 244 672 244 672 244 600 c 2,17,-1
 244 505 l 1,18,-1
 257 438 l 1,19,-1
 257 425 l 1,20,-1
 215 426 l 1,21,-1
 205 453 l 1,22,23
 150 423 150 423 106 422 c 128,-1,24
 62 421 62 421 40.5 442 c 128,-1,25
 19 463 19 463 19 507.5 c 128,-1,26
 19 552 19 552 47.5 570 c 128,-1,27
 76 588 76 588 128 588 c 1,0,-1
139 544 m 128,-1,29
 97 544 97 544 84.5 536.5 c 128,-1,30
 72 529 72 529 72 507 c 128,-1,31
 72 485 72 485 79.5 478 c 128,-1,32
 87 471 87 471 107.5 471 c 128,-1,33
 128 471 128 471 155.5 477.5 c 128,-1,34
 183 484 183 484 192 494 c 1,35,-1
 192 543 l 1,36,28
 181 544 181 544 139 544 c 128,-1,29
EndSplineSet
EndChar

StartChar: guillemotleft
Encoding: 171 171 108
Width: 525
GlyphClass: 2
Flags: W
LayerCount: 2
Fore
SplineSet
133 279.5 m 128,-1,1
 133 266 133 266 156 243 c 2,2,-1
 267 126 l 1,3,-1
 226 88 l 1,4,-1
 64 261 l 1,5,-1
 64 299 l 1,6,-1
 225 471 l 1,7,-1
 267 435 l 1,8,-1
 156 316 l 1,9,0
 133 293 133 293 133 279.5 c 128,-1,1
319 279.5 m 128,-1,11
 319 266 319 266 342 243 c 2,12,-1
 453 126 l 1,13,-1
 412 88 l 1,14,-1
 250 261 l 1,15,-1
 250 299 l 1,16,-1
 411 471 l 1,17,-1
 453 435 l 1,18,-1
 342 316 l 1,19,10
 319 293 319 293 319 279.5 c 128,-1,11
EndSplineSet
EndChar

StartChar: logicalnot
Encoding: 172 172 109
Width: 481
GlyphClass: 2
Flags: W
LayerCount: 2
Fore
SplineSet
50 384 m 1,0,-1
 50 443 l 1,1,-1
 431 443 l 1,2,-1
 431 236 l 1,3,-1
 372 236 l 1,4,-1
 372 384 l 1,5,-1
 50 384 l 1,0,-1
EndSplineSet
EndChar

StartChar: registered
Encoding: 174 174 110
Width: 756
GlyphClass: 2
Flags: W
LayerCount: 2
Fore
SplineSet
364 264 m 1,0,-1
 346 265 l 1,1,-1
 312 265 l 1,2,-1
 312 126 l 1,3,-1
 264 126 l 1,4,-1
 264 492 l 1,5,-1
 374 492 l 2,6,7
 437 492 437 492 470.5 469.5 c 128,-1,8
 504 447 504 447 504 379 c 0,9,10
 504 287 504 287 431 270 c 1,11,-1
 521 140 l 1,12,-1
 484 114 l 1,13,-1
 378 264 l 1,14,-1
 364 264 l 1,0,-1
343 308 m 1,15,-1
 364 307 l 1,16,-1
 384 307 l 2,17,18
 425 307 425 307 439.5 320 c 128,-1,19
 454 333 454 333 454 377 c 128,-1,20
 454 421 454 421 435.5 434 c 128,-1,21
 417 447 417 447 367 447 c 2,22,-1
 312 447 l 1,23,-1
 312 308 l 1,24,-1
 343 308 l 1,15,-1
602.5 528.5 m 128,-1,26
 696 435 696 435 696 303 c 128,-1,27
 696 171 696 171 605.5 78.5 c 128,-1,28
 515 -14 515 -14 381 -14 c 128,-1,29
 247 -14 247 -14 153.5 79.5 c 128,-1,30
 60 173 60 173 60 305 c 128,-1,31
 60 437 60 437 150.5 529.5 c 128,-1,32
 241 622 241 622 375 622 c 128,-1,25
 509 622 509 622 602.5 528.5 c 128,-1,26
569.5 109.5 m 128,-1,34
 639 184 639 184 639 299.5 c 128,-1,35
 639 415 639 415 563 492.5 c 128,-1,36
 487 570 487 570 371 570 c 128,-1,37
 255 570 255 570 185.5 496.5 c 128,-1,38
 116 423 116 423 116 307 c 128,-1,39
 116 191 116 191 192 113 c 128,-1,40
 268 35 268 35 384 35 c 128,-1,33
 500 35 500 35 569.5 109.5 c 128,-1,34
EndSplineSet
EndChar

StartChar: macron
Encoding: 175 175 111
Width: 541
GlyphClass: 2
Flags: W
LayerCount: 2
Fore
SplineSet
70 657 m 1,0,-1
 70 716 l 1,1,-1
 471 716 l 1,2,-1
 471 657 l 1,3,-1
 70 657 l 1,0,-1
EndSplineSet
EndChar

StartChar: degree
Encoding: 176 176 112
Width: 280
GlyphClass: 2
Flags: W
LayerCount: 2
Fore
SplineSet
228 653 m 128,-1,1
 258 620 258 620 258 570.5 c 128,-1,2
 258 521 258 521 227.5 486 c 128,-1,3
 197 451 197 451 139 451 c 128,-1,4
 81 451 81 451 51.5 485 c 128,-1,5
 22 519 22 519 22 568.5 c 128,-1,6
 22 618 22 618 52.5 652 c 128,-1,7
 83 686 83 686 140.5 686 c 128,-1,0
 198 686 198 686 228 653 c 128,-1,1
208 570 m 128,-1,9
 208 600 208 600 191.5 621 c 128,-1,10
 175 642 175 642 140 642 c 128,-1,11
 105 642 105 642 88.5 620.5 c 128,-1,12
 72 599 72 599 72 568.5 c 128,-1,13
 72 538 72 538 88 516.5 c 128,-1,14
 104 495 104 495 139 495 c 128,-1,15
 174 495 174 495 191 517.5 c 128,-1,8
 208 540 208 540 208 570 c 128,-1,9
EndSplineSet
EndChar

StartChar: plusminus
Encoding: 177 177 113
Width: 466
GlyphClass: 2
Flags: W
LayerCount: 2
Fore
SplineSet
43 0 m 1,0,-1
 43 59 l 1,1,-1
 425 59 l 1,2,-1
 425 0 l 1,3,-1
 43 0 l 1,0,-1
204 551 m 1,4,-1
 263 551 l 1,5,-1
 263 385 l 1,6,-1
 425 385 l 1,7,-1
 425 326 l 1,8,-1
 263 326 l 1,9,-1
 263 166 l 1,10,-1
 204 166 l 1,11,-1
 204 326 l 1,12,-1
 44 326 l 1,13,-1
 44 385 l 1,14,-1
 204 385 l 1,15,-1
 204 551 l 1,4,-1
EndSplineSet
EndChar

StartChar: twosuperior
Encoding: 178 178 114
Width: 253
GlyphClass: 2
Flags: W
LayerCount: 2
Fore
SplineSet
217 452 m 1,0,-1
 217 406 l 1,1,-1
 35 406 l 1,2,-1
 35 426 l 2,3,4
 35 494 35 494 105 552 c 1,5,-1
 104 552 l 1,6,7
 135 577 135 577 144 590 c 128,-1,8
 153 603 153 603 153 622.5 c 128,-1,9
 153 642 153 642 144.5 649.5 c 128,-1,10
 136 657 136 657 112 657 c 128,-1,11
 88 657 88 657 51 640 c 1,12,-1
 36 685 l 1,13,14
 91 705 91 705 126 705 c 128,-1,15
 161 705 161 705 184 683.5 c 128,-1,16
 207 662 207 662 207 629.5 c 128,-1,17
 207 597 207 597 196.5 579 c 128,-1,18
 186 561 186 561 160 537 c 2,19,-1
 138 517 l 2,20,21
 132 511 132 511 127 507 c 128,-1,22
 122 503 122 503 120 501 c 0,23,24
 115 496 115 496 111.5 492.5 c 128,-1,25
 108 489 108 489 105 485.5 c 128,-1,26
 102 482 102 482 100.5 480 c 128,-1,27
 99 478 99 478 97 474.5 c 128,-1,28
 95 471 95 471 94 468 c 0,29,30
 90 458 90 458 88 452 c 1,31,-1
 217 452 l 1,0,-1
EndSplineSet
EndChar

StartChar: threesuperior
Encoding: 179 179 115
Width: 258
GlyphClass: 2
Flags: W
LayerCount: 2
Fore
SplineSet
60 645 m 1,0,-1
 46 686 l 1,1,2
 91 705 91 705 120 705 c 0,3,4
 204 705 204 705 206 623 c 0,5,6
 206 585 206 585 189 562 c 1,7,8
 219 528 219 528 219 486.5 c 128,-1,9
 219 445 219 445 191.5 419 c 128,-1,10
 164 393 164 393 122 393 c 128,-1,11
 80 393 80 393 33 420 c 1,12,-1
 56 464 l 1,13,14
 93 443 93 443 122 443 c 128,-1,15
 151 443 151 443 161 455 c 1,16,17
 167 466 167 466 167 488 c 0,18,19
 167 528 167 528 142 535 c 1,20,21
 133 536 133 536 110 536 c 2,22,-1
 86 536 l 1,23,-1
 86 578 l 1,24,-1
 113 578 l 1,25,26
 143 582 143 582 149 592 c 1,27,28
 155 610 155 610 155 620 c 0,29,30
 155 660 155 660 115 660 c 0,31,32
 94 660 94 660 60 645 c 1,0,-1
EndSplineSet
EndChar

StartChar: acute
Encoding: 180 180 116
Width: 351
GlyphClass: 2
Flags: W
LayerCount: 2
Fore
SplineSet
220 719 m 1,0,-1
 268 674 l 1,1,2
 226 636 226 636 172 599 c 1,3,-1
 104 571 l 1,4,5
 99 577 99 577 90 585 c 128,-1,6
 81 593 81 593 76 600 c 1,7,-1
 96 614 l 1,8,9
 157 655 157 655 179.5 677 c 128,-1,10
 202 699 202 699 220 719 c 1,0,-1
EndSplineSet
EndChar

StartChar: mu
Encoding: 181 181 117
AltUni2: 0003bc.ffffffff.0
Width: 513
GlyphClass: 2
Flags: W
LayerCount: 2
Fore
SplineSet
72 -195 m 1,0,-1
 72 492 l 1,1,-1
 137 492 l 1,2,-1
 137 141 l 1,3,4
 138 91 138 91 164.5 71 c 128,-1,5
 191 51 191 51 241.5 51 c 128,-1,6
 292 51 292 51 330.5 70 c 128,-1,7
 369 89 369 89 376 106 c 1,8,-1
 376 492 l 1,9,-1
 440 492 l 1,10,-1
 440 129 l 1,11,-1
 458 0 l 1,12,-1
 416 0 l 1,13,-1
 413 3 l 1,14,-1
 392 59 l 1,15,16
 353 33 353 33 336 22.5 c 128,-1,17
 319 12 319 12 286.5 1.5 c 128,-1,18
 254 -9 254 -9 224 -9 c 0,19,20
 166 -9 166 -9 144 11 c 1,21,-1
 137 18 l 1,22,-1
 137 -195 l 1,23,-1
 72 -195 l 1,0,-1
EndSplineSet
EndChar

StartChar: paragraph
Encoding: 182 182 118
Width: 507
GlyphClass: 2
Flags: W
LayerCount: 2
Fore
SplineSet
437 648 m 1,0,-1
 437 -82 l 1,1,-1
 371 -82 l 1,2,-1
 371 592 l 1,3,-1
 287 592 l 1,4,-1
 287 -82 l 1,5,-1
 219 -82 l 1,6,-1
 219 331 l 1,7,8
 149 331 149 331 104.5 374.5 c 128,-1,9
 60 418 60 418 60 490.5 c 128,-1,10
 60 563 60 563 102.5 605.5 c 128,-1,11
 145 648 145 648 219 648 c 2,12,-1
 437 648 l 1,0,-1
EndSplineSet
EndChar

StartChar: periodcentered
Encoding: 183 183 119
Width: 201
GlyphClass: 2
Flags: W
LayerCount: 2
Fore
SplineSet
62.5 310 m 128,-1,1
 79 324 79 324 104.5 324 c 128,-1,2
 130 324 130 324 142.5 311 c 128,-1,3
 155 298 155 298 155 266 c 0,4,5
 155 208 155 208 100.5 208 c 128,-1,6
 46 208 46 208 46 266 c 0,7,0
 46 296 46 296 62.5 310 c 128,-1,1
EndSplineSet
EndChar

StartChar: cedilla
Encoding: 184 184 120
Width: 339
GlyphClass: 2
Flags: W
LayerCount: 2
Fore
SplineSet
169 -5 m 1,0,-1
 229 -5 l 1,1,-1
 229 -64 l 1,2,-1
 187 -174 l 1,3,-1
 184 -178 l 1,4,-1
 140 -178 l 1,5,-1
 169 -64 l 1,6,-1
 169 -5 l 1,0,-1
EndSplineSet
EndChar

StartChar: onesuperior
Encoding: 185 185 121
Width: 242
GlyphClass: 2
Flags: W
LayerCount: 2
Fore
SplineSet
130 707 m 1,0,-1
 185 707 l 1,1,-1
 185 408 l 1,2,-1
 130 408 l 1,3,-1
 130 645 l 1,4,-1
 82 616 l 1,5,-1
 57 659 l 1,6,-1
 130 706 l 1,7,-1
 130 707 l 1,0,-1
EndSplineSet
EndChar

StartChar: ordmasculine
Encoding: 186 186 122
Width: 298
GlyphClass: 2
Flags: W
LayerCount: 2
Fore
SplineSet
134 668 m 0,0,1
 87 668 87 668 74 643.5 c 128,-1,2
 61 619 61 619 61 559.5 c 128,-1,3
 61 500 61 500 74.5 476.5 c 128,-1,4
 88 453 88 453 134.5 453 c 128,-1,5
 181 453 181 453 194 477.5 c 128,-1,6
 207 502 207 502 207 547.5 c 128,-1,7
 207 593 207 593 205.5 607.5 c 128,-1,8
 204 622 204 622 197.5 639 c 128,-1,9
 191 656 191 656 175.5 662 c 128,-1,10
 160 668 160 668 134 668 c 0,0,1
134 717 m 0,11,12
 207 717 207 717 235 685 c 128,-1,13
 263 653 263 653 263 566 c 128,-1,14
 263 479 263 479 225 441.5 c 128,-1,15
 187 404 187 404 134 404 c 0,16,17
 62 404 62 404 34 438 c 128,-1,18
 6 472 6 472 6 557 c 128,-1,19
 6 642 6 642 45 679.5 c 128,-1,20
 84 717 84 717 134 717 c 0,11,12
EndSplineSet
EndChar

StartChar: guillemotright
Encoding: 187 187 123
Width: 497
GlyphClass: 2
Flags: W
LayerCount: 2
Fore
SplineSet
376 279.5 m 128,-1,1
 376 293 376 293 353 316 c 1,2,-1
 242 435 l 1,3,-1
 284 471 l 1,4,-1
 445 299 l 1,5,-1
 445 261 l 1,6,-1
 283 88 l 1,7,-1
 242 126 l 1,8,-1
 353 243 l 2,9,0
 376 266 376 266 376 279.5 c 128,-1,1
190 279.5 m 128,-1,11
 190 293 190 293 167 316 c 1,12,-1
 56 435 l 1,13,-1
 98 471 l 1,14,-1
 259 299 l 1,15,-1
 259 261 l 1,16,-1
 97 88 l 1,17,-1
 56 126 l 1,18,-1
 167 243 l 2,19,10
 190 266 190 266 190 279.5 c 128,-1,11
EndSplineSet
EndChar

StartChar: onequarter
Encoding: 188 188 124
Width: 855
GlyphClass: 2
Flags: W
LayerCount: 2
Fore
SplineSet
222 6 m 1,0,-1
 549 741 l 1,1,-1
 602 718 l 1,2,-1
 276 -17 l 1,3,-1
 222 6 l 1,0,-1
720 175 m 1,4,-1
 751 175 l 1,5,-1
 751 125 l 1,6,-1
 720 125 l 1,7,-1
 720 50 l 1,8,-1
 665 50 l 1,9,-1
 665 125 l 1,10,-1
 555 125 l 1,11,-1
 555 168 l 2,12,13
 555 197 555 197 569 218 c 2,14,-1
 659 356 l 1,15,-1
 701 329 l 1,16,-1
 620 200 l 2,17,18
 609 184 609 184 609 175 c 1,19,-1
 665 175 l 1,20,-1
 665 216 l 1,21,-1
 720 216 l 1,22,-1
 720 175 l 1,4,-1
177 698 m 1,23,-1
 232 698 l 1,24,-1
 232 399 l 1,25,-1
 177 399 l 1,26,-1
 177 636 l 1,27,-1
 129 607 l 1,28,-1
 104 650 l 1,29,-1
 177 697 l 1,30,-1
 177 698 l 1,23,-1
EndSplineSet
EndChar

StartChar: onehalf
Encoding: 189 189 125
Width: 869
GlyphClass: 2
Flags: W
LayerCount: 2
Fore
SplineSet
222 6 m 1,0,-1
 549 741 l 1,1,-1
 602 718 l 1,2,-1
 276 -17 l 1,3,-1
 222 6 l 1,0,-1
752 51 m 1,4,-1
 570 51 l 1,5,-1
 570 71 l 2,6,7
 570 139 570 139 640 197 c 1,8,-1
 639 197 l 1,9,10
 670 222 670 222 679 235 c 128,-1,11
 688 248 688 248 688 267.5 c 128,-1,12
 688 287 688 287 679.5 294.5 c 128,-1,13
 671 302 671 302 647 302 c 128,-1,14
 623 302 623 302 586 285 c 1,15,-1
 571 330 l 1,16,17
 626 350 626 350 661 350 c 128,-1,18
 696 350 696 350 719 328.5 c 128,-1,19
 742 307 742 307 742 274.5 c 128,-1,20
 742 242 742 242 731.5 224 c 128,-1,21
 721 206 721 206 695 182 c 2,22,-1
 640 132 l 2,23,24
 630 122 630 122 623 97 c 1,25,-1
 752 97 l 1,26,-1
 752 51 l 1,4,-1
177 698 m 1,27,-1
 232 698 l 1,28,-1
 232 399 l 1,29,-1
 177 399 l 1,30,-1
 177 636 l 1,31,-1
 129 607 l 1,32,-1
 104 650 l 1,33,-1
 177 697 l 1,34,-1
 177 698 l 1,27,-1
EndSplineSet
EndChar

StartChar: threequarters
Encoding: 190 190 126
Width: 856
GlyphClass: 2
Flags: W
LayerCount: 2
Fore
SplineSet
222 6 m 1,0,-1
 549 741 l 1,1,-1
 602 718 l 1,2,-1
 276 -17 l 1,3,-1
 222 6 l 1,0,-1
172 592 m 1,4,5
 178 610 178 610 178 620 c 0,6,7
 178 660 178 660 138 660 c 0,8,9
 117 660 117 660 83 645 c 1,10,-1
 69 686 l 1,11,12
 114 705 114 705 143 705 c 0,13,14
 227 705 227 705 229 623 c 0,15,16
 229 585 229 585 212 562 c 1,17,18
 242 528 242 528 242 486.5 c 128,-1,19
 242 445 242 445 214.5 419 c 128,-1,20
 187 393 187 393 145 393 c 128,-1,21
 103 393 103 393 56 420 c 1,22,-1
 79 464 l 1,23,24
 116 443 116 443 145 443 c 128,-1,25
 174 443 174 443 184 455 c 1,26,27
 190 466 190 466 190 488 c 0,28,29
 190 528 190 528 165 535 c 1,30,31
 156 536 156 536 133 536 c 2,32,-1
 109 536 l 1,33,-1
 109 578 l 1,34,-1
 136 578 l 1,35,36
 166 582 166 582 172 592 c 1,4,5
720 175 m 1,37,-1
 751 175 l 1,38,-1
 751 125 l 1,39,-1
 720 125 l 1,40,-1
 720 50 l 1,41,-1
 665 50 l 1,42,-1
 665 125 l 1,43,-1
 555 125 l 1,44,-1
 555 168 l 2,45,46
 555 197 555 197 569 218 c 2,47,-1
 659 356 l 1,48,-1
 701 329 l 1,49,-1
 620 200 l 2,50,51
 609 184 609 184 609 175 c 1,52,-1
 665 175 l 1,53,-1
 665 216 l 1,54,-1
 720 216 l 1,55,-1
 720 175 l 1,37,-1
EndSplineSet
EndChar

StartChar: questiondown
Encoding: 191 191 127
Width: 425
GlyphClass: 2
Flags: W
LayerCount: 2
Fore
SplineSet
339 -116 m 1,0,-1
 353 -170 l 1,1,2
 285 -177 285 -177 228 -177 c 0,3,4
 194 -177 194 -177 172 -172.5 c 128,-1,5
 150 -168 150 -168 125 -159.5 c 128,-1,6
 100 -151 100 -151 84.5 -136 c 128,-1,7
 69 -121 69 -121 56 -100 c 0,8,9
 30 -59 30 -59 30 23 c 0,10,11
 30 95 30 95 62 132 c 1,12,13
 80 151 80 151 91.5 160 c 128,-1,14
 103 169 103 169 119.5 179.5 c 128,-1,15
 136 190 136 190 157 202 c 128,-1,16
 178 214 178 214 192 228 c 1,17,18
 214 247 214 247 214 292 c 1,19,-1
 216 356 l 1,20,-1
 272 356 l 1,21,22
 274 324 274 324 274 275 c 0,23,24
 274 204 274 204 211 165 c 0,25,26
 185 149 185 149 159 133 c 128,-1,27
 133 117 133 117 114.5 90.5 c 128,-1,28
 96 64 96 64 96 13.5 c 128,-1,29
 96 -37 96 -37 117 -66 c 0,30,31
 128 -81 128 -81 139.5 -92.5 c 128,-1,32
 151 -104 151 -104 169.5 -109.5 c 128,-1,33
 188 -115 188 -115 201.5 -118.5 c 128,-1,34
 215 -122 215 -122 256 -122 c 128,-1,35
 297 -122 297 -122 339 -116 c 1,0,-1
209 504 m 1,36,-1
 281 504 l 1,37,-1
 281 430 l 1,38,-1
 209 430 l 1,39,-1
 209 504 l 1,36,-1
EndSplineSet
EndChar

StartChar: Agrave
Encoding: 192 192 128
Width: 538
GlyphClass: 2
Flags: W
LayerCount: 2
Fore
SplineSet
224 648 m 1,0,-1
 314 648 l 1,1,-1
 533 0 l 1,2,-1
 462 0 l 1,3,-1
 395 201 l 1,4,-1
 143 201 l 1,5,-1
 76 0 l 1,6,-1
 5 0 l 1,7,-1
 224 648 l 1,0,-1
161 257 m 1,8,-1
 378 257 l 1,9,-1
 272 593 l 1,10,-1
 269 593 l 1,11,-1
 161 257 l 1,8,-1
173 827 m 1,12,-1
 221 872 l 1,13,14
 259 830 259 830 284 811 c 0,15,16
 319 784 319 784 344 767 c 2,17,-1
 365 753 l 1,18,19
 360 746 360 746 351 738 c 128,-1,20
 342 730 342 730 337 724 c 1,21,-1
 269 752 l 1,22,23
 215 789 215 789 173 827 c 1,12,-1
EndSplineSet
EndChar

StartChar: Aacute
Encoding: 193 193 129
Width: 538
GlyphClass: 2
Flags: W
LayerCount: 2
Fore
SplineSet
224 648 m 1,0,-1
 314 648 l 1,1,-1
 533 0 l 1,2,-1
 462 0 l 1,3,-1
 395 201 l 1,4,-1
 143 201 l 1,5,-1
 76 0 l 1,6,-1
 5 0 l 1,7,-1
 224 648 l 1,0,-1
161 257 m 1,8,-1
 378 257 l 1,9,-1
 272 593 l 1,10,-1
 269 593 l 1,11,-1
 161 257 l 1,8,-1
317 875 m 1,12,-1
 365 830 l 1,13,14
 323 792 323 792 269 755 c 1,15,-1
 201 727 l 1,16,17
 196 733 196 733 187 741 c 128,-1,18
 178 749 178 749 173 756 c 1,19,-1
 194 770 l 2,20,21
 254 811 254 811 276.5 833 c 128,-1,22
 299 855 299 855 317 875 c 1,12,-1
EndSplineSet
EndChar

StartChar: Acircumflex
Encoding: 194 194 130
Width: 538
GlyphClass: 2
Flags: W
LayerCount: 2
Fore
SplineSet
224 648 m 1,0,-1
 314 648 l 1,1,-1
 533 0 l 1,2,-1
 462 0 l 1,3,-1
 395 201 l 1,4,-1
 143 201 l 1,5,-1
 76 0 l 1,6,-1
 5 0 l 1,7,-1
 224 648 l 1,0,-1
161 257 m 1,8,-1
 378 257 l 1,9,-1
 272 593 l 1,10,-1
 269 593 l 1,11,-1
 161 257 l 1,8,-1
269 830 m 1,12,-1
 163 743 l 1,13,-1
 135 773 l 1,14,-1
 239 879 l 1,15,-1
 299 879 l 1,16,-1
 403 773 l 1,17,-1
 374 743 l 1,18,-1
 269 830 l 1,12,-1
EndSplineSet
EndChar

StartChar: Atilde
Encoding: 195 195 131
Width: 538
GlyphClass: 2
Flags: W
LayerCount: 2
Fore
SplineSet
224 648 m 1,0,-1
 314 648 l 1,1,-1
 533 0 l 1,2,-1
 462 0 l 1,3,-1
 395 201 l 1,4,-1
 143 201 l 1,5,-1
 76 0 l 1,6,-1
 5 0 l 1,7,-1
 224 648 l 1,0,-1
161 257 m 1,8,-1
 378 257 l 1,9,-1
 272 593 l 1,10,-1
 269 593 l 1,11,-1
 161 257 l 1,8,-1
370 752 m 2,12,13
 351 737 351 737 342 735.5 c 128,-1,14
 333 734 333 734 324.5 734 c 128,-1,15
 316 734 316 734 298 739 c 2,16,-1
 213 759 l 1,17,-1
 138 727 l 1,18,-1
 120 755 l 1,19,-1
 162 790 l 2,20,21
 183 808 183 808 190.5 809.5 c 128,-1,22
 198 811 198 811 205.5 811 c 128,-1,23
 213 811 213 811 230 807 c 2,24,-1
 325 785 l 1,25,-1
 399 820 l 1,26,-1
 417 791 l 1,27,-1
 370 752 l 2,12,13
EndSplineSet
EndChar

StartChar: Adieresis
Encoding: 196 196 132
Width: 538
GlyphClass: 2
Flags: W
LayerCount: 2
Fore
SplineSet
224 648 m 1,0,-1
 314 648 l 1,1,-1
 533 0 l 1,2,-1
 462 0 l 1,3,-1
 395 201 l 1,4,-1
 143 201 l 1,5,-1
 76 0 l 1,6,-1
 5 0 l 1,7,-1
 224 648 l 1,0,-1
161 257 m 1,8,-1
 378 257 l 1,9,-1
 272 593 l 1,10,-1
 269 593 l 1,11,-1
 161 257 l 1,8,-1
160 814 m 1,12,-1
 232 814 l 1,13,-1
 232 740 l 1,14,-1
 160 740 l 1,15,-1
 160 814 l 1,12,-1
306 814 m 1,16,-1
 378 814 l 1,17,-1
 378 740 l 1,18,-1
 306 740 l 1,19,-1
 306 814 l 1,16,-1
EndSplineSet
EndChar

StartChar: Aring
Encoding: 197 197 133
Width: 538
GlyphClass: 2
Flags: W
LayerCount: 2
Fore
SplineSet
224 648 m 1,0,-1
 314 648 l 1,1,-1
 533 0 l 1,2,-1
 462 0 l 1,3,-1
 395 201 l 1,4,-1
 143 201 l 1,5,-1
 76 0 l 1,6,-1
 5 0 l 1,7,-1
 224 648 l 1,0,-1
161 257 m 1,8,-1
 378 257 l 1,9,-1
 272 593 l 1,10,-1
 269 593 l 1,11,-1
 161 257 l 1,8,-1
366 826 m 128,-1,13
 366 786 366 786 340.5 757 c 128,-1,14
 315 728 315 728 268 728 c 128,-1,15
 221 728 221 728 196.5 756 c 128,-1,16
 172 784 172 784 172 824.5 c 128,-1,17
 172 865 172 865 197 893 c 128,-1,18
 222 921 222 921 269.5 921 c 128,-1,19
 317 921 317 921 341.5 893.5 c 128,-1,12
 366 866 366 866 366 826 c 128,-1,13
312 781.5 m 128,-1,21
 327 801 327 801 327 825.5 c 128,-1,22
 327 850 327 850 312.5 868.5 c 128,-1,23
 298 887 298 887 269.5 887 c 128,-1,24
 241 887 241 887 226 868.5 c 128,-1,25
 211 850 211 850 211 825 c 128,-1,26
 211 800 211 800 225 781 c 128,-1,27
 239 762 239 762 268 762 c 128,-1,20
 297 762 297 762 312 781.5 c 128,-1,21
EndSplineSet
EndChar

StartChar: AE
Encoding: 198 198 134
Width: 1068
GlyphClass: 2
Flags: W
LayerCount: 2
Fore
SplineSet
380 0 m 1,0,-1
 380 201 l 1,1,-1
 181 201 l 1,2,-1
 78 0 l 1,3,-1
 7 0 l 1,4,-1
 336 648 l 1,5,-1
 424 648 l 1,6,-1
 425 0 l 1,7,-1
 380 0 l 1,0,-1
380 257 m 1,8,-1
 380 595 l 1,9,-1
 208 257 l 1,10,-1
 380 257 l 1,8,-1
748 0 m 1,11,-1
 380 0 l 1,12,-1
 380 648 l 1,13,-1
 737 648 l 1,14,-1
 730 592 l 1,15,-1
 447 592 l 1,16,-1
 447 363 l 1,17,-1
 697 363 l 1,18,-1
 697 307 l 1,19,-1
 446 307 l 1,20,-1
 446 56 l 1,21,-1
 748 56 l 1,22,-1
 748 0 l 1,11,-1
EndSplineSet
EndChar

StartChar: Ccedilla
Encoding: 199 199 135
Width: 583
GlyphClass: 2
Flags: W
LayerCount: 2
Fore
SplineSet
284 653.5 m 128,-1,1
 248 647 248 647 206 625.5 c 128,-1,2
 164 604 164 604 134.5 569 c 128,-1,3
 105 534 105 534 85 471 c 128,-1,4
 65 408 65 408 65 322.5 c 128,-1,5
 65 237 65 237 81 174 c 128,-1,6
 97 111 97 111 120.5 76 c 128,-1,7
 144 41 144 41 181 21.5 c 128,-1,8
 218 2 218 2 251 -3.5 c 128,-1,9
 284 -9 284 -9 329 -9 c 0,10,11
 445 -9 445 -9 517 40 c 1,12,-1
 494 94 l 1,13,14
 437 60 437 60 380 56 c 0,15,16
 361 54 361 54 323.5 54 c 128,-1,17
 286 54 286 54 255 64.5 c 128,-1,18
 224 75 224 75 195 102 c 0,19,20
 135 159 135 159 135 326 c 0,21,22
 135 462 135 462 178 528 c 0,23,24
 197 557 197 557 229.5 573 c 128,-1,25
 262 589 262 589 293 593.5 c 128,-1,26
 324 598 324 598 367.5 598 c 128,-1,27
 411 598 411 598 501 580 c 1,28,-1
 517 633 l 1,29,30
 434 660 434 660 377 660 c 128,-1,0
 320 660 320 660 284 653.5 c 128,-1,1
285 -5 m 1,31,-1
 345 -5 l 1,32,-1
 345 -64 l 1,33,-1
 303 -174 l 1,34,-1
 300 -178 l 1,35,-1
 256 -178 l 1,36,-1
 285 -64 l 1,37,-1
 285 -5 l 1,31,-1
EndSplineSet
EndChar

StartChar: Egrave
Encoding: 200 200 136
Width: 530
GlyphClass: 2
Flags: W
LayerCount: 2
Fore
SplineSet
476 0 m 1,0,-1
 108 0 l 1,1,-1
 108 648 l 1,2,-1
 465 648 l 1,3,-1
 458 592 l 1,4,-1
 175 592 l 1,5,-1
 175 363 l 1,6,-1
 425 363 l 1,7,-1
 425 307 l 1,8,-1
 174 307 l 1,9,-1
 174 56 l 1,10,-1
 476 56 l 1,11,-1
 476 0 l 1,0,-1
169 827 m 1,12,-1
 217 872 l 1,13,14
 255 830 255 830 280 811 c 0,15,16
 315 784 315 784 340 767 c 2,17,-1
 361 753 l 1,18,19
 356 746 356 746 347 738 c 128,-1,20
 338 730 338 730 333 724 c 1,21,-1
 265 752 l 1,22,23
 211 789 211 789 169 827 c 1,12,-1
EndSplineSet
EndChar

StartChar: Eacute
Encoding: 201 201 137
Width: 530
GlyphClass: 2
Flags: W
LayerCount: 2
Fore
SplineSet
476 0 m 1,0,-1
 108 0 l 1,1,-1
 108 648 l 1,2,-1
 465 648 l 1,3,-1
 458 592 l 1,4,-1
 175 592 l 1,5,-1
 175 363 l 1,6,-1
 425 363 l 1,7,-1
 425 307 l 1,8,-1
 174 307 l 1,9,-1
 174 56 l 1,10,-1
 476 56 l 1,11,-1
 476 0 l 1,0,-1
313 875 m 1,12,-1
 361 830 l 1,13,14
 319 792 319 792 265 755 c 1,15,-1
 197 727 l 1,16,17
 192 733 192 733 183 741 c 128,-1,18
 174 749 174 749 169 756 c 1,19,-1
 190 770 l 2,20,21
 250 811 250 811 272.5 833 c 128,-1,22
 295 855 295 855 313 875 c 1,12,-1
EndSplineSet
EndChar

StartChar: Ecircumflex
Encoding: 202 202 138
Width: 530
GlyphClass: 2
Flags: W
LayerCount: 2
Fore
SplineSet
476 0 m 1,0,-1
 108 0 l 1,1,-1
 108 648 l 1,2,-1
 465 648 l 1,3,-1
 458 592 l 1,4,-1
 175 592 l 1,5,-1
 175 363 l 1,6,-1
 425 363 l 1,7,-1
 425 307 l 1,8,-1
 174 307 l 1,9,-1
 174 56 l 1,10,-1
 476 56 l 1,11,-1
 476 0 l 1,0,-1
265 830 m 1,12,-1
 159 743 l 1,13,-1
 131 773 l 1,14,-1
 235 879 l 1,15,-1
 295 879 l 1,16,-1
 399 773 l 1,17,-1
 370 743 l 1,18,-1
 265 830 l 1,12,-1
EndSplineSet
EndChar

StartChar: Edieresis
Encoding: 203 203 139
Width: 530
GlyphClass: 2
Flags: W
LayerCount: 2
Fore
SplineSet
476 0 m 1,0,-1
 108 0 l 1,1,-1
 108 648 l 1,2,-1
 465 648 l 1,3,-1
 458 592 l 1,4,-1
 175 592 l 1,5,-1
 175 363 l 1,6,-1
 425 363 l 1,7,-1
 425 307 l 1,8,-1
 174 307 l 1,9,-1
 174 56 l 1,10,-1
 476 56 l 1,11,-1
 476 0 l 1,0,-1
176 814 m 1,12,-1
 248 814 l 1,13,-1
 248 740 l 1,14,-1
 176 740 l 1,15,-1
 176 814 l 1,12,-1
322 814 m 1,16,-1
 394 814 l 1,17,-1
 394 740 l 1,18,-1
 322 740 l 1,19,-1
 322 814 l 1,16,-1
EndSplineSet
EndChar

StartChar: Igrave
Encoding: 204 204 140
Width: 282
GlyphClass: 2
Flags: W
LayerCount: 2
Fore
SplineSet
108 648 m 1,0,-1
 174 648 l 1,1,-1
 174 0 l 1,2,-1
 108 0 l 1,3,-1
 108 648 l 1,0,-1
40 827 m 1,4,-1
 88 872 l 1,5,6
 126 830 126 830 151 811 c 0,7,8
 186 784 186 784 212 767 c 2,9,-1
 232 753 l 1,10,11
 227 746 227 746 218 738 c 128,-1,12
 209 730 209 730 204 724 c 1,13,-1
 136 752 l 1,14,15
 82 789 82 789 40 827 c 1,4,-1
EndSplineSet
EndChar

StartChar: Iacute
Encoding: 205 205 141
Width: 282
GlyphClass: 2
Flags: W
LayerCount: 2
Fore
SplineSet
108 648 m 1,0,-1
 174 648 l 1,1,-1
 174 0 l 1,2,-1
 108 0 l 1,3,-1
 108 648 l 1,0,-1
201 875 m 1,4,-1
 249 830 l 1,5,6
 207 792 207 792 153 755 c 1,7,-1
 85 727 l 1,8,9
 80 733 80 733 71 741 c 128,-1,10
 62 749 62 749 57 756 c 1,11,-1
 78 770 l 2,12,13
 138 811 138 811 160.5 833 c 128,-1,14
 183 855 183 855 201 875 c 1,4,-1
EndSplineSet
EndChar

StartChar: Icircumflex
Encoding: 206 206 142
Width: 282
GlyphClass: 2
Flags: W
LayerCount: 2
Fore
SplineSet
108 648 m 1,0,-1
 174 648 l 1,1,-1
 174 0 l 1,2,-1
 108 0 l 1,3,-1
 108 648 l 1,0,-1
141 830 m 1,4,-1
 35 743 l 1,5,-1
 7 773 l 1,6,-1
 111 879 l 1,7,-1
 171 879 l 1,8,-1
 275 773 l 1,9,-1
 246 743 l 1,10,-1
 141 830 l 1,4,-1
EndSplineSet
EndChar

StartChar: Idieresis
Encoding: 207 207 143
Width: 282
GlyphClass: 2
Flags: W
LayerCount: 2
Fore
SplineSet
108 648 m 1,0,-1
 174 648 l 1,1,-1
 174 0 l 1,2,-1
 108 0 l 1,3,-1
 108 648 l 1,0,-1
32 814 m 1,4,-1
 104 814 l 1,5,-1
 104 740 l 1,6,-1
 32 740 l 1,7,-1
 32 814 l 1,4,-1
178 814 m 1,8,-1
 250 814 l 1,9,-1
 250 740 l 1,10,-1
 178 740 l 1,11,-1
 178 814 l 1,8,-1
EndSplineSet
EndChar

StartChar: Eth
Encoding: 208 208 144
Width: 640
GlyphClass: 2
Flags: W
LayerCount: 2
Fore
SplineSet
27 301 m 1,0,-1
 27 360 l 1,1,-1
 107 360 l 1,2,-1
 107 648 l 1,3,-1
 278 648 l 2,4,5
 339 648 339 648 380 642 c 128,-1,6
 421 636 421 636 461 616.5 c 128,-1,7
 501 597 501 597 524 563 c 0,8,9
 575 488 575 488 575 329 c 0,10,11
 575 231 575 231 549 155 c 0,12,13
 531 103 531 103 480 57 c 0,14,15
 452 31 452 31 388 12 c 0,16,17
 352 2 352 2 311.5 1 c 128,-1,18
 271 0 271 0 240 0 c 2,19,-1
 107 0 l 1,20,-1
 107 301 l 1,21,-1
 27 301 l 1,0,-1
173 58 m 1,22,-1
 240 58 l 2,23,24
 245 58 245 58 266 58 c 128,-1,25
 287 58 287 58 303.5 58.5 c 128,-1,26
 320 59 320 59 347 61 c 128,-1,27
 374 63 374 63 386.5 68 c 128,-1,28
 399 73 399 73 419 82 c 128,-1,29
 439 91 439 91 448 104.5 c 128,-1,30
 457 118 457 118 469.5 138 c 128,-1,31
 482 158 482 158 488 185 c 0,32,33
 502 258 502 258 503 336 c 128,-1,34
 504 414 504 414 493.5 464.5 c 128,-1,35
 483 515 483 515 454 542.5 c 128,-1,36
 425 570 425 570 386 578.5 c 128,-1,37
 347 587 347 587 279 587 c 2,38,-1
 173 587 l 1,39,-1
 173 360 l 1,40,-1
 394 360 l 1,41,-1
 394 301 l 1,42,-1
 173 301 l 1,43,-1
 173 58 l 1,22,-1
EndSplineSet
EndChar

StartChar: Ntilde
Encoding: 209 209 145
Width: 699
GlyphClass: 2
Flags: W
LayerCount: 2
Fore
SplineSet
522 648 m 1,0,-1
 588 648 l 1,1,-1
 588 0 l 1,2,-1
 515 0 l 1,3,-1
 173 547 l 1,4,-1
 177 453 l 1,5,-1
 177 0 l 1,6,-1
 111 0 l 1,7,-1
 111 648 l 1,8,-1
 183 648 l 1,9,-1
 525 103 l 1,10,-1
 522 199 l 1,11,-1
 522 648 l 1,0,-1
467 752 m 2,12,13
 448 737 448 737 439 735.5 c 128,-1,14
 430 734 430 734 421.5 734 c 128,-1,15
 413 734 413 734 395 739 c 2,16,-1
 310 759 l 1,17,-1
 235 727 l 1,18,-1
 217 755 l 1,19,-1
 259 790 l 2,20,21
 280 808 280 808 287.5 809.5 c 128,-1,22
 295 811 295 811 302.5 811 c 128,-1,23
 310 811 310 811 327 807 c 2,24,-1
 422 785 l 1,25,-1
 496 820 l 1,26,-1
 514 791 l 1,27,-1
 467 752 l 2,12,13
EndSplineSet
EndChar

StartChar: Ograve
Encoding: 210 210 146
Width: 658
GlyphClass: 2
Flags: W
LayerCount: 2
Fore
SplineSet
329 661 m 0,0,1
 480 661 480 661 538.5 591 c 128,-1,2
 597 521 597 521 597 329 c 0,3,4
 597 232 597 232 574 163 c 128,-1,5
 551 94 551 94 510 58 c 0,6,7
 435 -9 435 -9 329 -9 c 0,8,9
 184 -9 184 -9 134 44 c 0,10,11
 83 99 83 99 68 196 c 0,12,13
 60 252 60 252 60 335.5 c 128,-1,14
 60 419 60 419 85 487 c 128,-1,15
 110 555 110 555 151 591 c 0,16,17
 231 661 231 661 329 661 c 0,0,1
310 599 m 0,18,19
 219 599 219 599 174.5 535.5 c 128,-1,20
 130 472 130 472 130 328 c 0,21,22
 130 192 130 192 164 126 c 0,23,24
 192 71 192 71 266 58 c 0,25,26
 296 52 296 52 343 52 c 0,27,28
 437 52 437 52 482 117 c 128,-1,29
 527 182 527 182 527 329 c 0,30,31
 527 443 527 443 505 502 c 0,32,33
 492 537 492 537 468 557 c 0,34,35
 418 599 418 599 310 599 c 0,18,19
233 827 m 1,36,-1
 281 872 l 1,37,38
 319 830 319 830 344 811 c 0,39,40
 379 784 379 784 404 767 c 2,41,-1
 425 753 l 1,42,43
 420 746 420 746 411 738 c 128,-1,44
 402 730 402 730 397 724 c 1,45,-1
 329 752 l 1,46,47
 275 789 275 789 233 827 c 1,36,-1
EndSplineSet
EndChar

StartChar: Oacute
Encoding: 211 211 147
Width: 658
GlyphClass: 2
Flags: W
LayerCount: 2
Fore
SplineSet
329 661 m 0,0,1
 480 661 480 661 538.5 591 c 128,-1,2
 597 521 597 521 597 329 c 0,3,4
 597 232 597 232 574 163 c 128,-1,5
 551 94 551 94 510 58 c 0,6,7
 435 -9 435 -9 329 -9 c 0,8,9
 184 -9 184 -9 134 44 c 0,10,11
 83 99 83 99 68 196 c 0,12,13
 60 252 60 252 60 335.5 c 128,-1,14
 60 419 60 419 85 487 c 128,-1,15
 110 555 110 555 151 591 c 0,16,17
 231 661 231 661 329 661 c 0,0,1
310 599 m 0,18,19
 219 599 219 599 174.5 535.5 c 128,-1,20
 130 472 130 472 130 328 c 0,21,22
 130 192 130 192 164 126 c 0,23,24
 192 71 192 71 266 58 c 0,25,26
 296 52 296 52 343 52 c 0,27,28
 437 52 437 52 482 117 c 128,-1,29
 527 182 527 182 527 329 c 0,30,31
 527 443 527 443 505 502 c 0,32,33
 492 537 492 537 468 557 c 0,34,35
 418 599 418 599 310 599 c 0,18,19
389 875 m 1,36,-1
 437 830 l 1,37,38
 395 792 395 792 341 755 c 1,39,-1
 273 727 l 1,40,41
 268 733 268 733 259 741 c 128,-1,42
 250 749 250 749 245 756 c 1,43,-1
 266 770 l 2,44,45
 326 811 326 811 348.5 833 c 128,-1,46
 371 855 371 855 389 875 c 1,36,-1
EndSplineSet
EndChar

StartChar: Ocircumflex
Encoding: 212 212 148
Width: 658
GlyphClass: 2
Flags: W
LayerCount: 2
Fore
SplineSet
329 661 m 0,0,1
 480 661 480 661 538.5 591 c 128,-1,2
 597 521 597 521 597 329 c 0,3,4
 597 232 597 232 574 163 c 128,-1,5
 551 94 551 94 510 58 c 0,6,7
 435 -9 435 -9 329 -9 c 0,8,9
 184 -9 184 -9 134 44 c 0,10,11
 83 99 83 99 68 196 c 0,12,13
 60 252 60 252 60 335.5 c 128,-1,14
 60 419 60 419 85 487 c 128,-1,15
 110 555 110 555 151 591 c 0,16,17
 231 661 231 661 329 661 c 0,0,1
310 599 m 0,18,19
 219 599 219 599 174.5 535.5 c 128,-1,20
 130 472 130 472 130 328 c 0,21,22
 130 192 130 192 164 126 c 0,23,24
 192 71 192 71 266 58 c 0,25,26
 296 52 296 52 343 52 c 0,27,28
 437 52 437 52 482 117 c 128,-1,29
 527 182 527 182 527 329 c 0,30,31
 527 443 527 443 505 502 c 0,32,33
 492 537 492 537 468 557 c 0,34,35
 418 599 418 599 310 599 c 0,18,19
329 830 m 1,36,-1
 223 743 l 1,37,-1
 195 773 l 1,38,-1
 299 879 l 1,39,-1
 359 879 l 1,40,-1
 463 773 l 1,41,-1
 434 743 l 1,42,-1
 329 830 l 1,36,-1
EndSplineSet
EndChar

StartChar: Otilde
Encoding: 213 213 149
Width: 658
GlyphClass: 2
Flags: W
LayerCount: 2
Fore
SplineSet
329 661 m 0,0,1
 480 661 480 661 538.5 591 c 128,-1,2
 597 521 597 521 597 329 c 0,3,4
 597 232 597 232 574 163 c 128,-1,5
 551 94 551 94 510 58 c 0,6,7
 435 -9 435 -9 329 -9 c 0,8,9
 184 -9 184 -9 134 44 c 0,10,11
 83 99 83 99 68 196 c 0,12,13
 60 252 60 252 60 335.5 c 128,-1,14
 60 419 60 419 85 487 c 128,-1,15
 110 555 110 555 151 591 c 0,16,17
 231 661 231 661 329 661 c 0,0,1
310 599 m 0,18,19
 219 599 219 599 174.5 535.5 c 128,-1,20
 130 472 130 472 130 328 c 0,21,22
 130 192 130 192 164 126 c 0,23,24
 192 71 192 71 266 58 c 0,25,26
 296 52 296 52 343 52 c 0,27,28
 437 52 437 52 482 117 c 128,-1,29
 527 182 527 182 527 329 c 0,30,31
 527 443 527 443 505 502 c 0,32,33
 492 537 492 537 468 557 c 0,34,35
 418 599 418 599 310 599 c 0,18,19
430 752 m 2,36,37
 411 737 411 737 402 735.5 c 128,-1,38
 393 734 393 734 384.5 734 c 128,-1,39
 376 734 376 734 358 739 c 2,40,-1
 273 759 l 1,41,-1
 198 727 l 1,42,-1
 180 755 l 1,43,-1
 222 790 l 2,44,45
 243 808 243 808 250.5 809.5 c 128,-1,46
 258 811 258 811 265.5 811 c 128,-1,47
 273 811 273 811 290 807 c 2,48,-1
 385 785 l 1,49,-1
 459 820 l 1,50,-1
 477 791 l 1,51,-1
 430 752 l 2,36,37
EndSplineSet
EndChar

StartChar: Odieresis
Encoding: 214 214 150
Width: 658
GlyphClass: 2
Flags: W
LayerCount: 2
Fore
SplineSet
329 661 m 0,0,1
 480 661 480 661 538.5 591 c 128,-1,2
 597 521 597 521 597 329 c 0,3,4
 597 232 597 232 574 163 c 128,-1,5
 551 94 551 94 510 58 c 0,6,7
 435 -9 435 -9 329 -9 c 0,8,9
 184 -9 184 -9 134 44 c 0,10,11
 83 99 83 99 68 196 c 0,12,13
 60 252 60 252 60 335.5 c 128,-1,14
 60 419 60 419 85 487 c 128,-1,15
 110 555 110 555 151 591 c 0,16,17
 231 661 231 661 329 661 c 0,0,1
310 599 m 0,18,19
 219 599 219 599 174.5 535.5 c 128,-1,20
 130 472 130 472 130 328 c 0,21,22
 130 192 130 192 164 126 c 0,23,24
 192 71 192 71 266 58 c 0,25,26
 296 52 296 52 343 52 c 0,27,28
 437 52 437 52 482 117 c 128,-1,29
 527 182 527 182 527 329 c 0,30,31
 527 443 527 443 505 502 c 0,32,33
 492 537 492 537 468 557 c 0,34,35
 418 599 418 599 310 599 c 0,18,19
220 814 m 1,36,-1
 292 814 l 1,37,-1
 292 740 l 1,38,-1
 220 740 l 1,39,-1
 220 814 l 1,36,-1
366 814 m 1,40,-1
 438 814 l 1,41,-1
 438 740 l 1,42,-1
 366 740 l 1,43,-1
 366 814 l 1,40,-1
EndSplineSet
EndChar

StartChar: multiply
Encoding: 215 215 151
Width: 467
GlyphClass: 2
Flags: W
LayerCount: 2
Fore
SplineSet
430 150 m 1,0,-1
 389 109 l 1,1,-1
 234 264 l 1,2,-1
 78 107 l 1,3,-1
 37 148 l 1,4,-1
 191 303 l 1,5,-1
 38 457 l 1,6,-1
 79 498 l 1,7,-1
 232 345 l 1,8,-1
 386 499 l 1,9,-1
 429 460 l 1,10,-1
 275 305 l 1,11,-1
 430 150 l 1,0,-1
EndSplineSet
EndChar

StartChar: Oslash
Encoding: 216 216 152
Width: 658
GlyphClass: 2
Flags: W
LayerCount: 2
Fore
SplineSet
114 -76 m 1,0,-1
 478 743 l 1,1,-1
 531 720 l 1,2,-1
 168 -99 l 1,3,-1
 114 -76 l 1,0,-1
329 661 m 0,4,5
 480 661 480 661 538.5 591 c 128,-1,6
 597 521 597 521 597 329 c 0,7,8
 597 232 597 232 574 163 c 128,-1,9
 551 94 551 94 510 58 c 0,10,11
 435 -9 435 -9 329 -9 c 0,12,13
 184 -9 184 -9 134 44 c 0,14,15
 83 99 83 99 68 196 c 0,16,17
 60 252 60 252 60 335.5 c 128,-1,18
 60 419 60 419 85 487 c 128,-1,19
 110 555 110 555 151 591 c 0,20,21
 231 661 231 661 329 661 c 0,4,5
310 599 m 0,22,23
 219 599 219 599 174.5 535.5 c 128,-1,24
 130 472 130 472 130 328 c 0,25,26
 130 192 130 192 164 126 c 0,27,28
 192 71 192 71 266 58 c 0,29,30
 296 52 296 52 343 52 c 0,31,32
 437 52 437 52 482 117 c 128,-1,33
 527 182 527 182 527 329 c 0,34,35
 527 443 527 443 505 502 c 0,36,37
 492 537 492 537 468 557 c 0,38,39
 418 599 418 599 310 599 c 0,22,23
EndSplineSet
EndChar

StartChar: Ugrave
Encoding: 217 217 153
Width: 631
GlyphClass: 2
Flags: W
LayerCount: 2
Fore
SplineSet
319 -10 m 0,0,1
 317 -10 317 -10 305 -10 c 128,-1,2
 293 -10 293 -10 281 -9.5 c 128,-1,3
 269 -9 269 -9 244 -5.5 c 128,-1,4
 219 -2 219 -2 202 5.5 c 128,-1,5
 185 13 185 13 163.5 29 c 128,-1,6
 142 45 142 45 128 67 c 0,7,8
 96 120 96 120 96 204 c 2,9,-1
 96 648 l 1,10,-1
 163 648 l 1,11,-1
 163 204 l 1,12,13
 166 47 166 47 319 47 c 0,14,15
 384 47 384 47 427 85 c 128,-1,16
 470 123 470 123 470 200 c 2,17,-1
 470 648 l 1,18,-1
 535 648 l 1,19,-1
 534 202 l 2,20,21
 534 -10 534 -10 319 -10 c 0,0,1
219 827 m 1,22,-1
 267 872 l 1,23,24
 305 830 305 830 330 811 c 0,25,26
 365 784 365 784 390 767 c 2,27,-1
 411 753 l 1,28,29
 406 746 406 746 397 738 c 128,-1,30
 388 730 388 730 383 724 c 1,31,-1
 315 752 l 1,32,33
 261 789 261 789 219 827 c 1,22,-1
EndSplineSet
EndChar

StartChar: Uacute
Encoding: 218 218 154
Width: 631
GlyphClass: 2
Flags: W
LayerCount: 2
Fore
SplineSet
319 -10 m 0,0,1
 317 -10 317 -10 305 -10 c 128,-1,2
 293 -10 293 -10 281 -9.5 c 128,-1,3
 269 -9 269 -9 244 -5.5 c 128,-1,4
 219 -2 219 -2 202 5.5 c 128,-1,5
 185 13 185 13 163.5 29 c 128,-1,6
 142 45 142 45 128 67 c 0,7,8
 96 120 96 120 96 204 c 2,9,-1
 96 648 l 1,10,-1
 163 648 l 1,11,-1
 163 204 l 1,12,13
 166 47 166 47 319 47 c 0,14,15
 384 47 384 47 427 85 c 128,-1,16
 470 123 470 123 470 200 c 2,17,-1
 470 648 l 1,18,-1
 535 648 l 1,19,-1
 534 202 l 2,20,21
 534 -10 534 -10 319 -10 c 0,0,1
392 875 m 1,22,-1
 440 830 l 1,23,24
 398 792 398 792 344 755 c 1,25,-1
 276 727 l 1,26,27
 271 733 271 733 262 741 c 128,-1,28
 253 749 253 749 248 756 c 1,29,-1
 268 770 l 1,30,31
 329 811 329 811 351.5 833 c 128,-1,32
 374 855 374 855 392 875 c 1,22,-1
EndSplineSet
EndChar

StartChar: Ucircumflex
Encoding: 219 219 155
Width: 631
GlyphClass: 2
Flags: W
LayerCount: 2
Fore
SplineSet
319 -10 m 0,0,1
 317 -10 317 -10 305 -10 c 128,-1,2
 293 -10 293 -10 281 -9.5 c 128,-1,3
 269 -9 269 -9 244 -5.5 c 128,-1,4
 219 -2 219 -2 202 5.5 c 128,-1,5
 185 13 185 13 163.5 29 c 128,-1,6
 142 45 142 45 128 67 c 0,7,8
 96 120 96 120 96 204 c 2,9,-1
 96 648 l 1,10,-1
 163 648 l 1,11,-1
 163 204 l 1,12,13
 166 47 166 47 319 47 c 0,14,15
 384 47 384 47 427 85 c 128,-1,16
 470 123 470 123 470 200 c 2,17,-1
 470 648 l 1,18,-1
 535 648 l 1,19,-1
 534 202 l 2,20,21
 534 -10 534 -10 319 -10 c 0,0,1
315 830 m 1,22,-1
 209 743 l 1,23,-1
 181 773 l 1,24,-1
 285 879 l 1,25,-1
 345 879 l 1,26,-1
 449 773 l 1,27,-1
 420 743 l 1,28,-1
 315 830 l 1,22,-1
EndSplineSet
EndChar

StartChar: Udieresis
Encoding: 220 220 156
Width: 631
GlyphClass: 2
Flags: W
LayerCount: 2
Fore
SplineSet
319 -10 m 0,0,1
 317 -10 317 -10 305 -10 c 128,-1,2
 293 -10 293 -10 281 -9.5 c 128,-1,3
 269 -9 269 -9 244 -5.5 c 128,-1,4
 219 -2 219 -2 202 5.5 c 128,-1,5
 185 13 185 13 163.5 29 c 128,-1,6
 142 45 142 45 128 67 c 0,7,8
 96 120 96 120 96 204 c 2,9,-1
 96 648 l 1,10,-1
 163 648 l 1,11,-1
 163 204 l 1,12,13
 166 47 166 47 319 47 c 0,14,15
 384 47 384 47 427 85 c 128,-1,16
 470 123 470 123 470 200 c 2,17,-1
 470 648 l 1,18,-1
 535 648 l 1,19,-1
 534 202 l 2,20,21
 534 -10 534 -10 319 -10 c 0,0,1
206 814 m 1,22,-1
 278 814 l 1,23,-1
 278 740 l 1,24,-1
 206 740 l 1,25,-1
 206 814 l 1,22,-1
352 814 m 1,26,-1
 424 814 l 1,27,-1
 424 740 l 1,28,-1
 352 740 l 1,29,-1
 352 814 l 1,26,-1
EndSplineSet
EndChar

StartChar: Yacute
Encoding: 221 221 157
Width: 482
GlyphClass: 2
Flags: W
LayerCount: 2
Fore
SplineSet
208 0 m 1,0,-1
 208 265 l 1,1,-1
 2 648 l 1,2,-1
 76 648 l 1,3,-1
 241 324 l 1,4,-1
 409 648 l 1,5,-1
 480 648 l 1,6,-1
 275 265 l 1,7,-1
 274 0 l 1,8,-1
 208 0 l 1,0,-1
317 875 m 1,9,-1
 365 830 l 1,10,11
 323 792 323 792 269 755 c 1,12,-1
 201 727 l 1,13,14
 196 733 196 733 187 741 c 128,-1,15
 178 749 178 749 173 756 c 1,16,-1
 194 770 l 2,17,18
 254 811 254 811 276.5 833 c 128,-1,19
 299 855 299 855 317 875 c 1,9,-1
EndSplineSet
EndChar

StartChar: Thorn
Encoding: 222 222 158
Width: 612
GlyphClass: 2
Flags: W
LayerCount: 2
Fore
SplineSet
279 52 m 2,0,-1
 219 53 l 1,1,-1
 173 53 l 1,2,-1
 173 -201 l 1,3,-1
 106 -201 l 1,4,-1
 106 660 l 1,5,-1
 173 660 l 1,6,-1
 173 447 l 1,7,-1
 296 447 l 2,8,9
 349 447 349 447 385.5 440.5 c 128,-1,10
 422 434 422 434 456 414 c 0,11,12
 524 376 524 376 524 252 c 0,13,14
 524 149 524 149 475 102 c 0,15,16
 454 81 454 81 419 69.5 c 128,-1,17
 384 58 384 58 354 55 c 128,-1,18
 324 52 324 52 279 52 c 2,0,-1
239 110 m 1,19,-1
 315 109 l 1,20,21
 396 109 396 109 425 134.5 c 128,-1,22
 454 160 454 160 454 248 c 128,-1,23
 454 336 454 336 417.5 361 c 128,-1,24
 381 386 381 386 284 386 c 2,25,-1
 173 386 l 1,26,-1
 173 110 l 1,27,-1
 239 110 l 1,19,-1
EndSplineSet
EndChar

StartChar: germandbls
Encoding: 223 223 159
Width: 628
GlyphClass: 2
Flags: W
LayerCount: 2
Fore
SplineSet
82 494 m 1,0,-1
 81 572 l 1,1,2
 81 657 81 657 131.5 697.5 c 128,-1,3
 182 738 182 738 265.5 738 c 128,-1,4
 349 738 349 738 403 699 c 128,-1,5
 457 660 457 660 457 594 c 0,6,7
 457 515 457 515 405 478 c 0,8,9
 383 463 383 463 361 450 c 0,10,11
 309 418 309 418 309 370 c 0,12,13
 309 346 309 346 335.5 330.5 c 128,-1,14
 362 315 362 315 399.5 303.5 c 128,-1,15
 437 292 437 292 474.5 275.5 c 128,-1,16
 512 259 512 259 538.5 223 c 128,-1,17
 565 187 565 187 565 136 c 128,-1,18
 565 85 565 85 534 52 c 0,19,20
 479 -8 479 -8 377 -8 c 0,21,22
 298 -8 298 -8 233 19 c 1,23,-1
 248 68 l 1,24,25
 310 44 310 44 364 44 c 128,-1,26
 418 44 418 44 456.5 66.5 c 128,-1,27
 495 89 495 89 495 132 c 128,-1,28
 495 175 495 175 469 201 c 128,-1,29
 443 227 443 227 406 239.5 c 128,-1,30
 369 252 369 252 332.5 264 c 128,-1,31
 296 276 296 276 270 301 c 128,-1,32
 244 326 244 326 244 365.5 c 128,-1,33
 244 405 244 405 259 432.5 c 128,-1,34
 274 460 274 460 295 475.5 c 128,-1,35
 316 491 316 491 338 504 c 1,36,37
 389 537 389 537 389 583 c 128,-1,38
 389 629 389 629 353.5 658.5 c 128,-1,39
 318 688 318 688 263.5 688 c 128,-1,40
 209 688 209 688 176.5 660 c 128,-1,41
 144 632 144 632 144 572 c 2,42,-1
 144 -74 l 1,43,-1
 109 -198 l 1,44,-1
 106 -201 l 1,45,-1
 60 -201 l 1,46,-1
 82 -74 l 1,47,-1
 82 438 l 2,48,49
 82 443 82 443 69 443 c 2,50,-1
 35 443 l 1,51,-1
 36 472 l 1,52,53
 77 491 77 491 82 493 c 1,54,-1
 82 494 l 1,0,-1
EndSplineSet
EndChar

StartChar: agrave
Encoding: 224 224 160
Width: 486
GlyphClass: 2
Flags: W
LayerCount: 2
Fore
SplineSet
412 299 m 1,0,-1
 411 180 l 2,1,2
 411 152 411 152 412 128 c 1,3,-1
 434 6 l 1,4,-1
 435 1 l 1,5,-1
 391 1 l 1,6,-1
 387 4 l 1,7,-1
 363 62 l 1,8,9
 270 -2 270 -2 180 -5 c 1,10,11
 117 -5 117 -5 83.5 28.5 c 128,-1,12
 50 62 50 62 50 123 c 0,13,14
 50 207 50 207 97 237 c 128,-1,15
 144 267 144 267 226 267 c 0,16,17
 236 267 236 267 347 261 c 1,18,-1
 347 326 l 2,19,20
 347 392 347 392 322.5 417.5 c 128,-1,21
 298 443 298 443 254 443 c 128,-1,22
 210 443 210 443 84 416 c 1,23,-1
 75 464 l 1,24,25
 199 501 199 501 253 501 c 0,26,27
 335 501 335 501 383 450 c 0,28,29
 412 419 412 419 412 299 c 1,0,-1
347 211 m 1,30,-1
 242 215 l 1,31,32
 162 215 162 215 138 199 c 128,-1,33
 114 183 114 183 114 135.5 c 128,-1,34
 114 88 114 88 130 70.5 c 128,-1,35
 146 53 146 53 185.5 53 c 128,-1,36
 225 53 225 53 278.5 69 c 128,-1,37
 332 85 332 85 347 106 c 1,38,-1
 347 211 l 1,30,-1
147 671 m 1,39,-1
 195 716 l 1,40,41
 233 674 233 674 258 655 c 0,42,43
 293 628 293 628 318 611 c 2,44,-1
 339 597 l 1,45,46
 334 590 334 590 325 582 c 128,-1,47
 316 574 316 574 311 568 c 1,48,-1
 243 596 l 1,49,50
 189 633 189 633 147 671 c 1,39,-1
EndSplineSet
EndChar

StartChar: aacute
Encoding: 225 225 161
Width: 486
GlyphClass: 2
Flags: W
LayerCount: 2
Fore
SplineSet
412 299 m 1,0,-1
 411 180 l 2,1,2
 411 152 411 152 412 128 c 1,3,-1
 434 6 l 1,4,-1
 435 1 l 1,5,-1
 391 1 l 1,6,-1
 387 4 l 1,7,-1
 363 62 l 1,8,9
 270 -2 270 -2 180 -5 c 1,10,11
 117 -5 117 -5 83.5 28.5 c 128,-1,12
 50 62 50 62 50 123 c 0,13,14
 50 207 50 207 97 237 c 128,-1,15
 144 267 144 267 226 267 c 0,16,17
 236 267 236 267 347 261 c 1,18,-1
 347 326 l 2,19,20
 347 392 347 392 322.5 417.5 c 128,-1,21
 298 443 298 443 254 443 c 128,-1,22
 210 443 210 443 84 416 c 1,23,-1
 75 464 l 1,24,25
 199 501 199 501 253 501 c 0,26,27
 335 501 335 501 383 450 c 0,28,29
 412 419 412 419 412 299 c 1,0,-1
347 211 m 1,30,-1
 242 215 l 1,31,32
 162 215 162 215 138 199 c 128,-1,33
 114 183 114 183 114 135.5 c 128,-1,34
 114 88 114 88 130 70.5 c 128,-1,35
 146 53 146 53 185.5 53 c 128,-1,36
 225 53 225 53 278.5 69 c 128,-1,37
 332 85 332 85 347 106 c 1,38,-1
 347 211 l 1,30,-1
291 719 m 1,39,-1
 339 674 l 1,40,41
 297 636 297 636 243 599 c 1,42,-1
 175 571 l 1,43,44
 170 577 170 577 161 585 c 128,-1,45
 152 593 152 593 147 600 c 1,46,-1
 168 614 l 2,47,48
 228 655 228 655 250.5 677 c 128,-1,49
 273 699 273 699 291 719 c 1,39,-1
EndSplineSet
EndChar

StartChar: acircumflex
Encoding: 226 226 162
Width: 486
GlyphClass: 2
Flags: W
LayerCount: 2
Fore
SplineSet
412 299 m 1,0,-1
 411 180 l 2,1,2
 411 152 411 152 412 128 c 1,3,-1
 434 6 l 1,4,-1
 435 1 l 1,5,-1
 391 1 l 1,6,-1
 387 4 l 1,7,-1
 363 62 l 1,8,9
 270 -2 270 -2 180 -5 c 1,10,11
 117 -5 117 -5 83.5 28.5 c 128,-1,12
 50 62 50 62 50 123 c 0,13,14
 50 207 50 207 97 237 c 128,-1,15
 144 267 144 267 226 267 c 0,16,17
 236 267 236 267 347 261 c 1,18,-1
 347 326 l 2,19,20
 347 392 347 392 322.5 417.5 c 128,-1,21
 298 443 298 443 254 443 c 128,-1,22
 210 443 210 443 84 416 c 1,23,-1
 75 464 l 1,24,25
 199 501 199 501 253 501 c 0,26,27
 335 501 335 501 383 450 c 0,28,29
 412 419 412 419 412 299 c 1,0,-1
347 211 m 1,30,-1
 242 215 l 1,31,32
 162 215 162 215 138 199 c 128,-1,33
 114 183 114 183 114 135.5 c 128,-1,34
 114 88 114 88 130 70.5 c 128,-1,35
 146 53 146 53 185.5 53 c 128,-1,36
 225 53 225 53 278.5 69 c 128,-1,37
 332 85 332 85 347 106 c 1,38,-1
 347 211 l 1,30,-1
243 674 m 1,39,-1
 137 587 l 1,40,-1
 109 617 l 1,41,-1
 213 723 l 1,42,-1
 273 723 l 1,43,-1
 377 617 l 1,44,-1
 348 587 l 1,45,-1
 243 674 l 1,39,-1
EndSplineSet
EndChar

StartChar: atilde
Encoding: 227 227 163
Width: 486
GlyphClass: 2
Flags: W
LayerCount: 2
Fore
SplineSet
412 299 m 1,0,-1
 411 180 l 2,1,2
 411 152 411 152 412 128 c 1,3,-1
 434 6 l 1,4,-1
 435 1 l 1,5,-1
 391 1 l 1,6,-1
 387 4 l 1,7,-1
 363 62 l 1,8,9
 270 -2 270 -2 180 -5 c 1,10,11
 117 -5 117 -5 83.5 28.5 c 128,-1,12
 50 62 50 62 50 123 c 0,13,14
 50 207 50 207 97 237 c 128,-1,15
 144 267 144 267 226 267 c 0,16,17
 236 267 236 267 347 261 c 1,18,-1
 347 326 l 2,19,20
 347 392 347 392 322.5 417.5 c 128,-1,21
 298 443 298 443 254 443 c 128,-1,22
 210 443 210 443 84 416 c 1,23,-1
 75 464 l 1,24,25
 199 501 199 501 253 501 c 0,26,27
 335 501 335 501 383 450 c 0,28,29
 412 419 412 419 412 299 c 1,0,-1
347 211 m 1,30,-1
 242 215 l 1,31,32
 162 215 162 215 138 199 c 128,-1,33
 114 183 114 183 114 135.5 c 128,-1,34
 114 88 114 88 130 70.5 c 128,-1,35
 146 53 146 53 185.5 53 c 128,-1,36
 225 53 225 53 278.5 69 c 128,-1,37
 332 85 332 85 347 106 c 1,38,-1
 347 211 l 1,30,-1
344 596 m 2,39,40
 325 581 325 581 316 579.5 c 128,-1,41
 307 578 307 578 298.5 578 c 128,-1,42
 290 578 290 578 272 583 c 2,43,-1
 187 603 l 1,44,-1
 112 571 l 1,45,-1
 94 599 l 1,46,-1
 136 634 l 2,47,48
 157 652 157 652 164.5 653.5 c 128,-1,49
 172 655 172 655 179.5 655 c 128,-1,50
 187 655 187 655 204 651 c 2,51,-1
 299 629 l 1,52,-1
 373 664 l 1,53,-1
 391 635 l 1,54,-1
 344 596 l 2,39,40
EndSplineSet
EndChar

StartChar: adieresis
Encoding: 228 228 164
Width: 486
GlyphClass: 2
Flags: W
LayerCount: 2
Fore
SplineSet
412 299 m 1,0,-1
 411 180 l 2,1,2
 411 152 411 152 412 128 c 1,3,-1
 434 6 l 1,4,-1
 435 1 l 1,5,-1
 391 1 l 1,6,-1
 387 4 l 1,7,-1
 363 62 l 1,8,9
 270 -2 270 -2 180 -5 c 1,10,11
 117 -5 117 -5 83.5 28.5 c 128,-1,12
 50 62 50 62 50 123 c 0,13,14
 50 207 50 207 97 237 c 128,-1,15
 144 267 144 267 226 267 c 0,16,17
 236 267 236 267 347 261 c 1,18,-1
 347 326 l 2,19,20
 347 392 347 392 322.5 417.5 c 128,-1,21
 298 443 298 443 254 443 c 128,-1,22
 210 443 210 443 84 416 c 1,23,-1
 75 464 l 1,24,25
 199 501 199 501 253 501 c 0,26,27
 335 501 335 501 383 450 c 0,28,29
 412 419 412 419 412 299 c 1,0,-1
347 211 m 1,30,-1
 242 215 l 1,31,32
 162 215 162 215 138 199 c 128,-1,33
 114 183 114 183 114 135.5 c 128,-1,34
 114 88 114 88 130 70.5 c 128,-1,35
 146 53 146 53 185.5 53 c 128,-1,36
 225 53 225 53 278.5 69 c 128,-1,37
 332 85 332 85 347 106 c 1,38,-1
 347 211 l 1,30,-1
136 658 m 1,39,-1
 208 658 l 1,40,-1
 208 584 l 1,41,-1
 136 584 l 1,42,-1
 136 658 l 1,39,-1
282 658 m 1,43,-1
 354 658 l 1,44,-1
 354 584 l 1,45,-1
 282 584 l 1,46,-1
 282 658 l 1,43,-1
EndSplineSet
EndChar

StartChar: aring
Encoding: 229 229 165
Width: 486
GlyphClass: 2
Flags: W
LayerCount: 2
Fore
SplineSet
412 299 m 1,0,-1
 411 180 l 2,1,2
 411 152 411 152 412 128 c 1,3,-1
 434 6 l 1,4,-1
 435 1 l 1,5,-1
 391 1 l 1,6,-1
 387 4 l 1,7,-1
 363 62 l 1,8,9
 270 -2 270 -2 180 -5 c 1,10,11
 117 -5 117 -5 83.5 28.5 c 128,-1,12
 50 62 50 62 50 123 c 0,13,14
 50 207 50 207 97 237 c 128,-1,15
 144 267 144 267 226 267 c 0,16,17
 236 267 236 267 347 261 c 1,18,-1
 347 326 l 2,19,20
 347 392 347 392 322.5 417.5 c 128,-1,21
 298 443 298 443 254 443 c 128,-1,22
 210 443 210 443 84 416 c 1,23,-1
 75 464 l 1,24,25
 199 501 199 501 253 501 c 0,26,27
 335 501 335 501 383 450 c 0,28,29
 412 419 412 419 412 299 c 1,0,-1
347 211 m 1,30,-1
 242 215 l 1,31,32
 162 215 162 215 138 199 c 128,-1,33
 114 183 114 183 114 135.5 c 128,-1,34
 114 88 114 88 130 70.5 c 128,-1,35
 146 53 146 53 185.5 53 c 128,-1,36
 225 53 225 53 278.5 69 c 128,-1,37
 332 85 332 85 347 106 c 1,38,-1
 347 211 l 1,30,-1
340 670 m 128,-1,40
 340 630 340 630 314.5 601 c 128,-1,41
 289 572 289 572 242 572 c 128,-1,42
 195 572 195 572 170.5 600 c 128,-1,43
 146 628 146 628 146 668.5 c 128,-1,44
 146 709 146 709 171 737 c 128,-1,45
 196 765 196 765 243.5 765 c 128,-1,46
 291 765 291 765 315.5 737.5 c 128,-1,39
 340 710 340 710 340 670 c 128,-1,40
286 625.5 m 128,-1,48
 301 645 301 645 301 669.5 c 128,-1,49
 301 694 301 694 286.5 712.5 c 128,-1,50
 272 731 272 731 243.5 731 c 128,-1,51
 215 731 215 731 200 712.5 c 128,-1,52
 185 694 185 694 185 669 c 128,-1,53
 185 644 185 644 199 625 c 128,-1,54
 213 606 213 606 242 606 c 128,-1,47
 271 606 271 606 286 625.5 c 128,-1,48
EndSplineSet
EndChar

StartChar: ae
Encoding: 230 230 166
Width: 979
GlyphClass: 2
Flags: W
LayerCount: 2
Fore
SplineSet
489 299 m 1,0,-1
 488 180 l 2,1,2
 488 152 488 152 489 128 c 2,3,-1
 490 100 l 1,4,5
 477 87 477 87 448.5 66.5 c 128,-1,6
 420 46 420 46 394 32 c 0,7,8
 327 -3 327 -3 260.5 -4 c 128,-1,9
 194 -5 194 -5 160.5 28.5 c 128,-1,10
 127 62 127 62 127 123 c 0,11,12
 127 207 127 207 174 237 c 128,-1,13
 221 267 221 267 303 267 c 0,14,15
 313 267 313 267 424 261 c 1,16,-1
 424 326 l 2,17,18
 424 392 424 392 399.5 417.5 c 128,-1,19
 375 443 375 443 331 443 c 128,-1,20
 287 443 287 443 161 416 c 1,21,-1
 152 464 l 1,22,23
 276 501 276 501 330 501 c 0,24,25
 412 501 412 501 460 450 c 0,26,27
 489 419 489 419 489 299 c 1,0,-1
424 211 m 1,28,-1
 319 215 l 1,29,30
 239 215 239 215 215 199 c 128,-1,31
 191 183 191 183 191 135.5 c 128,-1,32
 191 88 191 88 207 70.5 c 128,-1,33
 223 53 223 53 270 53 c 128,-1,34
 317 53 317 53 364.5 71.5 c 128,-1,35
 412 90 412 90 431 108 c 2,36,-1
 450 127 l 1,37,-1
 424 211 l 1,28,-1
810 321 m 0,38,39
 810 285 810 285 804 246 c 1,40,-1
 490 246 l 1,41,42
 494 136 494 136 527 94.5 c 128,-1,43
 560 53 560 53 644 53 c 0,44,45
 707 53 707 53 791 80 c 1,46,-1
 797 30 l 1,47,48
 774 21 774 21 761.5 17.5 c 128,-1,49
 749 14 749 14 735 9.5 c 128,-1,50
 721 5 721 5 714 3 c 128,-1,51
 707 1 707 1 694 -2 c 128,-1,52
 681 -5 681 -5 672 -6 c 0,53,54
 645 -9 645 -9 626 -9 c 0,55,56
 532 -9 532 -9 478 57 c 128,-1,57
 424 123 424 123 424 241 c 0,58,59
 424 306 424 306 440 355.5 c 128,-1,60
 456 405 456 405 478 431.5 c 128,-1,61
 500 458 500 458 531 474 c 0,62,63
 577 499 577 499 631 501 c 1,64,65
 810 500 810 500 810 321 c 0,38,39
747 337 m 0,66,67
 747 397 747 397 717 421 c 128,-1,68
 687 445 687 445 628 445 c 128,-1,69
 569 445 569 445 531 413.5 c 128,-1,70
 493 382 493 382 492 297 c 1,71,-1
 744 297 l 1,72,73
 747 320 747 320 747 337 c 0,66,67
EndSplineSet
EndChar

StartChar: ccedilla
Encoding: 231 231 167
Width: 443
GlyphClass: 2
Flags: W
LayerCount: 2
Fore
SplineSet
215 490 m 128,-1,1
 179 479 179 479 141.5 453 c 128,-1,2
 104 427 104 427 81 373.5 c 128,-1,3
 58 320 58 320 58 245 c 0,4,5
 58 85 58 85 128 33 c 0,6,7
 161 8 161 8 194.5 -1 c 128,-1,8
 228 -10 228 -10 273 -10 c 0,9,10
 360 -10 360 -10 425 37 c 1,11,-1
 398 79 l 1,12,13
 340 43 340 43 289 43 c 0,14,15
 125 43 125 43 125 245 c 0,16,17
 125 360 125 360 170 404.5 c 128,-1,18
 215 449 215 449 301 449 c 0,19,20
 334 449 334 449 389 438 c 1,21,-1
 397 482 l 1,22,23
 342 501 342 501 296.5 501 c 128,-1,0
 251 501 251 501 215 490 c 128,-1,1
222 -5 m 1,24,-1
 282 -5 l 1,25,-1
 282 -64 l 1,26,-1
 240 -174 l 1,27,-1
 237 -178 l 1,28,-1
 193 -178 l 1,29,-1
 222 -64 l 1,30,-1
 222 -5 l 1,24,-1
EndSplineSet
EndChar

StartChar: egrave
Encoding: 232 232 168
Width: 493
GlyphClass: 2
Flags: W
LayerCount: 2
Fore
SplineSet
432 321 m 0,0,1
 432 285 432 285 426 246 c 1,2,-1
 112 246 l 1,3,4
 116 136 116 136 149 94.5 c 128,-1,5
 182 53 182 53 266 53 c 0,6,7
 329 53 329 53 413 80 c 1,8,-1
 419 30 l 1,9,10
 396 21 396 21 383.5 17.5 c 128,-1,11
 371 14 371 14 357 9.5 c 128,-1,12
 343 5 343 5 336 3 c 128,-1,13
 329 1 329 1 316 -2 c 128,-1,14
 303 -5 303 -5 294 -6 c 0,15,16
 267 -9 267 -9 248 -9 c 0,17,18
 154 -9 154 -9 100 57 c 128,-1,19
 46 123 46 123 46 241 c 0,20,21
 46 306 46 306 62 355.5 c 128,-1,22
 78 405 78 405 100 431.5 c 128,-1,23
 122 458 122 458 153 474 c 0,24,25
 199 499 199 499 253 501 c 1,26,27
 432 500 432 500 432 321 c 0,0,1
369 337 m 0,28,29
 369 397 369 397 339 421 c 128,-1,30
 309 445 309 445 250 445 c 128,-1,31
 191 445 191 445 153 413.5 c 128,-1,32
 115 382 115 382 114 297 c 1,33,-1
 366 297 l 1,34,35
 369 320 369 320 369 337 c 0,28,29
150 671 m 1,36,-1
 198 716 l 1,37,38
 236 674 236 674 261 655 c 0,39,40
 296 628 296 628 322 611 c 2,41,-1
 342 597 l 1,42,43
 337 590 337 590 328 582 c 128,-1,44
 319 574 319 574 314 568 c 1,45,-1
 246 596 l 1,46,47
 192 633 192 633 150 671 c 1,36,-1
EndSplineSet
EndChar

StartChar: eacute
Encoding: 233 233 169
Width: 489
GlyphClass: 2
Flags: W
LayerCount: 2
Fore
SplineSet
432 321 m 0,0,1
 432 285 432 285 426 246 c 1,2,-1
 112 246 l 1,3,4
 116 136 116 136 149 94.5 c 128,-1,5
 182 53 182 53 266 53 c 0,6,7
 329 53 329 53 413 80 c 1,8,-1
 419 30 l 1,9,10
 396 21 396 21 383.5 17.5 c 128,-1,11
 371 14 371 14 357 9.5 c 128,-1,12
 343 5 343 5 336 3 c 128,-1,13
 329 1 329 1 316 -2 c 128,-1,14
 303 -5 303 -5 294 -6 c 0,15,16
 267 -9 267 -9 248 -9 c 0,17,18
 154 -9 154 -9 100 57 c 128,-1,19
 46 123 46 123 46 241 c 0,20,21
 46 306 46 306 62 355.5 c 128,-1,22
 78 405 78 405 100 431.5 c 128,-1,23
 122 458 122 458 153 474 c 0,24,25
 199 499 199 499 253 501 c 1,26,27
 432 500 432 500 432 321 c 0,0,1
369 337 m 0,28,29
 369 397 369 397 339 421 c 128,-1,30
 309 445 309 445 250 445 c 128,-1,31
 191 445 191 445 153 413.5 c 128,-1,32
 115 382 115 382 114 297 c 1,33,-1
 366 297 l 1,34,35
 369 320 369 320 369 337 c 0,28,29
317 719 m 1,36,-1
 365 674 l 1,37,38
 323 636 323 636 269 599 c 1,39,-1
 201 571 l 1,40,41
 196 577 196 577 187 585 c 128,-1,42
 178 593 178 593 173 600 c 1,43,-1
 194 614 l 2,44,45
 254 655 254 655 276.5 677 c 128,-1,46
 299 699 299 699 317 719 c 1,36,-1
EndSplineSet
EndChar

StartChar: ecircumflex
Encoding: 234 234 170
Width: 493
GlyphClass: 2
Flags: W
LayerCount: 2
Fore
SplineSet
432 321 m 0,0,1
 432 285 432 285 426 246 c 1,2,-1
 112 246 l 1,3,4
 116 136 116 136 149 94.5 c 128,-1,5
 182 53 182 53 266 53 c 0,6,7
 329 53 329 53 413 80 c 1,8,-1
 419 30 l 1,9,10
 396 21 396 21 383.5 17.5 c 128,-1,11
 371 14 371 14 357 9.5 c 128,-1,12
 343 5 343 5 336 3 c 128,-1,13
 329 1 329 1 316 -2 c 128,-1,14
 303 -5 303 -5 294 -6 c 0,15,16
 267 -9 267 -9 248 -9 c 0,17,18
 154 -9 154 -9 100 57 c 128,-1,19
 46 123 46 123 46 241 c 0,20,21
 46 306 46 306 62 355.5 c 128,-1,22
 78 405 78 405 100 431.5 c 128,-1,23
 122 458 122 458 153 474 c 0,24,25
 199 499 199 499 253 501 c 1,26,27
 432 500 432 500 432 321 c 0,0,1
369 337 m 0,28,29
 369 397 369 397 339 421 c 128,-1,30
 309 445 309 445 250 445 c 128,-1,31
 191 445 191 445 153 413.5 c 128,-1,32
 115 382 115 382 114 297 c 1,33,-1
 366 297 l 1,34,35
 369 320 369 320 369 337 c 0,28,29
246 674 m 1,36,-1
 140 587 l 1,37,-1
 112 617 l 1,38,-1
 216 723 l 1,39,-1
 276 723 l 1,40,-1
 380 617 l 1,41,-1
 351 587 l 1,42,-1
 246 674 l 1,36,-1
EndSplineSet
EndChar

StartChar: edieresis
Encoding: 235 235 171
Width: 493
GlyphClass: 2
Flags: W
LayerCount: 2
Fore
SplineSet
432 321 m 0,0,1
 432 285 432 285 426 246 c 1,2,-1
 112 246 l 1,3,4
 116 136 116 136 149 94.5 c 128,-1,5
 182 53 182 53 266 53 c 0,6,7
 329 53 329 53 413 80 c 1,8,-1
 419 30 l 1,9,10
 396 21 396 21 383.5 17.5 c 128,-1,11
 371 14 371 14 357 9.5 c 128,-1,12
 343 5 343 5 336 3 c 128,-1,13
 329 1 329 1 316 -2 c 128,-1,14
 303 -5 303 -5 294 -6 c 0,15,16
 267 -9 267 -9 248 -9 c 0,17,18
 154 -9 154 -9 100 57 c 128,-1,19
 46 123 46 123 46 241 c 0,20,21
 46 306 46 306 62 355.5 c 128,-1,22
 78 405 78 405 100 431.5 c 128,-1,23
 122 458 122 458 153 474 c 0,24,25
 199 499 199 499 253 501 c 1,26,27
 432 500 432 500 432 321 c 0,0,1
369 337 m 0,28,29
 369 397 369 397 339 421 c 128,-1,30
 309 445 309 445 250 445 c 128,-1,31
 191 445 191 445 153 413.5 c 128,-1,32
 115 382 115 382 114 297 c 1,33,-1
 366 297 l 1,34,35
 369 320 369 320 369 337 c 0,28,29
138 658 m 1,36,-1
 210 658 l 1,37,-1
 210 584 l 1,38,-1
 138 584 l 1,39,-1
 138 658 l 1,36,-1
284 658 m 1,40,-1
 356 658 l 1,41,-1
 356 584 l 1,42,-1
 284 584 l 1,43,-1
 284 658 l 1,40,-1
EndSplineSet
EndChar

StartChar: igrave
Encoding: 236 236 172
Width: 247
GlyphClass: 2
Flags: W
LayerCount: 2
Fore
SplineSet
85 492 m 1,0,-1
 147 492 l 1,1,-1
 147 0 l 1,2,-1
 85 0 l 1,3,-1
 85 492 l 1,0,-1
18 671 m 1,4,-1
 66 716 l 1,5,6
 104 674 104 674 129 655 c 0,7,8
 164 628 164 628 190 611 c 2,9,-1
 210 597 l 1,10,11
 205 590 205 590 196 582 c 128,-1,12
 187 574 187 574 182 568 c 1,13,-1
 114 596 l 1,14,15
 60 633 60 633 18 671 c 1,4,-1
EndSplineSet
EndChar

StartChar: iacute
Encoding: 237 237 173
Width: 284
GlyphClass: 2
Flags: W
LayerCount: 2
Fore
SplineSet
99 493 m 1,0,-1
 164 493 l 1,1,-1
 164 1 l 1,2,-1
 99 1 l 1,3,-1
 99 493 l 1,0,-1
218 710 m 1,4,-1
 267 664 l 1,5,6
 225 627 225 627 170 590 c 1,7,-1
 102 562 l 1,8,9
 97 569 97 569 88 577 c 128,-1,10
 79 585 79 585 74 591 c 1,11,12
 75 592 75 592 89 601 c 128,-1,13
 103 610 103 610 107 613 c 128,-1,14
 111 616 111 616 124.5 625 c 128,-1,15
 138 634 138 634 146 641 c 128,-1,16
 154 648 154 648 167 659 c 0,17,18
 184 673 184 673 218 710 c 1,4,-1
EndSplineSet
EndChar

StartChar: icircumflex
Encoding: 238 238 174
Width: 247
GlyphClass: 2
Flags: W
LayerCount: 2
Fore
SplineSet
90 493 m 1,0,-1
 155 493 l 1,1,-1
 155 1 l 1,2,-1
 90 1 l 1,3,-1
 90 493 l 1,0,-1
123 674 m 1,4,-1
 17 587 l 1,5,-1
 -11 617 l 1,6,-1
 93 723 l 1,7,-1
 153 723 l 1,8,-1
 257 617 l 1,9,-1
 228 587 l 1,10,-1
 123 674 l 1,4,-1
EndSplineSet
EndChar

StartChar: idieresis
Encoding: 239 239 175
Width: 247
GlyphClass: 2
Flags: W
LayerCount: 2
Fore
SplineSet
84 493 m 1,0,-1
 149 493 l 1,1,-1
 149 1 l 1,2,-1
 84 1 l 1,3,-1
 84 493 l 1,0,-1
15 658 m 1,4,-1
 87 658 l 1,5,-1
 87 584 l 1,6,-1
 15 584 l 1,7,-1
 15 658 l 1,4,-1
161 658 m 1,8,-1
 233 658 l 1,9,-1
 233 584 l 1,10,-1
 161 584 l 1,11,-1
 161 658 l 1,8,-1
EndSplineSet
EndChar

StartChar: eth
Encoding: 240 240 176
Width: 529
GlyphClass: 2
Flags: W
LayerCount: 2
Fore
SplineSet
441 123.5 m 128,-1,1
 426 66 426 66 404 42 c 0,2,3
 358 -8 358 -8 258.5 -8 c 128,-1,4
 159 -8 159 -8 111 55.5 c 128,-1,5
 63 119 63 119 63 222 c 128,-1,6
 63 325 63 325 106.5 383 c 128,-1,7
 150 441 150 441 215 441 c 128,-1,8
 280 441 280 441 382 412 c 1,9,10
 376 495 376 495 356 538.5 c 128,-1,11
 336 582 336 582 293 612 c 1,12,-1
 223 538 l 1,13,-1
 184 575 l 1,14,-1
 244 640 l 1,15,-1
 122 695 l 1,16,-1
 142 741 l 1,17,-1
 273 695 l 2,18,19
 276 693 276 693 289 688 c 1,20,-1
 346 748 l 1,21,-1
 385 711 l 1,22,-1
 338 661 l 1,23,24
 400 618 400 618 428 539.5 c 128,-1,25
 456 461 456 461 456 321 c 128,-1,0
 456 181 456 181 441 123.5 c 128,-1,1
386 216 m 2,26,-1
 385 322 l 1,27,-1
 385 355 l 1,28,29
 283 381 283 381 232 381 c 0,30,31
 127 381 127 381 127 216 c 0,32,33
 127 132 127 132 154 92 c 128,-1,34
 181 52 181 52 242 52 c 0,35,36
 334 52 334 52 362 99 c 0,37,38
 372 117 372 117 377 130 c 0,39,40
 386 155 386 155 386 216 c 2,26,-1
EndSplineSet
EndChar

StartChar: ntilde
Encoding: 241 241 177
Width: 544
GlyphClass: 2
Flags: W
LayerCount: 2
Fore
SplineSet
459 1 m 1,0,-1
 393 1 l 1,1,-1
 393 352 l 1,2,3
 392 401 392 401 366 422 c 128,-1,4
 340 443 340 443 291.5 443 c 128,-1,5
 243 443 243 443 202.5 424 c 128,-1,6
 162 405 162 405 155 388 c 1,7,-1
 155 1 l 1,8,-1
 89 1 l 1,9,-1
 89 365 l 1,10,-1
 72 487 l 1,11,-1
 117 487 l 1,12,-1
 120 485 l 1,13,-1
 139 434 l 1,14,15
 174 458 174 458 196 470 c 1,16,17
 251 503 251 503 316 503 c 0,18,19
 456 503 456 503 459 352 c 1,20,-1
 459 1 l 1,0,-1
370 597 m 2,21,22
 351 582 351 582 342 580.5 c 128,-1,23
 333 579 333 579 324.5 579 c 128,-1,24
 316 579 316 579 298 584 c 2,25,-1
 213 604 l 1,26,-1
 138 572 l 1,27,-1
 120 600 l 1,28,-1
 162 635 l 2,29,30
 183 653 183 653 190.5 654.5 c 128,-1,31
 198 656 198 656 205.5 656 c 128,-1,32
 213 656 213 656 230 652 c 2,33,-1
 325 630 l 1,34,-1
 399 665 l 1,35,-1
 417 636 l 1,36,-1
 370 597 l 2,21,22
EndSplineSet
EndChar

StartChar: ograve
Encoding: 242 242 178
Width: 509
GlyphClass: 2
Flags: W
LayerCount: 2
Fore
SplineSet
312.5 439 m 128,-1,1
 291 444 291 444 253 444 c 128,-1,2
 215 444 215 444 186.5 431.5 c 128,-1,3
 158 419 158 419 144.5 389.5 c 128,-1,4
 131 360 131 360 127 329.5 c 128,-1,5
 123 299 123 299 123 246 c 0,6,7
 123 133 123 133 148.5 90 c 128,-1,8
 174 47 174 47 261 47 c 0,9,10
 308 47 308 47 337 59 c 128,-1,11
 366 71 366 71 380 99.5 c 128,-1,12
 394 128 394 128 398 159.5 c 128,-1,13
 402 191 402 191 402 234.5 c 128,-1,14
 402 278 402 278 401.5 296.5 c 128,-1,15
 401 315 401 315 398 339.5 c 128,-1,16
 395 364 395 364 389.5 377 c 128,-1,17
 384 390 384 390 374 405 c 128,-1,18
 364 420 364 420 349 427 c 128,-1,0
 334 434 334 434 312.5 439 c 128,-1,1
385 479.5 m 128,-1,20
 428 459 428 459 449 404 c 128,-1,21
 470 349 470 349 470 262 c 128,-1,22
 470 175 470 175 451.5 123 c 128,-1,23
 433 71 433 71 402 43 c 0,24,25
 342 -11 342 -11 262 -11 c 0,26,27
 145 -11 145 -11 100 44 c 128,-1,28
 55 99 55 99 55 245 c 0,29,30
 55 315 55 315 74 367 c 128,-1,31
 93 419 93 419 125 446 c 0,32,33
 187 500 187 500 264.5 500 c 128,-1,19
 342 500 342 500 385 479.5 c 128,-1,20
158 671 m 1,34,-1
 206 716 l 1,35,36
 244 674 244 674 269 655 c 0,37,38
 304 628 304 628 330 611 c 2,39,-1
 350 597 l 1,40,41
 345 590 345 590 336 582 c 128,-1,42
 327 574 327 574 322 568 c 1,43,-1
 254 596 l 1,44,45
 200 633 200 633 158 671 c 1,34,-1
EndSplineSet
EndChar

StartChar: oacute
Encoding: 243 243 179
Width: 509
GlyphClass: 2
Flags: W
LayerCount: 2
Fore
SplineSet
312.5 439 m 128,-1,1
 291 444 291 444 253 444 c 128,-1,2
 215 444 215 444 186.5 431.5 c 128,-1,3
 158 419 158 419 144.5 389.5 c 128,-1,4
 131 360 131 360 127 329.5 c 128,-1,5
 123 299 123 299 123 246 c 0,6,7
 123 133 123 133 148.5 90 c 128,-1,8
 174 47 174 47 261 47 c 0,9,10
 308 47 308 47 337 59 c 128,-1,11
 366 71 366 71 380 99.5 c 128,-1,12
 394 128 394 128 398 159.5 c 128,-1,13
 402 191 402 191 402 234.5 c 128,-1,14
 402 278 402 278 401.5 296.5 c 128,-1,15
 401 315 401 315 398 339.5 c 128,-1,16
 395 364 395 364 389.5 377 c 128,-1,17
 384 390 384 390 374 405 c 128,-1,18
 364 420 364 420 349 427 c 128,-1,0
 334 434 334 434 312.5 439 c 128,-1,1
385 479.5 m 128,-1,20
 428 459 428 459 449 404 c 128,-1,21
 470 349 470 349 470 262 c 128,-1,22
 470 175 470 175 451.5 123 c 128,-1,23
 433 71 433 71 402 43 c 0,24,25
 342 -11 342 -11 262 -11 c 0,26,27
 145 -11 145 -11 100 44 c 128,-1,28
 55 99 55 99 55 245 c 0,29,30
 55 315 55 315 74 367 c 128,-1,31
 93 419 93 419 125 446 c 0,32,33
 187 500 187 500 264.5 500 c 128,-1,19
 342 500 342 500 385 479.5 c 128,-1,20
320 719 m 1,34,-1
 368 674 l 1,35,36
 326 636 326 636 272 599 c 1,37,-1
 204 571 l 1,38,39
 199 577 199 577 190 585 c 128,-1,40
 181 593 181 593 176 600 c 1,41,-1
 196 614 l 1,42,43
 257 655 257 655 279.5 677 c 128,-1,44
 302 699 302 699 320 719 c 1,34,-1
EndSplineSet
EndChar

StartChar: ocircumflex
Encoding: 244 244 180
Width: 509
GlyphClass: 2
Flags: W
LayerCount: 2
Fore
SplineSet
312.5 439 m 128,-1,1
 291 444 291 444 253 444 c 128,-1,2
 215 444 215 444 186.5 431.5 c 128,-1,3
 158 419 158 419 144.5 389.5 c 128,-1,4
 131 360 131 360 127 329.5 c 128,-1,5
 123 299 123 299 123 246 c 0,6,7
 123 133 123 133 148.5 90 c 128,-1,8
 174 47 174 47 261 47 c 0,9,10
 308 47 308 47 337 59 c 128,-1,11
 366 71 366 71 380 99.5 c 128,-1,12
 394 128 394 128 398 159.5 c 128,-1,13
 402 191 402 191 402 234.5 c 128,-1,14
 402 278 402 278 401.5 296.5 c 128,-1,15
 401 315 401 315 398 339.5 c 128,-1,16
 395 364 395 364 389.5 377 c 128,-1,17
 384 390 384 390 374 405 c 128,-1,18
 364 420 364 420 349 427 c 128,-1,0
 334 434 334 434 312.5 439 c 128,-1,1
385 479.5 m 128,-1,20
 428 459 428 459 449 404 c 128,-1,21
 470 349 470 349 470 262 c 128,-1,22
 470 175 470 175 451.5 123 c 128,-1,23
 433 71 433 71 402 43 c 0,24,25
 342 -11 342 -11 262 -11 c 0,26,27
 145 -11 145 -11 100 44 c 128,-1,28
 55 99 55 99 55 245 c 0,29,30
 55 315 55 315 74 367 c 128,-1,31
 93 419 93 419 125 446 c 0,32,33
 187 500 187 500 264.5 500 c 128,-1,19
 342 500 342 500 385 479.5 c 128,-1,20
254 674 m 1,34,-1
 148 587 l 1,35,-1
 120 617 l 1,36,-1
 224 723 l 1,37,-1
 284 723 l 1,38,-1
 388 617 l 1,39,-1
 359 587 l 1,40,-1
 254 674 l 1,34,-1
EndSplineSet
EndChar

StartChar: otilde
Encoding: 245 245 181
Width: 509
GlyphClass: 2
Flags: W
LayerCount: 2
Fore
SplineSet
312.5 439 m 128,-1,1
 291 444 291 444 253 444 c 128,-1,2
 215 444 215 444 186.5 431.5 c 128,-1,3
 158 419 158 419 144.5 389.5 c 128,-1,4
 131 360 131 360 127 329.5 c 128,-1,5
 123 299 123 299 123 246 c 0,6,7
 123 133 123 133 148.5 90 c 128,-1,8
 174 47 174 47 261 47 c 0,9,10
 308 47 308 47 337 59 c 128,-1,11
 366 71 366 71 380 99.5 c 128,-1,12
 394 128 394 128 398 159.5 c 128,-1,13
 402 191 402 191 402 234.5 c 128,-1,14
 402 278 402 278 401.5 296.5 c 128,-1,15
 401 315 401 315 398 339.5 c 128,-1,16
 395 364 395 364 389.5 377 c 128,-1,17
 384 390 384 390 374 405 c 128,-1,18
 364 420 364 420 349 427 c 128,-1,0
 334 434 334 434 312.5 439 c 128,-1,1
385 479.5 m 128,-1,20
 428 459 428 459 449 404 c 128,-1,21
 470 349 470 349 470 262 c 128,-1,22
 470 175 470 175 451.5 123 c 128,-1,23
 433 71 433 71 402 43 c 0,24,25
 342 -11 342 -11 262 -11 c 0,26,27
 145 -11 145 -11 100 44 c 128,-1,28
 55 99 55 99 55 245 c 0,29,30
 55 315 55 315 74 367 c 128,-1,31
 93 419 93 419 125 446 c 0,32,33
 187 500 187 500 264.5 500 c 128,-1,19
 342 500 342 500 385 479.5 c 128,-1,20
356 596 m 2,34,35
 337 581 337 581 328 579.5 c 128,-1,36
 319 578 319 578 310.5 578 c 128,-1,37
 302 578 302 578 284 583 c 2,38,-1
 199 603 l 1,39,-1
 124 571 l 1,40,-1
 106 599 l 1,41,-1
 148 634 l 2,42,43
 169 652 169 652 176.5 653.5 c 128,-1,44
 184 655 184 655 191.5 655 c 128,-1,45
 199 655 199 655 216 651 c 2,46,-1
 311 629 l 1,47,-1
 385 664 l 1,48,-1
 403 635 l 1,49,-1
 356 596 l 2,34,35
EndSplineSet
EndChar

StartChar: odieresis
Encoding: 246 246 182
Width: 509
GlyphClass: 2
Flags: W
LayerCount: 2
Fore
SplineSet
312.5 439 m 128,-1,1
 291 444 291 444 253 444 c 128,-1,2
 215 444 215 444 186.5 431.5 c 128,-1,3
 158 419 158 419 144.5 389.5 c 128,-1,4
 131 360 131 360 127 329.5 c 128,-1,5
 123 299 123 299 123 246 c 0,6,7
 123 133 123 133 148.5 90 c 128,-1,8
 174 47 174 47 261 47 c 0,9,10
 308 47 308 47 337 59 c 128,-1,11
 366 71 366 71 380 99.5 c 128,-1,12
 394 128 394 128 398 159.5 c 128,-1,13
 402 191 402 191 402 234.5 c 128,-1,14
 402 278 402 278 401.5 296.5 c 128,-1,15
 401 315 401 315 398 339.5 c 128,-1,16
 395 364 395 364 389.5 377 c 128,-1,17
 384 390 384 390 374 405 c 128,-1,18
 364 420 364 420 349 427 c 128,-1,0
 334 434 334 434 312.5 439 c 128,-1,1
385 479.5 m 128,-1,20
 428 459 428 459 449 404 c 128,-1,21
 470 349 470 349 470 262 c 128,-1,22
 470 175 470 175 451.5 123 c 128,-1,23
 433 71 433 71 402 43 c 0,24,25
 342 -11 342 -11 262 -11 c 0,26,27
 145 -11 145 -11 100 44 c 128,-1,28
 55 99 55 99 55 245 c 0,29,30
 55 315 55 315 74 367 c 128,-1,31
 93 419 93 419 125 446 c 0,32,33
 187 500 187 500 264.5 500 c 128,-1,19
 342 500 342 500 385 479.5 c 128,-1,20
146 658 m 1,34,-1
 218 658 l 1,35,-1
 218 584 l 1,36,-1
 146 584 l 1,37,-1
 146 658 l 1,34,-1
292 658 m 1,38,-1
 364 658 l 1,39,-1
 364 584 l 1,40,-1
 292 584 l 1,41,-1
 292 658 l 1,38,-1
EndSplineSet
EndChar

StartChar: divide
Encoding: 247 247 183
Width: 517
GlyphClass: 2
Flags: W
LayerCount: 2
Fore
SplineSet
62 269 m 1,0,-1
 62 328 l 1,1,-1
 455 328 l 1,2,-1
 455 269 l 1,3,-1
 62 269 l 1,0,-1
301 501 m 1,4,-1
 301 410 l 1,5,-1
 216 410 l 1,6,-1
 217 501 l 1,7,-1
 301 501 l 1,4,-1
301 186 m 1,8,-1
 301 95 l 1,9,-1
 216 95 l 1,10,-1
 217 186 l 1,11,-1
 301 186 l 1,8,-1
EndSplineSet
EndChar

StartChar: oslash
Encoding: 248 248 184
Width: 509
GlyphClass: 2
Flags: W
LayerCount: 2
Fore
SplineSet
104 -51 m 1,0,-1
 375 556 l 1,1,-1
 428 533 l 1,2,-1
 158 -74 l 1,3,-1
 104 -51 l 1,0,-1
312.5 439 m 128,-1,5
 291 444 291 444 253 444 c 128,-1,6
 215 444 215 444 186.5 431.5 c 128,-1,7
 158 419 158 419 144.5 389.5 c 128,-1,8
 131 360 131 360 127 329.5 c 128,-1,9
 123 299 123 299 123 246 c 0,10,11
 123 133 123 133 148.5 90 c 128,-1,12
 174 47 174 47 261 47 c 0,13,14
 308 47 308 47 337 59 c 128,-1,15
 366 71 366 71 380 99.5 c 128,-1,16
 394 128 394 128 398 159.5 c 128,-1,17
 402 191 402 191 402 234.5 c 128,-1,18
 402 278 402 278 401.5 296.5 c 128,-1,19
 401 315 401 315 398 339.5 c 128,-1,20
 395 364 395 364 389.5 377 c 128,-1,21
 384 390 384 390 374 405 c 128,-1,22
 364 420 364 420 349 427 c 128,-1,4
 334 434 334 434 312.5 439 c 128,-1,5
385 479.5 m 128,-1,24
 428 459 428 459 449 404 c 128,-1,25
 470 349 470 349 470 262 c 128,-1,26
 470 175 470 175 451.5 123 c 128,-1,27
 433 71 433 71 402 43 c 0,28,29
 342 -11 342 -11 262 -11 c 0,30,31
 145 -11 145 -11 100 44 c 128,-1,32
 55 99 55 99 55 245 c 0,33,34
 55 315 55 315 74 367 c 128,-1,35
 93 419 93 419 125 446 c 0,36,37
 187 500 187 500 264.5 500 c 128,-1,23
 342 500 342 500 385 479.5 c 128,-1,24
EndSplineSet
EndChar

StartChar: ugrave
Encoding: 249 249 185
Width: 559
GlyphClass: 2
Flags: W
LayerCount: 2
Fore
SplineSet
85 492 m 1,0,-1
 150 492 l 1,1,-1
 150 141 l 1,2,3
 151 91 151 91 177.5 71 c 128,-1,4
 204 51 204 51 254.5 51 c 128,-1,5
 305 51 305 51 343.5 70 c 128,-1,6
 382 89 382 89 389 106 c 1,7,-1
 389 492 l 1,8,-1
 453 492 l 1,9,-1
 453 129 l 1,10,-1
 471 0 l 1,11,-1
 429 0 l 1,12,-1
 426 3 l 1,13,-1
 405 59 l 1,14,15
 366 33 366 33 349 22.5 c 128,-1,16
 332 12 332 12 299.5 1.5 c 128,-1,17
 267 -9 267 -9 231 -9 c 0,18,19
 88 -9 88 -9 85 142 c 1,20,-1
 85 492 l 1,0,-1
183 671 m 1,21,-1
 231 716 l 1,22,23
 269 674 269 674 294 655 c 0,24,25
 329 628 329 628 354 611 c 2,26,-1
 375 597 l 1,27,28
 370 590 370 590 361 582 c 128,-1,29
 352 574 352 574 347 568 c 1,30,-1
 279 596 l 1,31,32
 225 633 225 633 183 671 c 1,21,-1
EndSplineSet
EndChar

StartChar: uacute
Encoding: 250 250 186
Width: 559
GlyphClass: 2
Flags: W
LayerCount: 2
Fore
SplineSet
85 492 m 1,0,-1
 150 492 l 1,1,-1
 150 141 l 1,2,3
 151 91 151 91 177.5 71 c 128,-1,4
 204 51 204 51 254.5 51 c 128,-1,5
 305 51 305 51 343.5 70 c 128,-1,6
 382 89 382 89 389 106 c 1,7,-1
 389 492 l 1,8,-1
 453 492 l 1,9,-1
 453 129 l 1,10,-1
 471 0 l 1,11,-1
 429 0 l 1,12,-1
 426 3 l 1,13,-1
 405 59 l 1,14,15
 366 33 366 33 349 22.5 c 128,-1,16
 332 12 332 12 299.5 1.5 c 128,-1,17
 267 -9 267 -9 231 -9 c 0,18,19
 88 -9 88 -9 85 142 c 1,20,-1
 85 492 l 1,0,-1
358 719 m 1,21,-1
 406 674 l 1,22,23
 364 636 364 636 310 599 c 1,24,-1
 242 571 l 1,25,26
 237 577 237 577 228 585 c 128,-1,27
 219 593 219 593 214 600 c 1,28,-1
 234 614 l 1,29,30
 295 655 295 655 317.5 677 c 128,-1,31
 340 699 340 699 358 719 c 1,21,-1
EndSplineSet
EndChar

StartChar: ucircumflex
Encoding: 251 251 187
Width: 559
GlyphClass: 2
Flags: W
LayerCount: 2
Fore
SplineSet
85 492 m 1,0,-1
 150 492 l 1,1,-1
 150 141 l 1,2,3
 151 91 151 91 177.5 71 c 128,-1,4
 204 51 204 51 254.5 51 c 128,-1,5
 305 51 305 51 343.5 70 c 128,-1,6
 382 89 382 89 389 106 c 1,7,-1
 389 492 l 1,8,-1
 453 492 l 1,9,-1
 453 129 l 1,10,-1
 471 0 l 1,11,-1
 429 0 l 1,12,-1
 426 3 l 1,13,-1
 405 59 l 1,14,15
 366 33 366 33 349 22.5 c 128,-1,16
 332 12 332 12 299.5 1.5 c 128,-1,17
 267 -9 267 -9 231 -9 c 0,18,19
 88 -9 88 -9 85 142 c 1,20,-1
 85 492 l 1,0,-1
279 674 m 1,21,-1
 173 587 l 1,22,-1
 145 617 l 1,23,-1
 249 723 l 1,24,-1
 309 723 l 1,25,-1
 413 617 l 1,26,-1
 384 587 l 1,27,-1
 279 674 l 1,21,-1
EndSplineSet
EndChar

StartChar: udieresis
Encoding: 252 252 188
Width: 559
GlyphClass: 2
Flags: W
LayerCount: 2
Fore
SplineSet
85 492 m 1,0,-1
 150 492 l 1,1,-1
 150 141 l 1,2,3
 151 91 151 91 177.5 71 c 128,-1,4
 204 51 204 51 254.5 51 c 128,-1,5
 305 51 305 51 343.5 70 c 128,-1,6
 382 89 382 89 389 106 c 1,7,-1
 389 492 l 1,8,-1
 453 492 l 1,9,-1
 453 129 l 1,10,-1
 471 0 l 1,11,-1
 429 0 l 1,12,-1
 426 3 l 1,13,-1
 405 59 l 1,14,15
 366 33 366 33 349 22.5 c 128,-1,16
 332 12 332 12 299.5 1.5 c 128,-1,17
 267 -9 267 -9 231 -9 c 0,18,19
 88 -9 88 -9 85 142 c 1,20,-1
 85 492 l 1,0,-1
164 658 m 1,21,-1
 236 658 l 1,22,-1
 236 584 l 1,23,-1
 164 584 l 1,24,-1
 164 658 l 1,21,-1
310 658 m 1,25,-1
 382 658 l 1,26,-1
 382 584 l 1,27,-1
 310 584 l 1,28,-1
 310 658 l 1,25,-1
EndSplineSet
EndChar

StartChar: yacute
Encoding: 253 253 189
Width: 494
GlyphClass: 2
Flags: W
LayerCount: 2
Fore
SplineSet
23 -144 m 1,0,1
 59 -154 59 -154 84 -154 c 0,2,3
 163 -152 163 -152 190 -81 c 2,4,-1
 220 -1 l 1,5,-1
 29 492 l 1,6,-1
 101 492 l 1,7,-1
 253 70 l 1,8,-1
 402 492 l 1,9,-1
 472 492 l 1,10,-1
 252 -101 l 1,11,12
 211 -202 211 -202 102 -202 c 0,13,14
 56 -202 56 -202 0 -184 c 1,15,-1
 23 -144 l 1,0,1
308 719 m 1,16,-1
 356 674 l 1,17,18
 314 636 314 636 260 599 c 1,19,-1
 192 571 l 1,20,21
 187 577 187 577 178 585 c 128,-1,22
 169 593 169 593 164 600 c 1,23,-1
 184 614 l 1,24,25
 245 655 245 655 267.5 677 c 128,-1,26
 290 699 290 699 308 719 c 1,16,-1
EndSplineSet
EndChar

StartChar: thorn
Encoding: 254 254 190
Width: 547
GlyphClass: 2
Flags: W
LayerCount: 2
Fore
SplineSet
85 -201 m 1,0,-1
 85 736 l 1,1,-1
 147 736 l 1,2,-1
 147 447 l 1,3,4
 207 500 207 500 270.5 500 c 128,-1,5
 334 500 334 500 372.5 481.5 c 128,-1,6
 411 463 411 463 430 426 c 0,7,8
 464 361 464 361 464 252 c 0,9,10
 464 183 464 183 447 131 c 128,-1,11
 430 79 430 79 406.5 53 c 128,-1,12
 383 27 383 27 353 11 c 0,13,14
 310 -12 310 -12 260 -12 c 128,-1,15
 210 -12 210 -12 147 13 c 1,16,-1
 147 -201 l 1,17,-1
 85 -201 l 1,0,-1
147 67 m 1,18,19
 203 47 203 47 253 47 c 128,-1,20
 303 47 303 47 329 59.5 c 128,-1,21
 355 72 355 72 368 88 c 128,-1,22
 381 104 381 104 388 134 c 0,23,24
 396 174 396 174 396 238 c 0,25,26
 396 357 396 357 376 399 c 128,-1,27
 356 441 356 441 276 441 c 128,-1,28
 196 441 196 441 147 385 c 1,29,-1
 147 67 l 1,18,19
EndSplineSet
EndChar

StartChar: ydieresis
Encoding: 255 255 191
Width: 494
GlyphClass: 2
Flags: W
LayerCount: 2
Fore
SplineSet
23 -144 m 1,0,1
 59 -154 59 -154 84 -154 c 0,2,3
 163 -152 163 -152 190 -81 c 2,4,-1
 220 -1 l 1,5,-1
 29 492 l 1,6,-1
 101 492 l 1,7,-1
 253 70 l 1,8,-1
 402 492 l 1,9,-1
 472 492 l 1,10,-1
 252 -101 l 1,11,12
 211 -202 211 -202 102 -202 c 0,13,14
 56 -202 56 -202 0 -184 c 1,15,-1
 23 -144 l 1,0,1
138 658 m 1,16,-1
 210 658 l 1,17,-1
 210 584 l 1,18,-1
 138 584 l 1,19,-1
 138 658 l 1,16,-1
284 658 m 1,20,-1
 356 658 l 1,21,-1
 356 584 l 1,22,-1
 284 584 l 1,23,-1
 284 658 l 1,20,-1
EndSplineSet
EndChar

StartChar: dotlessi
Encoding: 305 305 192
Width: 247
GlyphClass: 2
Flags: W
LayerCount: 2
Fore
SplineSet
85 492 m 1,0,-1
 147 492 l 1,1,-1
 147 0 l 1,2,-1
 85 0 l 1,3,-1
 85 492 l 1,0,-1
EndSplineSet
EndChar

StartChar: Lslash
Encoding: 321 321 193
Width: 473
GlyphClass: 2
Flags: W
LayerCount: 2
Fore
SplineSet
46 284 m 1,0,-1
 46 343 l 1,1,-1
 132 343 l 1,2,-1
 132 648 l 1,3,-1
 198 648 l 1,4,-1
 197 343 l 1,5,-1
 328 343 l 1,6,-1
 328 284 l 1,7,-1
 197 284 l 1,8,-1
 197 56 l 1,9,-1
 485 56 l 1,10,-1
 485 0 l 1,11,-1
 133 0 l 1,12,-1
 133 1 l 1,13,-1
 132 1 l 1,14,-1
 132 284 l 1,15,-1
 46 284 l 1,0,-1
EndSplineSet
EndChar

StartChar: lslash
Encoding: 322 322 194
Width: 334
GlyphClass: 2
Flags: W
LayerCount: 2
Fore
SplineSet
27 284 m 1,0,-1
 27 343 l 1,1,-1
 124 343 l 1,2,-1
 124 736 l 1,3,-1
 186 736 l 1,4,-1
 186 343 l 1,5,-1
 309 343 l 1,6,-1
 309 284 l 1,7,-1
 186 284 l 1,8,-1
 186 119 l 1,9,-1
 211 -9 l 1,10,-1
 165 -9 l 1,11,-1
 161 -5 l 1,12,-1
 124 119 l 1,13,-1
 124 284 l 1,14,-1
 27 284 l 1,0,-1
EndSplineSet
EndChar

StartChar: OE
Encoding: 338 338 195
Width: 1188
GlyphClass: 2
Flags: W
LayerCount: 2
Fore
SplineSet
934 0 m 1,0,-1
 484 0 l 2,1,2
 432 0 432 0 398.5 5 c 128,-1,3
 365 10 365 10 331 29 c 128,-1,4
 297 48 297 48 278.5 83 c 128,-1,5
 260 118 260 118 248 178.5 c 128,-1,6
 236 239 236 239 236 327 c 128,-1,7
 236 415 236 415 258 480.5 c 128,-1,8
 280 546 280 546 317 581 c 0,9,10
 388 648 388 648 483 648 c 2,11,-1
 923 648 l 1,12,-1
 916 592 l 1,13,-1
 664 592 l 1,14,15
 726 527 726 527 729 363 c 1,16,-1
 893 363 l 1,17,-1
 893 307 l 1,18,-1
 730 307 l 1,19,20
 725 136 725 136 639 56 c 1,21,-1
 934 56 l 1,22,-1
 934 0 l 1,0,-1
465 589 m 0,23,24
 379 589 379 589 341.5 529 c 128,-1,25
 304 469 304 469 304 327 c 0,26,27
 304 239 304 239 314 186 c 128,-1,28
 324 133 324 133 349.5 105 c 128,-1,29
 375 77 375 77 408 68 c 128,-1,30
 441 59 441 59 497 59 c 0,31,32
 586 59 586 59 624 121 c 128,-1,33
 662 183 662 183 662 328 c 0,34,35
 662 481 662 481 632 525 c 0,36,37
 601 571 601 571 542 582 c 1,38,39
 510 589 510 589 465 589 c 0,23,24
EndSplineSet
EndChar

StartChar: oe
Encoding: 339 339 196
Width: 1002
GlyphClass: 2
Flags: W
LayerCount: 2
Fore
SplineSet
941 321 m 0,0,1
 941 285 941 285 935 246 c 1,2,-1
 621 246 l 1,3,4
 625 136 625 136 658 94.5 c 128,-1,5
 691 53 691 53 775 53 c 0,6,7
 838 53 838 53 922 80 c 1,8,-1
 928 30 l 1,9,10
 905 21 905 21 892.5 17.5 c 128,-1,11
 880 14 880 14 866 9.5 c 128,-1,12
 852 5 852 5 845 3 c 128,-1,13
 838 1 838 1 825 -2 c 128,-1,14
 812 -5 812 -5 803 -6 c 0,15,16
 776 -9 776 -9 757 -9 c 0,17,18
 695 -9 695 -9 655.5 18 c 128,-1,19
 616 45 616 45 588 96 c 1,20,21
 530 -11 530 -11 413 -11 c 128,-1,22
 296 -11 296 -11 251 44 c 128,-1,23
 206 99 206 99 206 245 c 0,24,25
 206 315 206 315 225 367 c 128,-1,26
 244 419 244 419 276 446 c 0,27,28
 338 500 338 500 416 500 c 128,-1,29
 494 500 494 500 535 478.5 c 128,-1,30
 576 457 576 457 596 407 c 1,31,32
 625 457 625 457 670 479 c 128,-1,33
 715 501 715 501 762 501 c 0,34,35
 941 500 941 500 941 321 c 0,0,1
480 434.5 m 128,-1,37
 453 444 453 444 409.5 444 c 128,-1,38
 366 444 366 444 337.5 431.5 c 128,-1,39
 309 419 309 419 295.5 389.5 c 128,-1,40
 282 360 282 360 278 329.5 c 128,-1,41
 274 299 274 299 274 246 c 0,42,43
 274 133 274 133 299.5 90 c 128,-1,44
 325 47 325 47 412 47 c 0,45,46
 501 47 501 47 529 94 c 0,47,48
 544 120 544 120 549 150.5 c 128,-1,49
 554 181 554 181 555 229 c 1,50,-1
 555 246 l 2,51,52
 555 329 555 329 546 363 c 128,-1,53
 537 397 537 397 522 411 c 128,-1,36
 507 425 507 425 480 434.5 c 128,-1,37
878 337 m 0,54,55
 878 397 878 397 848 421 c 128,-1,56
 818 445 818 445 759 445 c 128,-1,57
 700 445 700 445 662 413.5 c 128,-1,58
 624 382 624 382 623 297 c 1,59,-1
 875 297 l 1,60,61
 878 320 878 320 878 337 c 0,54,55
EndSplineSet
EndChar

StartChar: Scaron
Encoding: 352 352 197
Width: 538
GlyphClass: 2
Flags: W
LayerCount: 2
Fore
SplineSet
63 75 m 1,0,1
 140 46 140 46 229 46 c 128,-1,2
 318 46 318 46 355 72.5 c 128,-1,3
 392 99 392 99 392 171 c 0,4,5
 392 209 392 209 368 234 c 1,6,7
 345 256 345 256 326 266 c 2,8,-1
 290 284 l 2,9,10
 273 292 273 292 248.5 303 c 128,-1,11
 224 314 224 314 206 322.5 c 128,-1,12
 188 331 188 331 157 347.5 c 128,-1,13
 126 364 126 364 113 375.5 c 128,-1,14
 100 387 100 387 84 404 c 0,15,16
 56 435 56 435 56 484 c 0,17,18
 56 567 56 567 113 613.5 c 128,-1,19
 170 660 170 660 260 660 c 128,-1,20
 350 660 350 660 427 635 c 1,21,-1
 414 585 l 1,22,23
 352 605 352 605 271.5 605 c 128,-1,24
 191 605 191 605 158 579.5 c 128,-1,25
 125 554 125 554 125 492 c 0,26,27
 125 446 125 446 172 416 c 0,28,29
 210 392 210 392 289 357.5 c 128,-1,30
 368 323 368 323 396 304 c 0,31,32
 467 256 467 256 468 174 c 1,33,34
 468 -9 468 -9 231 -9 c 0,35,36
 132 -9 132 -9 46 20 c 1,37,-1
 63 75 l 1,0,1
153 859 m 1,38,-1
 259 772 l 1,39,-1
 364 859 l 1,40,-1
 393 829 l 1,41,-1
 289 723 l 1,42,-1
 229 723 l 1,43,-1
 125 829 l 1,44,-1
 153 859 l 1,38,-1
EndSplineSet
EndChar

StartChar: scaron
Encoding: 353 353 198
Width: 448
GlyphClass: 2
Flags: W
LayerCount: 2
Fore
SplineSet
65 68 m 1,0,1
 127 44 127 44 181 44 c 128,-1,2
 235 44 235 44 273.5 66.5 c 128,-1,3
 312 89 312 89 312 126 c 128,-1,4
 312 163 312 163 286 185.5 c 128,-1,5
 260 208 260 208 223 222 c 128,-1,6
 186 236 186 236 149.5 251.5 c 128,-1,7
 113 267 113 267 87 295.5 c 128,-1,8
 61 324 61 324 61 366 c 0,9,10
 61 432 61 432 107 467.5 c 128,-1,11
 153 503 153 503 222.5 503 c 128,-1,12
 292 503 292 503 356 480 c 1,13,-1
 343 434 l 1,14,15
 293 451 293 451 230 451 c 0,16,17
 126 451 126 451 126 370 c 0,18,19
 126 318 126 318 216 284 c 0,20,21
 254 270 254 270 291.5 253.5 c 128,-1,22
 329 237 329 237 355.5 206 c 128,-1,23
 382 175 382 175 382 131 c 0,24,25
 382 64 382 64 324 28 c 128,-1,26
 266 -8 266 -8 190 -8 c 128,-1,27
 114 -8 114 -8 50 19 c 1,28,-1
 65 68 l 1,0,1
106 703 m 1,29,-1
 212 616 l 1,30,-1
 317 703 l 1,31,-1
 346 673 l 1,32,-1
 242 567 l 1,33,-1
 182 567 l 1,34,-1
 78 673 l 1,35,-1
 106 703 l 1,29,-1
EndSplineSet
EndChar

StartChar: Ydieresis
Encoding: 376 376 199
Width: 482
GlyphClass: 2
Flags: W
LayerCount: 2
Fore
SplineSet
208 0 m 1,0,-1
 208 265 l 1,1,-1
 2 648 l 1,2,-1
 76 648 l 1,3,-1
 241 324 l 1,4,-1
 409 648 l 1,5,-1
 480 648 l 1,6,-1
 275 265 l 1,7,-1
 274 0 l 1,8,-1
 208 0 l 1,0,-1
132 814 m 1,9,-1
 204 814 l 1,10,-1
 204 740 l 1,11,-1
 132 740 l 1,12,-1
 132 814 l 1,9,-1
278 814 m 1,13,-1
 350 814 l 1,14,-1
 350 740 l 1,15,-1
 278 740 l 1,16,-1
 278 814 l 1,13,-1
EndSplineSet
EndChar

StartChar: Zcaron
Encoding: 381 381 200
Width: 537
GlyphClass: 2
Flags: W
LayerCount: 2
Fore
SplineSet
53 592 m 1,0,-1
 53 648 l 1,1,-1
 482 648 l 1,2,-1
 482 592 l 1,3,-1
 124 56 l 1,4,-1
 482 58 l 1,5,-1
 463 0 l 1,6,-1
 53 0 l 1,7,-1
 53 56 l 1,8,-1
 409 592 l 1,9,-1
 53 592 l 1,0,-1
171 859 m 1,10,-1
 277 772 l 1,11,-1
 382 859 l 1,12,-1
 411 829 l 1,13,-1
 307 723 l 1,14,-1
 247 723 l 1,15,-1
 143 829 l 1,16,-1
 171 859 l 1,10,-1
EndSplineSet
EndChar

StartChar: zcaron
Encoding: 382 382 201
Width: 481
GlyphClass: 2
Flags: W
LayerCount: 2
Fore
SplineSet
414 492 m 1,0,-1
 414 438 l 1,1,-1
 132 71 l 1,2,-1
 117 56 l 1,3,-1
 431 56 l 1,4,-1
 412 0 l 1,5,-1
 44 0 l 1,6,-1
 44 55 l 1,7,-1
 329 422 l 1,8,-1
 344 437 l 1,9,-1
 65 437 l 1,10,-1
 65 492 l 1,11,-1
 414 492 l 1,0,-1
134 703 m 1,12,-1
 240 616 l 1,13,-1
 345 703 l 1,14,-1
 374 673 l 1,15,-1
 270 567 l 1,16,-1
 210 567 l 1,17,-1
 106 673 l 1,18,-1
 134 703 l 1,12,-1
EndSplineSet
EndChar

StartChar: florin
Encoding: 402 402 202
Width: 329
GlyphClass: 2
Flags: W
LayerCount: 2
Fore
SplineSet
-61 -202 m 1,0,-1
 -53 -156 l 1,1,-1
 -40 -155 l 2,2,3
 33 -149 33 -149 66 -97 c 0,4,5
 81 -73 81 -73 82 -39 c 1,6,-1
 82 438 l 2,7,8
 82 443 82 443 69 443 c 2,9,-1
 35 443 l 1,10,-1
 36 472 l 1,11,12
 77 491 77 491 82 493 c 1,13,-1
 82 494 l 1,14,-1
 81 572 l 1,15,16
 88 729 88 729 287 735 c 1,17,-1
 279 689 l 1,18,-1
 266 688 l 2,19,20
 193 682 193 682 160 630 c 0,21,22
 145 606 145 606 144 572 c 1,23,-1
 144 500 l 2,24,25
 144 492 144 492 186.5 492 c 128,-1,26
 229 492 229 492 247 492.5 c 128,-1,27
 265 493 265 493 270 493 c 1,28,-1
 261 444 l 1,29,-1
 152 444 l 2,30,31
 144 444 144 444 144 440 c 2,32,-1
 144 -39 l 1,33,34
 137 -196 137 -196 -61 -202 c 1,0,-1
EndSplineSet
EndChar

StartChar: circumflex
Encoding: 710 710 203
Width: 378
GlyphClass: 2
Flags: W
LayerCount: 2
Fore
SplineSet
189 674 m 1,0,-1
 83 587 l 1,1,-1
 55 617 l 1,2,-1
 159 723 l 1,3,-1
 219 723 l 1,4,-1
 323 617 l 1,5,-1
 294 587 l 1,6,-1
 189 674 l 1,0,-1
EndSplineSet
EndChar

StartChar: caron
Encoding: 711 711 204
Width: 378
GlyphClass: 2
Flags: W
LayerCount: 2
Fore
SplineSet
83 703 m 1,0,-1
 189 616 l 1,1,-1
 294 703 l 1,2,-1
 323 673 l 1,3,-1
 219 567 l 1,4,-1
 159 567 l 1,5,-1
 55 673 l 1,6,-1
 83 703 l 1,0,-1
EndSplineSet
EndChar

StartChar: breve
Encoding: 728 728 205
Width: 332
GlyphClass: 2
Flags: W
LayerCount: 2
Fore
SplineSet
227 660 m 1,0,-1
 267 660 l 1,1,2
 267 620 267 620 241 591.5 c 128,-1,3
 215 563 215 563 165 563 c 128,-1,4
 115 563 115 563 90 591 c 128,-1,5
 65 619 65 619 65 660 c 1,6,-1
 105 660 l 1,7,8
 105 630 105 630 117.5 614 c 128,-1,9
 130 598 130 598 165 598 c 0,10,11
 227 598 227 598 227 660 c 1,0,-1
EndSplineSet
EndChar

StartChar: dotaccent
Encoding: 729 729 206
Width: 833
GlyphClass: 2
Flags: W
LayerCount: 2
Fore
SplineSet
81 657 m 1,0,-1
 151 657 l 1,1,-1
 151 585 l 1,2,-1
 81 585 l 1,3,-1
 81 657 l 1,0,-1
EndSplineSet
EndChar

StartChar: ring
Encoding: 730 730 207
Width: 334
GlyphClass: 2
Flags: W
LayerCount: 2
Fore
SplineSet
259 670 m 128,-1,1
 259 630 259 630 233.5 601 c 128,-1,2
 208 572 208 572 161 572 c 128,-1,3
 114 572 114 572 89.5 600 c 128,-1,4
 65 628 65 628 65 668.5 c 128,-1,5
 65 709 65 709 90 737 c 128,-1,6
 115 765 115 765 162.5 765 c 128,-1,7
 210 765 210 765 234.5 737.5 c 128,-1,0
 259 710 259 710 259 670 c 128,-1,1
205 625.5 m 128,-1,9
 220 645 220 645 220 669.5 c 128,-1,10
 220 694 220 694 205.5 712.5 c 128,-1,11
 191 731 191 731 162.5 731 c 128,-1,12
 134 731 134 731 119 712.5 c 128,-1,13
 104 694 104 694 104 669 c 128,-1,14
 104 644 104 644 118 625 c 128,-1,15
 132 606 132 606 161 606 c 128,-1,8
 190 606 190 606 205 625.5 c 128,-1,9
EndSplineSet
EndChar

StartChar: ogonek
Encoding: 731 731 208
Width: 339
GlyphClass: 2
Flags: W
LayerCount: 2
Fore
SplineSet
110 -5 m 1,0,-1
 170 -5 l 1,1,-1
 170 -64 l 1,2,-1
 199 -178 l 1,3,-1
 155 -178 l 1,4,-1
 152 -174 l 1,5,-1
 110 -64 l 1,6,-1
 110 -5 l 1,0,-1
EndSplineSet
EndChar

StartChar: tilde
Encoding: 732 732 209
Width: 833
GlyphClass: 2
Flags: W
LayerCount: 2
Fore
SplineSet
298 596 m 2,0,1
 279 581 279 581 270 579.5 c 128,-1,2
 261 578 261 578 252.5 578 c 128,-1,3
 244 578 244 578 226 583 c 2,4,-1
 141 603 l 1,5,-1
 66 571 l 1,6,-1
 48 599 l 1,7,-1
 90 634 l 2,8,9
 111 652 111 652 118.5 653.5 c 128,-1,10
 126 655 126 655 133.5 655 c 128,-1,11
 141 655 141 655 158 651 c 2,12,-1
 253 629 l 1,13,-1
 327 664 l 1,14,-1
 345 635 l 1,15,-1
 298 596 l 2,0,1
EndSplineSet
EndChar

StartChar: hungarumlaut
Encoding: 733 733 210
Width: 465
GlyphClass: 2
Flags: W
LayerCount: 2
Fore
SplineSet
109 553 m 1,0,-1
 74 574 l 1,1,2
 75 576 75 576 88 590 c 128,-1,3
 101 604 101 604 105.5 609.5 c 128,-1,4
 110 615 110 615 122 630.5 c 128,-1,5
 134 646 134 646 142 658 c 0,6,7
 158 680 158 680 183 726 c 1,8,-1
 241 695 l 1,9,10
 209 645 209 645 167 598 c 1,11,-1
 109 553 l 1,0,-1
259 553 m 1,12,-1
 224 574 l 1,13,14
 225 576 225 576 238 590 c 128,-1,15
 251 604 251 604 255.5 609.5 c 128,-1,16
 260 615 260 615 272 630.5 c 128,-1,17
 284 646 284 646 292 658 c 0,18,19
 308 680 308 680 333 726 c 1,20,-1
 391 695 l 1,21,22
 359 645 359 645 317 598 c 1,23,-1
 259 553 l 1,12,-1
EndSplineSet
EndChar

StartChar: endash
Encoding: 8211 8211 211
Width: 541
GlyphClass: 2
Flags: W
LayerCount: 2
Fore
SplineSet
56 270 m 1,0,-1
 56 329 l 1,1,-1
 485 329 l 1,2,-1
 485 270 l 1,3,-1
 56 270 l 1,0,-1
EndSplineSet
EndChar

StartChar: emdash
Encoding: 8212 8212 212
Width: 828
GlyphClass: 2
Flags: W
LayerCount: 2
Fore
SplineSet
56 270 m 1,0,-1
 56 329 l 1,1,-1
 772 329 l 1,2,-1
 772 270 l 1,3,-1
 56 270 l 1,0,-1
EndSplineSet
EndChar

StartChar: quoteleft
Encoding: 8216 8216 213
Width: 172
GlyphClass: 2
Flags: W
LayerCount: 2
Fore
SplineSet
114 447 m 1,0,-1
 54 447 l 1,1,-1
 54 501 l 1,2,3
 55 555 55 555 59.5 577 c 128,-1,4
 64 599 64 599 75 613.5 c 128,-1,5
 86 628 86 628 107 645.5 c 128,-1,6
 128 663 128 663 132 667 c 1,7,-1
 158 644 l 1,8,9
 131 610 131 610 117 579 c 1,10,-1
 114 503 l 1,11,-1
 114 447 l 1,0,-1
EndSplineSet
EndChar

StartChar: quoteright
Encoding: 8217 8217 214
Width: 172
GlyphClass: 2
Flags: W
LayerCount: 2
Fore
SplineSet
62 667 m 1,0,-1
 122 667 l 1,1,-1
 122 613 l 2,2,3
 122 569 122 569 121.5 551.5 c 128,-1,4
 121 534 121 534 109 513 c 128,-1,5
 97 492 97 492 89 485 c 128,-1,6
 81 478 81 478 44 447 c 1,7,-1
 18 470 l 1,8,9
 47 508 47 508 59 535 c 1,10,-1
 62 612 l 1,11,-1
 62 667 l 1,0,-1
EndSplineSet
EndChar

StartChar: quotesinglbase
Encoding: 8218 8218 215
Width: 149
GlyphClass: 2
Flags: W
LayerCount: 2
Fore
SplineSet
38 92 m 1,0,-1
 113 92 l 1,1,-1
 114 1 l 1,2,-1
 61 -126 l 1,3,-1
 12 -126 l 1,4,-1
 38 1 l 1,5,-1
 38 92 l 1,0,-1
EndSplineSet
EndChar

StartChar: quotedblleft
Encoding: 8220 8220 216
Width: 299
GlyphClass: 2
Flags: W
LayerCount: 2
Fore
SplineSet
233 447 m 1,0,-1
 172 447 l 1,1,-1
 172 501 l 1,2,3
 173 555 173 555 177.5 577 c 128,-1,4
 182 599 182 599 193 613.5 c 128,-1,5
 204 628 204 628 225 645.5 c 128,-1,6
 246 663 246 663 250 667 c 1,7,-1
 277 644 l 1,8,9
 251 610 251 610 235 579 c 1,10,-1
 233 503 l 1,11,-1
 233 447 l 1,0,-1
110 447 m 1,12,-1
 50 447 l 1,13,-1
 50 501 l 1,14,15
 51 555 51 555 55.5 577 c 128,-1,16
 60 599 60 599 71 613.5 c 128,-1,17
 82 628 82 628 103 645.5 c 128,-1,18
 124 663 124 663 128 667 c 1,19,-1
 154 644 l 1,20,21
 127 610 127 610 113 579 c 1,22,-1
 110 503 l 1,23,-1
 110 447 l 1,12,-1
EndSplineSet
EndChar

StartChar: quotedblright
Encoding: 8221 8221 217
Width: 303
GlyphClass: 2
Flags: W
LayerCount: 2
Fore
SplineSet
84 667 m 1,0,-1
 144 667 l 1,1,-1
 144 613 l 2,2,3
 144 569 144 569 143.5 551.5 c 128,-1,4
 143 534 143 534 131 513 c 128,-1,5
 119 492 119 492 111 485 c 128,-1,6
 103 478 103 478 66 447 c 1,7,-1
 40 470 l 1,8,9
 69 508 69 508 81 535 c 1,10,-1
 84 612 l 1,11,-1
 84 667 l 1,0,-1
206 667 m 1,12,-1
 267 667 l 1,13,-1
 266 613 l 1,14,15
 266 539 266 539 257 518 c 128,-1,16
 248 497 248 497 201 457 c 0,17,18
 193 451 193 451 189 447 c 1,19,-1
 162 470 l 1,20,21
 190 508 190 508 204 535 c 1,22,-1
 206 612 l 1,23,-1
 206 667 l 1,12,-1
EndSplineSet
EndChar

StartChar: quotedblbase
Encoding: 8222 8222 218
Width: 310
GlyphClass: 2
Flags: W
LayerCount: 2
Fore
SplineSet
-2 92 m 1,0,-1
 73 92 l 1,1,-1
 74 1 l 1,2,-1
 21 -126 l 1,3,-1
 -28 -126 l 1,4,-1
 -2 1 l 1,5,-1
 -2 92 l 1,0,-1
168 92 m 1,6,-1
 243 92 l 1,7,-1
 244 1 l 1,8,-1
 191 -126 l 1,9,-1
 142 -126 l 1,10,-1
 168 1 l 1,11,-1
 168 92 l 1,6,-1
EndSplineSet
EndChar

StartChar: dagger
Encoding: 8224 8224 219
Width: 270
GlyphClass: 2
Flags: W
LayerCount: 2
Fore
SplineSet
-55 433 m 1,0,-1
 -55 492 l 1,1,-1
 103 492 l 1,2,-1
 103 682 l 1,3,-1
 167 682 l 1,4,-1
 166 492 l 1,5,-1
 326 492 l 1,6,-1
 326 433 l 1,7,-1
 166 433 l 1,8,-1
 166 -44 l 1,9,-1
 103 -44 l 1,10,-1
 103 433 l 1,11,-1
 -55 433 l 1,0,-1
EndSplineSet
EndChar

StartChar: daggerdbl
Encoding: 8225 8225 220
Width: 270
GlyphClass: 2
Flags: W
LayerCount: 2
Fore
SplineSet
-30 384 m 1,0,-1
 -30 443 l 1,1,-1
 103 443 l 1,2,-1
 103 682 l 1,3,-1
 167 682 l 1,4,-1
 166 443 l 1,5,-1
 301 443 l 1,6,-1
 301 384 l 1,7,-1
 166 384 l 1,8,-1
 166 243 l 1,9,-1
 301 243 l 1,10,-1
 301 184 l 1,11,-1
 166 184 l 1,12,-1
 166 -44 l 1,13,-1
 103 -44 l 1,14,-1
 103 184 l 1,15,-1
 -30 184 l 1,16,-1
 -30 243 l 1,17,-1
 103 243 l 1,18,-1
 103 384 l 1,19,-1
 -30 384 l 1,0,-1
EndSplineSet
EndChar

StartChar: bullet
Encoding: 8226 8226 221
Width: 462
GlyphClass: 2
Flags: W
LayerCount: 2
Fore
SplineSet
167 421 m 128,-1,1
 195 445 195 445 238 445 c 128,-1,2
 281 445 281 445 302.5 422 c 128,-1,3
 324 399 324 399 324 345.5 c 128,-1,4
 324 292 324 292 297 269.5 c 128,-1,5
 270 247 270 247 229.5 247 c 128,-1,6
 189 247 189 247 164 268 c 128,-1,7
 139 289 139 289 139 343 c 128,-1,0
 139 397 139 397 167 421 c 128,-1,1
EndSplineSet
EndChar

StartChar: ellipsis
Encoding: 8230 8230 222
Width: 801
GlyphClass: 2
Flags: W
LayerCount: 2
Fore
SplineSet
155 90 m 1,0,-1
 155 0 l 1,1,-1
 70 0 l 1,2,-1
 70 90 l 1,3,-1
 155 90 l 1,0,-1
535 90 m 1,4,-1
 535 0 l 1,5,-1
 450 0 l 1,6,-1
 450 90 l 1,7,-1
 535 90 l 1,4,-1
345 90 m 1,8,-1
 345 0 l 1,9,-1
 260 0 l 1,10,-1
 260 90 l 1,11,-1
 345 90 l 1,8,-1
EndSplineSet
EndChar

StartChar: perthousand
Encoding: 8240 8240 223
Width: 1064
GlyphClass: 2
Flags: W
LayerCount: 2
Fore
SplineSet
215 -9 m 1,0,-1
 150 -9 l 1,1,-1
 524 696 l 1,2,-1
 588 696 l 1,3,-1
 215 -9 l 1,0,-1
192 647 m 128,-1,5
 143 647 143 647 130 628 c 128,-1,6
 117 609 117 609 117 543 c 128,-1,7
 117 477 117 477 131.5 451.5 c 128,-1,8
 146 426 146 426 194.5 426 c 128,-1,9
 243 426 243 426 255.5 446 c 128,-1,10
 268 466 268 466 268 531 c 128,-1,11
 268 596 268 596 254.5 621.5 c 128,-1,4
 241 647 241 647 192 647 c 128,-1,5
192 696 m 0,12,13
 272 696 272 696 296 662 c 128,-1,14
 320 628 320 628 320 545.5 c 128,-1,15
 320 463 320 463 287 420 c 128,-1,16
 254 377 254 377 185 377 c 128,-1,17
 116 377 116 377 90.5 412 c 128,-1,18
 65 447 65 447 65 528.5 c 128,-1,19
 65 610 65 610 99 653 c 128,-1,20
 133 696 133 696 192 696 c 0,12,13
552 259 m 128,-1,22
 503 259 503 259 490 240 c 128,-1,23
 477 221 477 221 477 155 c 128,-1,24
 477 89 477 89 491.5 63.5 c 128,-1,25
 506 38 506 38 554.5 38 c 128,-1,26
 603 38 603 38 615.5 58 c 128,-1,27
 628 78 628 78 628 143 c 128,-1,28
 628 208 628 208 614.5 233.5 c 128,-1,21
 601 259 601 259 552 259 c 128,-1,22
552 308 m 0,29,30
 632 308 632 308 656 274 c 128,-1,31
 680 240 680 240 680 157.5 c 128,-1,32
 680 75 680 75 647 32 c 128,-1,33
 614 -11 614 -11 545 -11 c 128,-1,34
 476 -11 476 -11 450.5 24 c 128,-1,35
 425 59 425 59 425 140.5 c 128,-1,36
 425 222 425 222 459 265 c 128,-1,37
 493 308 493 308 552 308 c 0,29,30
872 259 m 128,-1,39
 823 259 823 259 810 240 c 128,-1,40
 797 221 797 221 797 155 c 128,-1,41
 797 89 797 89 811.5 63.5 c 128,-1,42
 826 38 826 38 874.5 38 c 128,-1,43
 923 38 923 38 935.5 58 c 128,-1,44
 948 78 948 78 948 143 c 128,-1,45
 948 208 948 208 934.5 233.5 c 128,-1,38
 921 259 921 259 872 259 c 128,-1,39
872 308 m 0,46,47
 952 308 952 308 976 274 c 128,-1,48
 1000 240 1000 240 1000 157.5 c 128,-1,49
 1000 75 1000 75 967 32 c 128,-1,50
 934 -11 934 -11 865 -11 c 128,-1,51
 796 -11 796 -11 770.5 24 c 128,-1,52
 745 59 745 59 745 140.5 c 128,-1,53
 745 222 745 222 779 265 c 128,-1,54
 813 308 813 308 872 308 c 0,46,47
EndSplineSet
EndChar

StartChar: guilsinglleft
Encoding: 8249 8249 224
Width: 319
GlyphClass: 2
Flags: W
LayerCount: 2
Fore
SplineSet
146 301 m 1,0,1
 125 280 125 280 125 268 c 128,-1,2
 125 256 125 256 146 231 c 1,3,-1
 258 111 l 1,4,-1
 215 71 l 1,5,-1
 52 248 l 1,6,-1
 52 286 l 1,7,-1
 214 462 l 1,8,-1
 259 424 l 1,9,-1
 146 301 l 1,0,1
EndSplineSet
EndChar

StartChar: guilsinglright
Encoding: 8250 8250 225
Width: 319
GlyphClass: 2
Flags: W
LayerCount: 2
Fore
SplineSet
173 231 m 1,0,1
 194 256 194 256 194 268 c 128,-1,2
 194 280 194 280 173 301 c 1,3,-1
 60 424 l 1,4,-1
 105 462 l 1,5,-1
 267 286 l 1,6,-1
 267 248 l 1,7,-1
 104 71 l 1,8,-1
 61 111 l 1,9,-1
 173 231 l 1,0,1
EndSplineSet
EndChar

StartChar: fraction
Encoding: 8260 8260 226
Width: 339
GlyphClass: 2
Flags: W
LayerCount: 2
Fore
SplineSet
50 -7 m 1,0,-1
 319 751 l 1,1,-1
 373 732 l 1,2,-1
 105 -26 l 1,3,-1
 50 -7 l 1,0,-1
EndSplineSet
EndChar

StartChar: Euro
Encoding: 8364 8364 227
Width: 610
GlyphClass: 2
Flags: W
LayerCount: 2
Fore
SplineSet
45 302 m 1,0,-1
 385 302 l 1,1,-1
 385 252 l 1,2,-1
 189 252 l 1,3,4
 203 133 203 133 259 90 c 0,5,6
 307 54 307 54 377 54 c 0,7,8
 411 54 411 54 430 56 c 0,9,10
 487 60 487 60 544 94 c 1,11,-1
 567 40 l 1,12,13
 495 -9 495 -9 379 -9 c 0,14,15
 339 -9 339 -9 308.5 -4.5 c 128,-1,16
 278 0 278 0 243 16 c 128,-1,17
 208 32 208 32 184 59 c 0,18,19
 129 122 129 122 118 252 c 1,20,-1
 45 252 l 1,21,-1
 45 302 l 1,0,-1
385 374 m 1,22,-1
 45 374 l 1,23,-1
 45 424 l 1,24,-1
 123 424 l 1,25,26
 165 660 165 660 411 660 c 0,27,28
 484 660 484 660 567 633 c 1,29,-1
 551 580 l 1,30,31
 461 598 461 598 421 598 c 128,-1,32
 381 598 381 598 354 595 c 128,-1,33
 327 592 327 592 297.5 581.5 c 128,-1,34
 268 571 268 571 249 552 c 0,35,36
 205 510 205 510 192 424 c 1,37,-1
 385 424 l 1,38,-1
 385 374 l 1,22,-1
EndSplineSet
EndChar

StartChar: trademark
Encoding: 8482 8482 228
Width: 761
GlyphClass: 2
Flags: W
LayerCount: 2
Fore
SplineSet
408 657 m 1,0,-1
 518 436 l 1,1,-1
 628 657 l 1,2,-1
 672 657 l 1,3,-1
 683 301 l 1,4,-1
 646 301 l 1,5,-1
 643 569 l 1,6,-1
 642 609 l 1,7,-1
 536 400 l 1,8,-1
 500 400 l 1,9,-1
 394 609 l 1,10,-1
 393 569 l 1,11,-1
 390 301 l 1,12,-1
 353 301 l 1,13,-1
 365 657 l 1,14,-1
 408 657 l 1,0,-1
56 626 m 1,15,-1
 56 657 l 1,16,-1
 292 657 l 1,17,-1
 292 626 l 1,18,-1
 192 626 l 1,19,-1
 192 301 l 1,20,-1
 156 301 l 1,21,-1
 156 626 l 1,22,-1
 56 626 l 1,15,-1
EndSplineSet
EndChar

StartChar: minus
Encoding: 8722 8722 229
Width: 491
GlyphClass: 2
Flags: W
LayerCount: 2
Fore
SplineSet
55 285 m 1,0,-1
 55 344 l 1,1,-1
 436 344 l 1,2,-1
 436 285 l 1,3,-1
 55 285 l 1,0,-1
EndSplineSet
EndChar

StartChar: fi
Encoding: 64257 64257 230
Width: 571
GlyphClass: 2
Flags: W
LayerCount: 2
Fore
SplineSet
225 492 m 2,0,-1
 276 492 l 2,1,2
 319 492 319 492 362 492 c 1,3,-1
 362 0 l 1,4,-1
 300 0 l 1,5,-1
 300 444 l 1,6,-1
 117 444 l 2,7,8
 109 444 109 444 109 440 c 2,9,-1
 109 -74 l 1,10,-1
 74 -198 l 1,11,-1
 71 -201 l 1,12,-1
 25 -201 l 1,13,-1
 47 -74 l 1,14,-1
 47 438 l 2,15,16
 47 443 47 443 34 443 c 2,17,-1
 0 443 l 1,18,-1
 1 472 l 1,19,20
 42 491 42 491 47 493 c 1,21,-1
 47 494 l 1,22,-1
 46 572 l 2,23,24
 46 624 46 624 67 659.5 c 128,-1,25
 88 695 88 695 118 710 c 1,26,27
 175 736 175 736 225 736 c 0,28,29
 228 736 228 736 231 736 c 2,30,-1
 252 735 l 1,31,-1
 241 686 l 2,32,33
 240 684 240 684 231.5 685.5 c 128,-1,34
 223 687 223 687 215.5 687 c 128,-1,35
 208 687 208 687 191 681.5 c 128,-1,36
 174 676 174 676 155 667 c 128,-1,37
 136 658 136 658 122.5 633 c 128,-1,38
 109 608 109 608 109 572 c 2,39,-1
 109 500 l 2,40,41
 109 492 109 492 225 492 c 2,0,-1
296 657 m 1,42,-1
 366 657 l 1,43,-1
 366 585 l 1,44,-1
 296 585 l 1,45,-1
 296 657 l 1,42,-1
EndSplineSet
EndChar

StartChar: fl
Encoding: 64258 64258 231
Width: 571
GlyphClass: 2
Flags: W
LayerCount: 2
Fore
SplineSet
299 122 m 1,0,-1
 300 684 l 1,1,2
 281 688 281 688 265.5 688 c 128,-1,3
 250 688 250 688 227.5 685 c 128,-1,4
 205 682 205 682 179 672 c 128,-1,5
 153 662 153 662 135.5 636 c 128,-1,6
 118 610 118 610 116 572 c 1,7,-1
 116 500 l 2,8,9
 116 495 116 495 117.5 493.5 c 128,-1,10
 119 492 119 492 125 492 c 2,11,-1
 238 492 l 1,12,-1
 230 445 l 1,13,-1
 121 445 l 2,14,15
 113 445 113 445 113 441 c 2,16,-1
 113 -73 l 1,17,-1
 74 -198 l 1,18,-1
 71 -201 l 1,19,-1
 25 -201 l 1,20,-1
 47 -74 l 1,21,-1
 48 439 l 2,22,23
 48 443 48 443 37.5 443.5 c 128,-1,24
 27 444 27 444 0 444 c 1,25,-1
 1 472 l 1,26,27
 9 476 9 476 25.5 482.5 c 128,-1,28
 42 489 42 489 48 492 c 1,29,-1
 48 573 l 1,30,31
 49 634 49 634 81 672.5 c 128,-1,32
 113 711 113 711 159.5 722.5 c 128,-1,33
 206 734 206 734 257.5 734 c 128,-1,34
 309 734 309 734 365 719 c 1,35,-1
 365 122 l 1,36,-1
 390 -6 l 1,37,-1
 341 -6 l 1,38,-1
 337 -2 l 1,39,-1
 299 122 l 1,0,-1
EndSplineSet
EndChar

